<svg width="331" height="724" fill="none" xmlns="http://www.w3.org/2000/svg"><path fill-rule="evenodd" clip-rule="evenodd" d="M323.5 14v2.887h-1V14h1Zm0 8.66v5.774h-1v-5.773h1Zm0 11.548v5.774h-1v-5.774h1Zm0 11.548v5.774h-1v-5.774h1Zm0 11.547v5.774h-1v-5.773h1Zm0 11.548v5.774h-1V68.85h1Zm0 11.548v5.773h-1V80.4h1Zm0 11.547v5.774h-1v-5.774h1Zm0 11.548v2.887c0 .834-.082 1.65-.238 2.439l-.981-.194c.144-.726.219-1.476.219-2.245v-2.887h1Zm-2.106 9.832a12.553 12.553 0 0 1-3.449 3.449l-.556-.831a11.58 11.58 0 0 0 3.174-3.174l.831.556Zm-7.955 5.317c-.789.156-1.605.238-2.439.238h-3.031v-1H311c.769 0 1.519-.075 2.245-.219l.194.981Zm-293.44.238c-.768 0-1.518.075-2.244.219l-.194-.981c.79-.156 1.605-.238 2.439-.238h3.031v1H20Zm15.157 0h-6.062v-1h6.062v1Zm12.125 0H41.22v-1h6.062v1Zm12.125 0h-6.062v-1h6.062v1Zm12.125 0H65.47v-1h6.062v1Zm12.125 0h-6.062v-1h6.062v1Zm12.125 0H89.72v-1h6.062v1Zm12.125 0h-6.062v-1h6.062v1Zm12.125 0h-6.062v-1h6.062v1Zm12.125 0h-6.062v-1h6.062v1Zm12.125 0h-6.062v-1h6.062v1Zm12.125 0h-6.062v-1h6.062v1Zm6.063 0v-1h6.062v1h-6.062Zm18.187 0h-6.062v-1h6.062v1Zm12.125 0h-6.062v-1h6.062v1Zm12.125 0h-6.062v-1h6.062v1Zm12.125 0h-6.062v-1h6.062v1Zm12.125 0h-6.062v-1h6.062v1Zm12.125 0h-6.062v-1h6.062v1Zm12.125 0h-6.062v-1h6.062v1Zm12.125 0h-6.062v-1h6.062v1Zm12.125 0h-6.062v-1h6.062v1Zm12.125 0h-6.062v-1h6.062v1Zm12.125 0h-6.062v-1h6.062v1Zm-288.295 1.937a11.544 11.544 0 0 0-3.174 3.174l-.831-.557a12.557 12.557 0 0 1 3.448-3.448l.557.831Zm-4.892 7.318a11.56 11.56 0 0 0-.22 2.245v3.16h-1v-3.16c0-.834.083-1.65.239-2.439l.98.194Zm-.22 11.725v6.32h-1v-6.32h1Zm0 12.64v6.32h-1v-6.32h1Zm0 12.64v6.32h-1v-6.32h1Zm0 12.639v6.32h-1v-6.32h1Zm0 12.64v6.32h-1v-6.32h1Zm0 12.64v6.32h-1v-6.32h1Zm0 12.64v6.32h-1v-6.32h1Zm0 12.64v3.16c0 .769.076 1.519.22 2.245l-.981.194A12.559 12.559 0 0 1 7.5 231.5v-3.16h1Zm1.938 9.549a11.545 11.545 0 0 0 3.174 3.174l-.557.831a12.57 12.57 0 0 1-3.448-3.448l.83-.557Zm7.318 4.892c.726.144 1.476.219 2.245.219h3.031v1H20c-.834 0-1.65-.082-2.44-.238l.195-.981Zm11.339.219h6.062v1h-6.062v-1Zm12.125 0h6.062v1H41.22v-1Zm12.125 0h6.062v1h-6.062v-1Zm12.125 0h6.062v1H65.47v-1Zm12.125 0h6.062v1h-6.062v-1Zm12.125 0h6.062v1H89.72v-1Zm12.125 0h6.062v1h-6.062v-1Zm12.125 0h6.062v1h-6.062v-1Zm12.125 0h6.062v1h-6.062v-1Zm12.125 0h6.062v1h-6.062v-1Zm12.125 0h6.062v1h-6.062v-1Zm12.125 1v-1h6.062v1h-6.062Zm12.125-1h6.062v1h-6.062v-1Zm12.125 0h6.062v1h-6.062v-1Zm12.125 0h6.062v1h-6.062v-1Zm12.125 0h6.062v1h-6.062v-1Zm12.125 0h6.062v1h-6.062v-1Zm12.125 0h6.062v1h-6.062v-1Zm12.125 0h6.062v1h-6.062v-1Zm12.125 0h6.062v1h-6.062v-1Zm12.125 0h6.062v1h-6.062v-1Zm12.125 0h6.062v1h-6.062v-1Zm12.125 0h6.062v1h-6.062v-1Zm12.125 0H311c.834 0 1.65.082 2.439.238l-.194.981A11.525 11.525 0 0 0 311 244h-3.031v-1Zm9.976 2.106a12.563 12.563 0 0 1 3.449 3.448l-.831.557a11.554 11.554 0 0 0-3.174-3.174l.556-.831Zm5.317 7.955c.156.789.238 1.605.238 2.439v2.969h-1V255.5c0-.769-.075-1.519-.219-2.245l.981-.194Zm.238 11.345v5.938h-1v-5.938h1Zm0 11.875v5.938h-1v-5.938h1Zm0 11.875v5.938h-1v-5.938h1Zm0 11.875v5.938h-1v-5.938h1Zm0 11.875v5.938h-1v-5.938h1Zm0 11.875v5.938h-1v-5.938h1Zm0 11.875v5.938h-1v-5.938h1Zm0 11.875v5.938h-1v-5.938h1Zm0 11.875v5.938h-1v-5.938h1Zm0 11.875v5.938h-1v-5.938h1Zm0 11.875v5.938h-1v-5.938h1Zm0 11.875V398c0 .834-.082 1.65-.238 2.439l-.981-.194c.144-.726.219-1.476.219-2.245v-2.969h1Zm-2.106 9.915a12.563 12.563 0 0 1-3.449 3.448l-.556-.831a11.554 11.554 0 0 0 3.174-3.174l.831.557Zm-7.955 5.316c-.789.156-1.605.238-2.439.238h-3.031v-1H311c.769 0 1.519-.075 2.245-.219l.194.981Zm-293.44.238c-.768 0-1.518.075-2.244.219l-.194-.981c.79-.156 1.605-.238 2.439-.238h3.031v1H20Zm15.157 0h-6.062v-1h6.062v1Zm12.125 0H41.22v-1h6.062v1Zm12.125 0h-6.062v-1h6.062v1Zm12.125 0H65.47v-1h6.062v1Zm12.125 0h-6.062v-1h6.062v1Zm12.125 0H89.72v-1h6.062v1Zm12.125 0h-6.062v-1h6.062v1Zm12.125 0h-6.062v-1h6.062v1Zm12.125 0h-6.062v-1h6.062v1Zm12.125 0h-6.062v-1h6.062v1Zm12.125 0h-6.062v-1h6.062v1Zm12.125 0h-6.062v-1h6.062v1Zm12.125 0h-6.062v-1h6.062v1Zm12.125 0h-6.062v-1h6.062v1Zm12.125 0h-6.062v-1h6.062v1Zm12.125 0h-6.062v-1h6.062v1Zm12.125 0h-6.062v-1h6.062v1Zm12.125 0h-6.062v-1h6.062v1Zm12.125 0h-6.062v-1h6.062v1Zm12.125 0h-6.062v-1h6.062v1Zm12.125 0h-6.062v-1h6.062v1Zm12.125 0h-6.062v-1h6.062v1Zm12.125 0h-6.062v-1h6.062v1Zm-288.295 1.937a11.544 11.544 0 0 0-3.174 3.174l-.831-.557a12.57 12.57 0 0 1 3.448-3.448l.557.831Zm-4.892 7.318a11.56 11.56 0 0 0-.22 2.245v3.089h-1V422c0-.834.083-1.65.239-2.439l.98.194Zm-.22 11.513v6.178h-1v-6.178h1Zm0 12.357v6.179h-1v-6.179h1Zm0 12.357v6.179h-1v-6.179h1Zm0 12.357v6.179h-1v-6.179h1Zm0 12.357v6.179h-1v-6.179h1Zm0 12.358v6.178h-1v-6.178h1Zm0 12.357v3.089c0 .769.076 1.519.22 2.245l-.981.194A12.559 12.559 0 0 1 7.5 508.5v-3.089h1Zm1.938 9.478a11.547 11.547 0 0 0 3.174 3.174l-.557.831a12.569 12.569 0 0 1-3.448-3.448l.83-.557Zm7.318 4.892c.726.144 1.476.219 2.245.219h3.031v1H20c-.834 0-1.65-.082-2.44-.238l.195-.981Zm11.339.219h6.062v1h-6.062v-1Zm12.125 0h6.062v1H41.22v-1Zm12.125 0h6.062v1h-6.062v-1Zm12.125 0h6.062v1H65.47v-1Zm12.125 0h6.062v1h-6.062v-1Zm12.125 0h6.062v1H89.72v-1Zm12.125 0h6.062v1h-6.062v-1Zm12.125 0h6.062v1h-6.062v-1Zm12.125 0h6.062v1h-6.062v-1Zm12.125 0h6.062v1h-6.062v-1Zm12.125 0h6.062v1h-6.062v-1Zm12.125 0h6.062v1h-6.062v-1Zm12.125 0h6.062v1h-6.062v-1Zm12.125 0h6.062v1h-6.062v-1Zm12.125 0h6.062v1h-6.062v-1Zm12.125 0h6.062v1h-6.062v-1Zm12.125 0h6.062v1h-6.062v-1Zm12.125 0h6.062v1h-6.062v-1Zm12.125 0h6.062v1h-6.062v-1Zm12.125 0h6.062v1h-6.062v-1Zm12.125 0h6.062v1h-6.062v-1Zm12.125 0h6.062v1h-6.062v-1Zm12.125 0h6.062v1h-6.062v-1Zm12.125 0H311c.834 0 1.65.082 2.439.238l-.194.981A11.525 11.525 0 0 0 311 521h-3.031v-1Zm9.976 2.106a12.563 12.563 0 0 1 3.449 3.448l-.831.557a11.54 11.54 0 0 0-3.174-3.174l.556-.831Zm5.317 7.955c.156.789.238 1.605.238 2.439v2.857h-1V532.5c0-.769-.075-1.519-.219-2.245l.981-.194Zm.238 11.01v5.715h-1v-5.715h1Zm0 11.429v5.714h-1V552.5h1Zm0 11.429v5.714h-1v-5.714h1Zm0 11.428v5.714h-1v-5.714h1Zm0 11.429v5.714h-1v-5.714h1Zm0 11.428v5.715h-1v-5.715h1Zm0 11.429v2.857c0 .834-.082 1.65-.238 2.439l-.981-.194c.144-.726.219-1.476.219-2.245v-2.857h1Zm-2.106 9.803a12.563 12.563 0 0 1-3.449 3.448l-.556-.831a11.554 11.554 0 0 0 3.174-3.174l.831.557Zm-7.955 5.316c-.789.156-1.605.238-2.439.238h-3.031v-1H311c.769 0 1.519-.075 2.245-.219l.194.981ZM19.999 625c-.768 0-1.518.075-2.244.219l-.194-.981A12.57 12.57 0 0 1 20 624h3.031v1H20Zm15.157 0h-6.062v-1h6.062v1Zm12.125 0H41.22v-1h6.062v1Zm12.125 0h-6.062v-1h6.062v1Zm12.125 0H65.47v-1h6.062v1Zm12.125 0h-6.062v-1h6.062v1Zm12.125 0H89.72v-1h6.062v1Zm12.125 0h-6.062v-1h6.062v1Zm12.125 0h-6.062v-1h6.062v1Zm12.125 0h-6.062v-1h6.062v1Zm12.125 0h-6.062v-1h6.062v1Zm12.125 0h-6.062v-1h6.062v1Zm12.125 0h-6.062v-1h6.062v1Zm12.125 0h-6.062v-1h6.062v1Zm12.125 0h-6.062v-1h6.062v1Zm12.125 0h-6.062v-1h6.062v1Zm12.125 0h-6.062v-1h6.062v1Zm12.125 0h-6.062v-1h6.062v1Zm12.125 0h-6.062v-1h6.062v1Zm12.125 0h-6.062v-1h6.062v1Zm12.125 0h-6.062v-1h6.062v1Zm12.125 0h-6.062v-1h6.062v1Zm12.125 0h-6.062v-1h6.062v1Zm12.125 0h-6.062v-1h6.062v1Zm-288.295 1.937a11.547 11.547 0 0 0-3.174 3.174l-.831-.557a12.569 12.569 0 0 1 3.448-3.448l.557.831Zm-4.892 7.318a11.56 11.56 0 0 0-.22 2.245v2.821h-1V636.5c0-.834.083-1.65.239-2.439l.98.194Zm-.22 10.709v5.643h-1v-5.643h1Zm0 11.286v5.643h-1v-5.643h1Zm0 11.286v5.643h-1v-5.643h1Zm0 11.285v5.643h-1v-5.643h1Zm0 11.286v5.643h-1v-5.643h1Zm0 11.286v5.643h-1v-5.643h1Zm0 11.286v2.821h-1v-2.821h1Z" fill="#fff"/><path d="M323 15a7 7 0 1 0 0-14 7 7 0 0 0 0 14Z" fill="#1F2229"/><path fill-rule="evenodd" clip-rule="evenodd" d="M323 2a6 6 0 1 0 0 12 6 6 0 0 0 0-12Zm-8 6a8 8 0 1 1 16 0 8 8 0 0 1-16 0Z" fill="#fff"/><path d="M8 188.381a7 7 0 1 0 0-14 7 7 0 0 0 0 14Z" fill="#1F2229"/><path fill-rule="evenodd" clip-rule="evenodd" d="M8 175.381a6 6 0 1 0 0 12 6 6 0 0 0 0-12Zm-8 6a8 8 0 1 1 16 0 8 8 0 0 1-16 0Z" fill="#fff"/><path d="M323 332a7 7 0 1 0 0-14 7 7 0 0 0 0 14Z" fill="#1F2229"/><path fill-rule="evenodd" clip-rule="evenodd" d="M323 319a6 6 0 1 0 0 12 6 6 0 0 0 0-12Zm-8 6a8 8 0 1 1 16 0 8 8 0 0 1-16 0Z" fill="#fff"/><path d="M8.4 471.8a6.4 6.4 0 1 0 0-12.8 6.4 6.4 0 0 0 0 12.8Z" fill="#1F2229"/><path fill-rule="evenodd" clip-rule="evenodd" d="M8.4 460a5.4 5.4 0 1 0 0 10.8 5.4 5.4 0 0 0 0-10.8ZM1 465.4a7.4 7.4 0 1 1 14.8 0 7.4 7.4 0 0 1-14.8 0Z" fill="#fff"/><path d="M322 577a7 7 0 1 0 0-14 7 7 0 0 0 0 14Z" fill="#1F2229"/><path fill-rule="evenodd" clip-rule="evenodd" d="M322 564a6 6 0 1 0 0 12 6 6 0 0 0 0-12Zm-8 6a8 8 0 1 1 16 0 8 8 0 0 1-16 0Z" fill="#fff"/><path d="M9 723a7 7 0 1 0 0-14 7 7 0 0 0 0 14Z" fill="#1F2229"/><path fill-rule="evenodd" clip-rule="evenodd" d="M9 710a6 6 0 1 0 0 12 6 6 0 0 0 0-12Zm-8 6a8 8 0 1 1 16 0 8 8 0 0 1-16 0Z" fill="#fff"/><path d="M20 57.932v-6.024c0 1.078.777 2.356 2.871 3.557 7.369 4.258 19.506 11.244 26.875 15.477 3.468 2.014 8.746 2.218 11.755.484 7.572-4.36 28.28-17.354 35.853-21.714 1.269-.732 1.934-1.694 2.02-2.712l.008 6.512c.051 1.157-.617 2.263-2.057 3.086-7.637 4.397-28.272 16.669-35.909 21.066-3.034 1.748-8.357 1.543-11.854-.489-7.431-4.268-19.67-11.314-27.102-15.608-1.877-1.054-2.409-2.323-2.46-3.635Z" fill="#fff"/><path fill-rule="evenodd" clip-rule="evenodd" d="M97.104 49.279c1.172-.676 1.704-1.512 1.772-2.32l.998.04.008 6.502c.057 1.393-.763 2.647-2.308 3.53-3.816 2.197-10.88 6.363-17.95 10.53l-.003.002c-7.065 4.166-14.135 8.334-17.955 10.534-1.624.936-3.816 1.329-6.024 1.24-2.212-.09-4.499-.665-6.33-1.729-7.43-4.268-19.668-11.312-27.1-15.606-.994-.56-1.666-1.195-2.093-1.896-.429-.702-.59-1.435-.619-2.154v-6.044h1c0 .815.592 1.96 2.62 3.123h.001c7.369 4.259 19.505 11.245 26.874 15.477l.002.002c1.651.959 3.755 1.497 5.819 1.58 2.068.084 4.037-.291 5.435-1.097 3.779-2.175 10.84-6.51 17.914-10.85l.01-.006c7.064-4.335 14.136-8.675 17.929-10.858ZM20.5 54.245v3.677c.024.589.154 1.143.472 1.664.32.525.852 1.05 1.733 1.545l.005.003c7.431 4.294 19.67 11.34 27.101 15.608h.002c1.666.968 3.788 1.511 5.87 1.595 2.086.085 4.073-.294 5.483-1.106 3.816-2.197 10.881-6.363 17.95-10.53l.003-.003c7.066-4.165 14.135-8.333 17.956-10.533l.002-.001c1.33-.76 1.846-1.713 1.805-2.63v-.01l-.006-4.364a5.54 5.54 0 0 1-1.273.985c-3.778 2.176-10.84 6.51-17.914 10.85L79.68 61c-7.064 4.335-14.138 8.676-17.931 10.86-1.611.928-3.785 1.318-5.975 1.23-2.194-.09-4.463-.66-6.28-1.715a14507.79 14507.79 0 0 1-26.873-15.477c-.918-.526-1.619-1.083-2.122-1.653Z" fill="#fff"/><path d="M57.883 27.672c3.008-1.734 8.287-1.53 11.754.484l5.54 3.185c6.169 3.55 16.576 9.543 21.335 12.293 3.468 1.989 3.85 5.023.842 6.757-7.573 4.36-28.28 17.354-35.853 21.714-3.01 1.734-8.287 1.53-11.755-.484C42.377 67.388 30.24 60.4 22.87 56.143c-3.468-1.988-3.85-5.023-.841-6.757 7.572-4.36 28.254-17.354 35.853-21.714Z" fill="#1F2229"/><path fill-rule="evenodd" clip-rule="evenodd" d="M59.297 26.523c3.184-.995 7.542-.57 10.59 1.2l5.54 3.185-.498.866-5.54-3.184-.003-.001c-2.802-1.628-6.87-2.024-9.791-1.112l-.15-.477.15.477a7.274 7.274 0 0 0-1.462.628h-.001c-.42.242-.882.51-1.379.802-4.042 2.372-10.45 6.306-16.827 10.221l-.895.55c-6.661 4.09-13.168 8.078-16.752 10.142l-.25-.434.25.434c-1.385.798-1.882 1.82-1.761 2.787.126 1.007.94 2.15 2.602 3.103h.001l.63.364-.251.433.25-.433c7.415 4.283 19.082 10.999 26.245 15.113l.002.001c2.983 1.733 7.39 2.066 10.322.927a6.8 6.8 0 0 0 .932-.443c3.79-2.182 10.84-6.51 17.9-10.84 6.016-3.693 12.039-7.39 16.05-9.762l.255.43-.254-.43c.699-.414 1.337-.787 1.902-1.113l.25.434-.25-.434c1.385-.798 1.882-1.82 1.761-2.787-.125-1.007-.94-2.15-2.602-3.103h-.001c-4.759-2.75-11.506-6.638-17.674-10.187l.499-.867c6.167 3.55 12.915 7.437 17.674 10.187l-.249.434.25-.433c1.805 1.035 2.916 2.404 3.096 3.845.185 1.48-.631 2.842-2.255 3.778-.561.323-1.195.694-1.892 1.106-3.974 2.35-9.986 6.04-16.004 9.733-7.082 4.346-14.172 8.697-17.957 10.875l-.25-.433.25.433a7.796 7.796 0 0 1-1.069.509l-.181-.466.181.466c-3.226 1.254-7.95.886-11.185-.993l.25-.433-.251.432c-7.163-4.114-18.83-10.83-26.245-15.113l-.628-.363.25-.434-.251.433c-1.805-1.035-2.915-2.404-3.095-3.845-.186-1.48.63-2.842 2.254-3.778C25.35 46.9 31.84 42.92 38.508 38.826l.9-.553c6.373-3.912 12.788-7.85 16.839-10.229.5-.293.963-.563 1.387-.806l.249.434-.249-.434a8.27 8.27 0 0 1 1.663-.715Zm0 0 .149.477-.15-.477Z" fill="#fff"/><path d="m63.615 54.242 6.896 4.77-9.455 5.736-6.533-4.567-5.311 2.995-.497-13.287 19.768 1.34-4.868 3.013Z" fill="#38FFA6"/><path fill-rule="evenodd" clip-rule="evenodd" d="M48.367 49.53a.5.5 0 0 1 .382-.14l19.768 1.34a.5.5 0 0 1 .23.924l-4.219 2.61 6.267 4.337a.5.5 0 0 1-.025.84l-9.455 5.735a.5.5 0 0 1-.545-.018l-6.275-4.386-5.038 2.84a.5.5 0 0 1-.745-.418l-.496-13.286a.5.5 0 0 1 .151-.378Zm.869.895.445 11.912 4.597-2.591a.5.5 0 0 1 .532.026l6.265 4.38 8.517-5.167-6.261-4.332a.5.5 0 0 1 .021-.837l3.545-2.194-17.661-1.197ZM46.147 28.077l-9.036-9.036.707-.707 9.036 9.036-.707.707ZM73.197 26.212l9.036-9.036-.707-.707-9.036 9.036.707.707ZM59.173 21.34V10h1v11.34h-1Z" fill="#38FFA6"/><path fill-rule="evenodd" clip-rule="evenodd" d="m245.802 188.028 31.47-18.275.502.864-31.471 18.277h-.002c-3.467 1.998-5.087 4.731-4.759 7.609.332 2.919 2.584 5.808 6.526 8.098a31.449 31.449 0 0 0 14.358 3.877h.005c5.299.187 10.161-.847 13.598-2.848l31.463-18.312.002-.001c3.466-1.989 5.088-4.721 4.768-7.61-.324-2.927-2.594-5.818-6.532-8.109l.503-.864c4.073 2.37 6.65 5.49 7.023 8.863.377 3.409-1.577 6.471-5.263 8.586l-.001.001-31.46 18.311c-3.643 2.12-8.705 3.174-14.134 2.983a32.445 32.445 0 0 1-14.817-4.003l-.01-.006c-4.084-2.371-6.64-5.491-7.023-8.852-.387-3.402 1.568-6.465 5.253-8.588l.001-.001Z" fill="#fff"/><path fill-rule="evenodd" clip-rule="evenodd" d="M245.812 192.269 277.272 174l.502.865-31.471 18.276-.024.013a9.374 9.374 0 0 0-4.408 4.808c.816 2.381 2.941 4.714 6.197 6.603a31.449 31.449 0 0 0 14.358 3.877h.005c5.299.187 10.161-.847 13.598-2.848l31.463-18.276a9.374 9.374 0 0 0 4.432-4.822c-.808-2.381-2.943-4.715-6.194-6.606l.503-.864c3.451 2.007 5.835 4.575 6.699 7.338a.495.495 0 0 1-.011.329 10.373 10.373 0 0 1-4.938 5.496l-31.451 18.27c-3.643 2.12-8.705 3.174-14.134 2.983a32.457 32.457 0 0 1-14.817-4.003l-.01-.006c-3.461-2.007-5.835-4.576-6.708-7.337a.508.508 0 0 1 .01-.331 10.383 10.383 0 0 1 4.939-5.496Z" fill="#fff"/><path fill-rule="evenodd" clip-rule="evenodd" d="m277.551 170.806 3.576 5.561h13.707l7.823-5.534h6.169v8.098c0 2.79-1.878 5.571-5.543 7.703-7.359 4.275-19.277 4.302-26.59 0-3.666-2.132-5.49-4.94-5.454-7.748v-8.098l6.312.018Z" fill="#fff"/><path d="m271.46 182.693-7.528 4.365 7.528-4.365Zm-6.169-25.592 7.474 4.31-7.474-4.31Zm43.863 25.457 7.475 4.347-7.475-4.347ZM290.504 151v6.164V151Zm25.177 6.011-7.564 4.4 7.564-4.4Zm10.318 14.641h-10.604 10.604Zm-35.683 15.856v6.164-6.164Zm-24.927-15.775h-10.604 10.604Z" fill="#38FFA6"/><path fill-rule="evenodd" clip-rule="evenodd" d="M290.504 150.5a.5.5 0 0 1 .5.5v6.164a.5.5 0 0 1-1 0V151a.5.5 0 0 1 .5-.5Zm25.609 6.26a.5.5 0 0 1-.181.683l-7.564 4.401a.5.5 0 0 1-.502-.865l7.563-4.4a.5.5 0 0 1 .684.181Zm-51.256.091a.5.5 0 0 1 .683-.183l7.475 4.31a.5.5 0 0 1-.5.867l-7.474-4.311a.5.5 0 0 1-.184-.683Zm50.038 14.801a.5.5 0 0 1 .5-.5h10.604a.5.5 0 0 1 0 1h-10.604a.5.5 0 0 1-.5-.5Zm-60.11-.419h10.604v1h-10.604v-1Zm53.937 11.074a.5.5 0 0 1 .683-.181l7.475 4.346a.5.5 0 1 1-.503.865l-7.474-4.346a.5.5 0 0 1-.181-.684Zm-36.83.135a.501.501 0 0 1-.181.684l-7.529 4.364a.5.5 0 1 1-.501-.865l7.528-4.364a.5.5 0 0 1 .683.181Zm18.424 4.566a.5.5 0 0 1 .5.5v6.164a.5.5 0 0 1-1 0v-6.164a.5.5 0 0 1 .5-.5ZM276.754 163.21c7.358-4.283 19.267-4.301 26.581-.054 7.313 4.248 7.278 11.177-.081 15.451-7.358 4.275-19.276 4.302-26.59.045-7.313-4.256-7.268-11.167.09-15.442Zm12.436 9.899h-8.046v3.275h13.706l.071-13.3h-5.632l-.099 10.025Z" fill="#38FFA6"/><path d="M314.605 454.073s.971 2.003-9.731 7.169c-11.96 6.414-45.055 24.548-45.055 24.548-2.913 1.619-5.419 1.818-9.798-1.276 0 0-17.518-10.249-22.675-13.487-7.789-4.216-7.341-5.709-7.341-5.709v8.639c-.055 1.466 1.529 2.768 3.917 4.189l26.099 14.89c4.379 3.094 6.885 2.895 9.798 1.276l50.833-27.239c1.963-1.095 4.17-2.751 3.917-4.596h.027v-8.404h.009Z" fill="#fff"/><path fill-rule="evenodd" clip-rule="evenodd" d="M267.959 439.517c-2.961.138-5.433 1.094-8.338 2.644l-.354-.664c2.949-1.574 5.536-2.587 8.658-2.732l14.212-.714c4.17-.163 6.405 0 8.992 1.501l21.042 11.652c4.886 2.859 1.403 5.727-1.51 7.346l-50.833 27.24c-2.913 1.619-5.419 1.818-9.798-1.276l-26.108-14.891c-4.234-2.524-5.944-4.677-.443-8.024l26.669-14.981.369.656-26.658 14.975c-1.336.814-2.167 1.516-2.63 2.119-.449.585-.521 1.027-.443 1.396.087.411.392.89 1.013 1.454.613.557 1.46 1.133 2.502 1.755l26.102 14.887.062.039c2.137 1.511 3.729 2.152 5.079 2.27 1.331.117 2.532-.267 3.918-1.037l.01-.006L310.3 457.89c.703-.392 1.424-.849 2.035-1.351.621-.509 1.084-1.027 1.329-1.528.231-.472.263-.912.056-1.37-.224-.495-.771-1.108-1.921-1.783l-21.035-11.647-.013-.008c-2.39-1.387-4.439-1.562-8.581-1.4h-.004l-14.207.714Z" fill="#fff"/><path d="M256.001 450.236c2.124-1.177 5.459-1.229 7.425-.088l6.179 3.546-20.573 11.41-.036-.456c-.035-.597-.298-1.176-.772-1.703-.456-.527-1.123-.966-1.948-1.334a10.135 10.135 0 0 0-2.792-.737c-1.035-.123-2.106-.141-3.072-.018l-3.949.228 19.538-10.848Z" fill="#38FFA6"/><path d="m234.444 462.172 6.091-.351a11.15 11.15 0 0 1 2.423 0c.79.106 1.509.299 2.141.579.632.281 1.141.615 1.51 1.019.369.403.562.842.597 1.316l.07 1.299-10.322 5.723-6.126-3.546c-1.966-1.124-1.843-3.002.298-4.178l3.336-1.843-.018-.018ZM270.781 454.36l7.127 4.09-8.513 4.722-.176-1.369c-.105-.983-.86-1.913-2.089-2.598-.895-.492-2.019-.843-3.248-1.018l6.899-3.827Z" fill="#38FFA6"/><path d="M262.32 459.065c1.352.035 2.598.351 3.546.878.948.526 1.527 1.229 1.615 2.001l.246 2.159-9.831 5.442-3.809-.193c-1.352-.07-2.616-.404-3.528-.948-.913-.527-1.44-1.264-1.493-2.019l13.219-7.337.035.017Z" fill="#38FFA6"/><path d="M247.522 467.263c.28.702.877 1.334 1.738 1.843 1.193.702 2.826 1.141 4.581 1.229l2.405.123-10.954 6.074-7.127-4.09 9.339-5.179h.018ZM279.102 459.136l5.547 3.177c1.966 1.123 1.843 3.002-.298 4.178l-2.037 1.123-6.372-.14a9.16 9.16 0 0 1-2.3-.07 7.59 7.59 0 0 1-2.018-.562c-.597-.263-1.089-.597-1.44-.965-.351-.387-.561-.808-.597-1.229l-.035-.211 9.567-5.301h-.017Z" fill="#38FFA6"/><path d="M267.972 465.298c.123.368.334.737.632 1.07.474.509 1.089.931 1.861 1.282a9.844 9.844 0 0 0 2.633.72c.966.14 1.984.175 2.827.087l4.669.106-14.833 8.215-.246-2.528a2.485 2.485 0 0 0-.088-1.632c-.246-.562-.667-1.054-1.264-1.492-.597-.457-1.352-.808-2.229-1.071a10.93 10.93 0 0 0-1.896-.369l7.934-4.388Z" fill="#38FFA6"/><path d="M258.493 470.563h.386c.773.053 1.51.176 2.177.387.667.21 1.246.474 1.72.825.457.333.79.719.948 1.141.176.439.211.86.071 1.299v.105l.316 3.388-4.617 2.563c-2.124 1.176-5.46 1.229-7.426.088l-5.547-3.178 11.99-6.635-.018.017ZM20.413 306.289 20 375.687c0 1.212.495 2.053 1.238 2.334l6.189 3.315 58.175-105.623L79 272.137c-.486-.217-1.088-.184-1.733.155l-53.966 28.716c-1.568.908-2.888 3.218-2.888 5.281Z" fill="#38FFA6"/><path fill-rule="evenodd" clip-rule="evenodd" d="m77.501 272.734-53.957 28.711c-.683.398-1.345 1.124-1.838 2.013-.493.89-.793 1.901-.793 2.831v.003l-.413 69.395v.001c0 1.095.44 1.686.915 1.865l.03.012 5.782 3.097 57.694-104.749-6.14-3.326c-.315-.134-.748-.133-1.28.147Zm-.467-.884c.748-.394 1.513-.462 2.17-.17l.017.008 7.061 3.826L27.626 382.01l-6.598-3.534c-.99-.393-1.528-1.475-1.528-2.789v-.003l.413-69.395v-.001c0-1.132.36-2.308.918-3.315.558-1.005 1.337-1.887 2.22-2.398l.007-.004 53.976-28.721Z" fill="#38FFA6"/><path d="M83.868 275.883c1.568-.825 2.888.165 2.888 2.145l-.063 10.674-.057 9.544-.292 49.18c0 2.063-1.32 4.373-2.889 5.281L29.49 381.423c-1.568.825-2.888-.165-2.888-2.146l.412-69.397c0-2.063 1.32-4.373 2.888-5.281l53.967-28.716Z" fill="#1F2229"/><path fill-rule="evenodd" clip-rule="evenodd" d="M86.598 275.696c.693.516 1.057 1.436 1.057 2.526v.003l-.063 10.674-1-.006.063-10.671v-.002c0-.89-.296-1.455-.654-1.722-.338-.252-.846-.323-1.5.02v.001L30.543 305.23c-.683.397-1.345 1.123-1.838 2.012-.493.89-.793 1.901-.793 2.832v.003l-.413 69.394v.001c0 .89.296 1.456.655 1.723.338.252.846.323 1.5-.02 0 0 0-.001 0 0l53.957-28.712c.683-.398 1.344-1.123 1.837-2.012.494-.891.794-1.901.794-2.832v-.003l.292-49.179 1 .006-.292 49.176v.002c0 1.132-.36 2.307-.919 3.314-.557 1.006-1.337 1.887-2.219 2.398l-.008.004-53.974 28.721-.002.001c-.914.481-1.85.47-2.564-.062-.693-.517-1.057-1.436-1.057-2.526v-.003l.413-69.394v-.002c0-1.132.36-2.307.918-3.315.558-1.005 1.337-1.887 2.22-2.397l.007-.005 53.976-28.721c.914-.481 1.85-.47 2.564.062Z" fill="#fff"/><path d="M46.53 327.885c.093 0 .093 0 0 0 .37-.184.738-.369 1.014-.553.368-.184.645-.368 1.013-.552h.092c.276-.185.369 0 .369.368v5.803c0 .736 0 .736.552.46.83-.46 1.658-.829 2.395-1.289.645-.369 1.381-.737 2.026-1.106h.092c.369-.184.46-.092.46.461v2.303c0 .552.093.552.37.46 0 0 .091 0 .091-.092.185-.092.369-.276.645-.368.184-.093.369-.185.46-.277.093-.092.277-.184.37-.184.091-.092.275-.184.367-.184.277-.184.369-.092.369.276v2.671c0 .369-.092.553-.369.645-.368.184-.644.368-1.013.553-.46.276-.92.46-1.381.736-.46.277-.921.461-1.382.737-.276.184-.552.277-.92.461 0 0-.093 0-.093.092-.276.184-.46.092-.368-.369v-2.394c0-.461 0-.553-.369-.369-.829.461-1.566.829-2.395 1.29-.736.368-1.565.829-2.302 1.197-.368.184-.46.369-.368.829v2.579c0 .276 0 .46-.277.553-.368.184-.829.368-1.197.644-.369.185-.645.369-1.013.553-.277.184-.277 0-.277-.276v-6.171c0-.369.092-.553.369-.645h.092l.553-.276c.092-.093.276-.093.368-.185.092-.092.276-.184.368-.184l.553-.276h.092c.276-.184.46-.369.368-.829v-5.987c0-.737 0-.921.277-1.105ZM78.767 342.53c.276-.092.276-.092.276.276v3.132c-1.842 1.013-3.684 1.934-5.526 2.947v-3.131c0-.277.092-.461.277-.553.829-.461 1.657-.829 2.486-1.289.921-.461 1.658-.922 2.487-1.382ZM76.004 337.002c.277-.184.369-.092.369.276v2.579c0 .369-.092.461-.369.645-1.565.829-3.223 1.75-4.789 2.579-.276.184-.368.276-.368.645v6.631c-.921.461-1.843 1.013-2.764 1.474 0-3.408 0-6.724.093-10.132 0-.368.092-.552.368-.736 1.29-.645 2.487-1.29 3.776-1.935a47.498 47.498 0 0 1 3.684-2.026ZM70.663 325.673c.276-.092.276-.092.276.276v9.763c0 .369-.092.461-.276.645h-.092c-.369.184-.645.369-1.013.553-.369.184-.645.368-1.014.552h-.092c-.276.185-.276.092-.276-.276 0-2.118 0-4.145.092-6.171 0-.368-.092-.46-.276-.276-.369.184-.737.368-1.106.644-.184.093-.368.185-.46.277-.184.092-.368.184-.46.276-.185.092-.277.092-.277-.276v-2.763c0-.277.092-.461.276-.553.83-.461 1.658-.829 2.487-1.289.553-.461 1.382-.922 2.21-1.382ZM65.136 335.714c.184-.092.276-.092.276.276v6.355c0 .277-.092.461-.276.553l-1.105.552-1.105.553c-.277.092-.277 0-.277-.276v-6.263c0-.277.092-.461.277-.553l1.105-.553c.368-.276.737-.46 1.105-.644ZM54.083 348.608c.276-.092.276 0 .276.276v2.763c0 .277-.092.461-.276.553h-.092c-.184.092-.276.184-.46.184l-.553.276a4.374 4.374 0 0 1-.645.277c-.184.092-.276.184-.46.276 0 0-.092 0-.092.092-.185.092-.277.092-.277-.276v-2.763c0-.369.092-.461.277-.553l1.105-.553c.46-.092.829-.276 1.197-.552 0 .092 0 0 0 0Z" fill="#fff"/><path d="M59.61 338.661c.276-.184.276 0 .276.277 0 3.223 0 6.447-.092 9.671 0 .368.092.46.368.276.46-.276.921-.461 1.29-.737.46-.184.829-.46 1.289-.645.737-.368 1.474-.829 2.21-1.197.277-.184.369-.092.369.276v2.671c0 .369-.092.461-.368.645-1.566.829-3.224 1.75-4.79 2.579-.276.184-.368.276-.368.645v3.131l-8.29 4.421v-3.131c0-.369.092-.461.369-.645 1.565-.829 3.223-1.75 4.79-2.579.275-.184.368-.276.368-.645 0-3.223 0-6.447.092-9.763 0-.368-.092-.46-.369-.276-1.566.829-3.223 1.75-4.79 2.579-.276.184-.368.092-.368-.276v-2.671c0-.277.092-.461.277-.553 1.29-.645 2.579-1.382 3.868-2.026 1.29-.645 2.579-1.382 3.868-2.027ZM49.11 305.963c0 5.526-.093 11.053-.093 16.579 0 .461-.092.645-.46.829-2.21 1.197-4.421 2.395-6.632 3.5l-6.631 3.592c0-5.895.092-11.789.092-17.684 2.21-1.197 4.42-2.395 6.631-3.5 2.21-1.105 4.421-2.395 6.632-3.592.368-.276.46-.184.46.276Zm-2.856 14.645c0-3.224 0-6.448.092-9.763 0-.369-.092-.461-.368-.277-1.29.645-2.487 1.382-3.776 2.027-1.29.644-2.487 1.381-3.777 2.026-.276.184-.368.276-.368.645v9.763c0 .368.092.46.368.276 1.29-.645 2.487-1.381 3.777-2.026 1.289-.645 2.486-1.382 3.776-2.026.276-.185.276-.369.276-.645ZM40.912 330.923s.092 0 0 0c.369-.184.737-.368 1.197-.645.369-.184.737-.368 1.106-.644.184-.092.184 0 .184.276v2.947c0 .277-.092.369-.276.461l-1.106.552c-.368.185-.736.369-1.105.645-.092 0-.184 0-.184-.276v-2.948c0-.184 0-.276.184-.368ZM37.596 332.673c.276-.184.368-.092.368.277 0 2.118 0 4.145-.092 6.171 0 .368.092.46.277.276h.092c.276-.092.46-.184.645-.276l.552-.276c.184-.093.368-.185.46-.277.185-.092.369-.184.461-.276.276-.092.276-.092.276.276v2.763c0 .277-.092.461-.276.553l-.553.276-.552.277-1.105.552c-.277.092-.277.277-.277.553v2.763c0 .276-.092.461-.276.553-.368.184-.737.368-1.013.552-.46.277-.921.461-1.382.737 0-4.697.092-9.487.092-14.184.369-.184.83-.461 1.198-.645s.737-.46 1.105-.645ZM78.952 321.346c.276-.092.276-.092.276.276v2.763c0 .277-.092.461-.276.553l-1.105.553c-.461.276-.921.552-1.474.737-.46.276-.921.46-1.382.736-.368.185-.644.369-1.013.553-.184.092-.276.092-.276-.276v-2.763c0-.277.092-.461.276-.553.83-.461 1.658-.829 2.487-1.29.829-.46 1.658-.828 2.487-1.289ZM68.543 316.187l1.106-.552 1.105-.553c.184-.092.276 0 .276.276v2.487c0 .461 0 .645.369.461 0 0 .092 0 .092-.092.276-.185.552-.369.829-.461.276-.184.644-.276.92-.46 0 0 .093 0 .093-.092.276-.185.368-.369.368-.829v-2.395c0-.369 0-.553.369-.737.829-.368 1.565-.829 2.394-1.197.737-.461 1.566-.829 2.303-1.29.368-.184.46-.092.46.369v2.394c0 .369 0 .645-.368.829h-.092l-.553.277c-.184.092-.276.184-.46.276-.092.092-.184.092-.369.184-.184.092-.368.184-.46.276h-.092c-.277.093-.369.277-.369.737v2.395c0 .461-.092.645-.46.829-.83.368-1.566.829-2.303 1.197-.92.461-1.842 1.013-2.763 1.474-.921.46-1.842 1.013-2.763 1.474-.737.368-1.566.829-2.303 1.289-.368.184-.46.092-.46-.368v-2.487c0-.369.092-.553.368-.645h.092c.184-.092.277-.184.46-.184.185 0 .277-.184.461-.184.092-.092.277-.184.369-.184.184-.093.46-.277.644-.369h.093c.276-.184.368-.368.368-.737v-2.579c0-.46 0-.644.276-.829ZM62.65 298.228c.183-.093.275-.093.275.184v2.855c0 .276-.092.368-.276.553-.829.46-1.658.829-2.487 1.289-.829.461-1.658.921-2.487 1.29-.184.092-.276.092-.276-.185v-2.855c0-.276.092-.368.276-.553l1.106-.552c.46-.276.92-.553 1.381-.737.46-.276.921-.461 1.382-.737l1.105-.552ZM54.268 306.147c.276-.092.276-.092.276.277v2.763c0 .368.092.368.369.276 2.487-1.381 4.973-2.671 7.552-4.052.277-.185.369-.093.369.276v2.671c0 .276-.092.46-.277.553l-2.21 1.105c-.276.092-.276.276-.276.552v2.764c0 .276-.093.46-.277.552l-1.105.553-1.105.552c-.277.093-.277.093-.277-.276v-2.763c0-.276-.092-.368-.276-.276-.276.184-.553.276-.829.46l-1.658.829c-.368.184-.644.369-1.013.553-.46.276-1.013.552-1.474.829-.276.092-.276.092-.276-.277v-6.355c0-.276.092-.46.276-.552l1.106-.553c.368-.184.829-.276 1.105-.461ZM54.36 316.741c.184-.092.184 0 .184.184v2.948c0 .276-.092.368-.184.46-.369.184-.737.368-1.105.645-.369.184-.737.368-1.106.645-.184.092-.184 0-.184-.185v-2.947c0-.184.092-.368.184-.461l.553-.276.553-.276.552-.277c.184-.092.276-.368.553-.46ZM62.465 315.912c.276-.092.276-.092.276.276v6.263c0 .369-.092.461-.276.553h-.092c-.553.276-1.106.645-1.75.921-1.106.645-2.303 1.197-3.408 1.842-.83.461-1.75.921-2.58 1.382-.828.46-1.75.921-2.578 1.381-.276.184-.369.092-.369-.276v-2.671c0-.369.093-.461.369-.645 2.487-1.289 4.974-2.671 7.552-3.96.369-.185.461-.277.369-.737v-2.671c0-.277.092-.461.276-.553l1.105-.553 1.106-.552ZM62.465 326.504c.184-.092.276 0 .276.184v6.447c0 .277-.092.369-.276.461h-.092l-1.105.552-1.106.553c-.184.092-.276.092-.276-.276v-6.355c0-.277.092-.461.276-.553.369-.184.645-.369 1.013-.553.461 0 .922-.184 1.29-.46ZM78.951 328.344c.184-.092.276-.092.276.184v2.947c0 .277-.092.369-.276.461l-1.105.553c-.369.184-.737.368-1.105.644-.185.092-.277.092-.277-.184v-2.947c0-.277.092-.369.277-.461l1.105-.552c.368-.185.737-.369 1.105-.645ZM43.03 354.503c.277-.093.277 0 .277.276v2.763c0 .276-.092.461-.276.553h-.092c-.184.092-.276.184-.46.184l-.553.276a4.493 4.493 0 0 1-.645.276c-.184.093-.276.185-.46.277 0 0-.093 0-.093.092-.092.184-.184.092-.184-.184v-2.763c0-.369.092-.461.276-.553l1.106-.553c.368-.276.736-.46 1.105-.644Z" fill="#fff"/><path d="M48.926 344.924c0 5.711-.092 11.421-.092 17.132-4.514 2.394-8.935 4.789-13.448 7.184-.276.092-.368.092-.368-.277 0-5.802.092-11.513.092-17.315 1.75-.921 3.592-1.935 5.342-2.856 2.671-1.381 5.342-2.855 8.013-4.236.369-.185.46-.092.46.368Zm-2.856 14.645c0-3.224 0-6.448.093-9.763 0-.369-.093-.461-.369-.277-1.29.645-2.487 1.382-3.776 2.027-1.29.644-2.487 1.381-3.776 2.026-.277.184-.369.276-.369.645v9.763c0 .368.092.46.369.276 1.289-.645 2.486-1.382 3.776-2.026 1.29-.645 2.487-1.382 3.776-2.027.184-.184.276-.276.276-.644ZM73.61 299.425c.184-.092.184 0 .184.184v2.948c0 .276-.093.368-.185.46a4.31 4.31 0 0 1-.92.461c-.461.276-.922.46-1.29.736-.184.093-.184 0-.184-.184v-2.947c0-.184.092-.369.184-.461l.552-.276.553-.276.553-.277c.184-.092.368-.276.552-.368Z" fill="#fff"/><path d="M79.412 289.753c0 5.619-.092 11.145-.092 16.671 0 .369-.092.553-.368.737-.921.461-1.842 1.013-2.855 1.474-1.198.644-2.487 1.289-3.685 1.934-1.197.645-2.487 1.289-3.684 1.934-.921.461-1.842 1.013-2.763 1.474-.368.184-.368.092-.368-.277.092-5.618.092-11.144.092-16.763 0-.46.092-.552.368-.736 2.118-1.106 4.329-2.303 6.54-3.408 2.21-1.198 4.328-2.303 6.539-3.5.184 0 .276.092.276.46Zm-2.855 14.737c0-3.224 0-6.539.092-9.763 0-.369-.092-.369-.368-.276-1.29.644-2.58 1.381-3.777 2.026-1.29.645-2.579 1.381-3.776 2.026-.276.184-.368.276-.368.553 0 3.223 0 6.539-.092 9.763 0 .368.092.368.368.276l1.658-.829a44.701 44.701 0 0 0 2.118-1.105c.737-.368 1.474-.737 2.21-1.197l1.659-.829c.276-.184.276-.277.276-.645ZM43.399 315.451c.184-.092.184 0 .184.184v2.947a.703.703 0 0 1-.184.461l-1.106.553c-.368.184-.736.368-1.105.644-.184.092-.184 0-.184-.184v-2.947c0-.185 0-.369.184-.461.092-.092.276-.092.369-.184.276-.092.552-.276.736-.461.277-.092.461-.276.737-.368.092 0 .184 0 .369-.184 0 .092 0 .092 0 0Z" fill="#fff"/><path d="m33.02 596.299 1.782 3.086 1.8-3.091 2.61 1.503-1.803 3.102 3.581-.005-.008 3.008-3.586.004 1.778 3.096-2.61 1.496-1.78-3.086-1.8 3.091-2.605-1.502 1.803-3.102-3.581.006.008-3.008 3.58-.006-1.778-3.096 2.61-1.496ZM50.521 596.299l1.781 3.086 1.8-3.091 2.61 1.503-1.802 3.102 3.58-.005-.007 3.008-3.587.004 1.778 3.096-2.61 1.496-1.78-3.086-1.8 3.091-2.604-1.502 1.802-3.102-3.58.006.007-3.008 3.58-.006-1.777-3.096 2.609-1.496ZM68.022 596.299l1.78 3.086 1.8-3.091 2.611 1.503-1.802 3.102 3.58-.005-.007 3.008-3.587.004 1.778 3.096-2.61 1.496-1.78-3.086-1.8 3.091-2.605-1.502 1.803-3.102-3.58.006.007-3.008 3.58-.006-1.778-3.096 2.61-1.496ZM85.522 596.299l1.781 3.086 1.8-3.091 2.61 1.503-1.802 3.102 3.581-.005-.008 3.008-3.587.004 1.779 3.096-2.61 1.496-1.78-3.086-1.8 3.091-2.605-1.502 1.802-3.102-3.58.006.007-3.008 3.581-.006-1.778-3.096 2.61-1.496Z" fill="#38FFA6"/><path d="M61.285 546.866c6.4 0 11.63 5.285 11.63 11.785 0 4.785-2.822 8.928-6.882 10.785 6.4 1.285 12.36 5.522 15.388 11.165-.688 1-1.445 1.785-2.202 2.571-5.711 5.428-12.79 6.658-16.575 6.658-.481 0-1.178.071-1.591 0-9.565-.357-16.532-5.95-18.459-8.593 1.032-2 3.071-4.445 4.654-6.016.55-.572 2.064-2 3.44-2.786 1.927-1.285 4.129-2.214 6.4-2.785-4.335-1.714-7.363-6-7.363-10.928-.069-6.571 5.092-11.856 11.56-11.856Z" fill="#fff"/><path fill-rule="evenodd" clip-rule="evenodd" d="m62.813 569.809 2.804-1.283c3.712-1.698 6.297-5.49 6.297-9.875 0-5.959-4.793-10.785-10.629-10.785-5.898 0-10.623 4.817-10.56 10.846v.01c0 4.515 2.774 8.433 6.73 9.998l2.888 1.142-3.011.758c-2.174.546-4.268 1.432-6.089 2.647l-.029.019-.03.018c-1.25.714-2.685 2.059-3.216 2.611l-.008.008-.008.007c-1.396 1.387-3.127 3.445-4.16 5.206 1.022 1.189 2.964 2.88 5.655 4.381 3.067 1.712 7.047 3.142 11.643 3.314l.067.002.066.012c.094.016.278.021.569.012l.26-.01c.198-.008.417-.017.592-.017 3.614 0 10.404-1.182 15.87-6.368.615-.638 1.19-1.237 1.722-1.932-2.962-5.093-8.482-8.925-14.4-10.114l-3.023-.607Zm18.608 10.792c-.688 1-1.445 1.785-2.202 2.571-5.711 5.428-12.79 6.658-16.575 6.658-.155 0-.333.007-.517.015-.385.016-.794.033-1.074-.015-9.565-.357-16.532-5.95-18.459-8.593 1.032-2 3.071-4.445 4.654-6.016.55-.572 2.064-2 3.44-2.786 1.505-1.004 3.179-1.79 4.921-2.359.488-.159.982-.301 1.479-.426a11.296 11.296 0 0 1-1.377-.655c-3.586-2.007-5.986-5.885-5.986-10.273-.069-6.571 5.092-11.856 11.56-11.856 6.4 0 11.63 5.285 11.63 11.785 0 4.24-2.216 7.976-5.546 10.064-.427.268-.874.509-1.336.721.5.1.997.218 1.49.354 5.822 1.601 11.107 5.609 13.898 10.811Z" fill="#fff"/><path fill-rule="evenodd" clip-rule="evenodd" d="M53.688 537.672h4.037a28.54 28.54 0 0 0 1.357-.261c.965-.201 1.97-.411 2.926-.411h-3.82c-.535 0-2.45.325-3.803.555-.257.043-.493.084-.697.117Zm-1.486 1.558h-4.036c1.77-.708 3.61-1.274 5.523-1.558h4.036c-1.912.284-3.753.85-5.523 1.558Zm9.63 50.487c-14.162 0-25.704-11.755-25.704-26.199 0-10.976 6.656-20.393 16.074-24.288h-4.037c-9.417 3.895-16.073 13.312-16.073 24.288 0 14.444 11.47 26.199 25.633 26.199h4.106Z" fill="#38FFA6"/><path fill-rule="evenodd" clip-rule="evenodd" d="M61.831 537.818c-13.876 0-25.203 11.522-25.203 25.699 0 14.178 11.327 25.7 25.203 25.7 6.655 0 12.828-2.701 17.341-7.069l2.244-2.525c3.466-4.372 5.548-9.994 5.548-16.106 0-7.817-3.423-14.828-8.822-19.546l.658-.753c5.61 4.902 9.164 12.185 9.164 20.299 0 6.346-2.164 12.191-5.773 16.739l-.009.011-2.287 2.573-.014.013c-4.69 4.547-11.116 7.364-18.05 7.364-14.446 0-26.203-11.987-26.203-26.7 0-14.712 11.757-26.699 26.203-26.699 4.006 0 7.801.923 11.194 2.57l-.437.899a24.565 24.565 0 0 0-10.757-2.469Z" fill="#fff"/><path fill-rule="evenodd" clip-rule="evenodd" d="M256.844 662.925a2.4 2.4 0 0 1-.719-.305v8.92l2.979 7.151 3.376-2.251-5.636-13.515ZM301.205 661.427l-3.131 14.429 1.938 1.015 1.574-6.787v-8.775c-.127.05-.245.084-.372.118h-.009ZM316.734 686.265l-24.033 2.606-9.402 13.261-12.601-13.1-23.992-1.709-.415.008-.067 9.538 24.474 1.734 12.601 13.101 9.402-13.261 24.846-2.691.152-9.445-.965-.042Z" fill="#38FFA6"/><path fill-rule="evenodd" clip-rule="evenodd" d="m279.91 668.291 21.093-7.538.658.572-2.962 14.297 19.233 10.116-.179.939-24.733 2.676-9.314 13.136-.768.058-12.51-13.013-24.173-1.729-.241-.915 15.762-10.511-5.749-13.778.593-.675 23.29 6.365Zm20.591-6.297-20.551 7.345-22.606-6.178 5.672 13.593-15.232 10.157 23.098 1.653 12.358 12.854 9.225-13.011 23.55-2.547-18.448-9.703 2.934-14.163Z" fill="#fff"/><path fill-rule="evenodd" clip-rule="evenodd" d="M232.782 653.684c-1.767.938-2.807 2.077-3.152 3.381-.389 1.47.095 3.196 1.51 5.148 1.412 1.947 3.702 4.046 6.763 6.215 4.627 3.28 10.962 6.683 18.537 9.936l-.394.919c-7.615-3.27-14.018-6.706-18.721-10.039-3.105-2.2-5.492-4.373-6.994-6.444-1.499-2.066-2.167-4.105-1.668-5.991.443-1.672 1.745-2.997 3.649-4.008 1.906-1.012 4.469-1.742 7.554-2.208 6.175-.934 14.559-.83 24.257.295l-.115.993c-9.654-1.119-17.94-1.215-23.992-.3-3.028.458-5.468 1.165-7.234 2.103Zm27.253 26.176c4.993 2.011 10.442 3.944 16.229 5.733l-.296.956c-5.811-1.797-11.286-3.74-16.306-5.762l.373-.927Z" fill="#fff"/><path d="m272.425 648.404-.63 3.688 2.39 2.879-3.688-.63-2.879 2.39.63-3.688-2.39-2.88 3.688.631 2.879-2.39Z" fill="#fff"/></svg>