<svg width="1053" height="235" fill="none" xmlns="http://www.w3.org/2000/svg"><path fill-rule="evenodd" clip-rule="evenodd" d="M166.812 115.5c-1.04 0-2.065.068-3.069.199l-.13-.992a24.662 24.662 0 0 1 3.199-.207h2.937v1h-2.937Zm14.683 0h-5.873v-1h5.873v1Zm11.746 0h-5.873v-1h5.873v1Zm11.745 0h-5.872v-1h5.872v1Zm11.746 0h-5.873v-1h5.873v1Zm11.746 0h-5.873v-1h5.873v1Zm11.746 0h-5.873v-1h5.873v1Zm11.746 0h-5.873v-1h5.873v1Zm11.746 0h-5.873v-1h5.873v1Zm11.745 0h-5.872v-1h5.872v1Zm11.746 0h-5.873v-1h5.873v1Zm11.746 0h-5.873v-1h5.873v1Zm11.746 0h-5.873v-1h5.873v1Zm11.746 0h-5.873v-1h5.873v1Zm11.746 0h-5.873v-1h5.873v1Zm8.809 0h-2.936v-1H343c1.084 0 2.152.07 3.199.207l-.129.992a23.735 23.735 0 0 0-3.07-.199Zm283 0c-1.041 0-2.065.068-3.07.199l-.129-.992A24.65 24.65 0 0 1 626 114.5h2.909v1H626Zm14.545 0h-5.818v-1h5.818v1Zm11.637 0h-5.818v-1h5.818v1Zm11.636 0H658v-1h5.818v1Zm11.637 0h-5.819v-1h5.819v1Zm11.636 0h-5.818v-1h5.818v1Zm11.636 0h-5.818v-1h5.818v1Zm11.637 0h-5.819v-1h5.819v1Zm11.636 0h-5.818v-1H722v1Zm11.636 0h-5.818v-1h5.818v1Zm11.637 0h-5.818v-1h5.818v1Zm8.727 0h-2.909v-1H754c1.084 0 2.152.07 3.199.207l-.129.992a23.735 23.735 0 0 0-3.07-.199Zm199 0c-1.041 0-2.065.068-3.07.199l-.129-.992A24.65 24.65 0 0 1 953 114.5h3.021v1H953Zm15.104 0h-6.042v-1h6.042v1Zm12.084 0h-6.042v-1h6.042v1Zm12.083 0h-6.042v-1h6.042v1Zm12.079 0h-6.038v-1h6.038v1Zm12.09 0h-6.04v-1h6.04v1Zm9.06 0h-3.02v-1h3.02v1Zm-867.683 1.783a23.485 23.485 0 0 0-5.311 3.072l-.609-.793a24.495 24.495 0 0 1 5.537-3.203l.383.924Zm459.188 0a23.441 23.441 0 0 0-5.311 3.072l-.609-.793a24.474 24.474 0 0 1 5.537-3.203l.383.924Zm327 0a23.441 23.441 0 0 0-5.311 3.072l-.609-.793a24.474 24.474 0 0 1 5.537-3.203l.383.924Zm-586.699 3.072a23.441 23.441 0 0 0-5.311-3.072l.383-.924a24.452 24.452 0 0 1 5.537 3.203l-.609.793Zm411 0a23.441 23.441 0 0 0-5.311-3.072l.383-.924a24.474 24.474 0 0 1 5.537 3.203l-.609.793Zm-620.139 4.339a23.516 23.516 0 0 0-3.072 5.311l-.923-.383a24.47 24.47 0 0 1 3.202-5.537l.793.609Zm459.188 0a23.441 23.441 0 0 0-3.072 5.311l-.924-.383a24.474 24.474 0 0 1 3.203-5.537l.793.609Zm327 0a23.441 23.441 0 0 0-3.072 5.311l-.924-.383a24.474 24.474 0 0 1 3.203-5.537l.793.609Zm-569.638 5.311a23.441 23.441 0 0 0-3.072-5.311l.793-.609a24.474 24.474 0 0 1 3.203 5.537l-.924.383Zm411 0a23.441 23.441 0 0 0-3.072-5.311l.793-.609a24.474 24.474 0 0 1 3.203 5.537l-.924.383Zm-632.206 5.925a23.735 23.735 0 0 0-.199 3.07v2.775h-1V139c0-1.084.071-2.152.208-3.199l.991.129Zm459.188 0a23.735 23.735 0 0 0-.199 3.07v2.775h-1V139c0-1.084.07-2.152.207-3.199l.992.129Zm327 0a23.735 23.735 0 0 0-.199 3.07v2.775h-1V139c0-1.084.07-2.152.207-3.199l.992.129ZM366.5 139c0-1.041-.068-2.065-.199-3.07l.992-.129A24.65 24.65 0 0 1 367.5 139v2.775h-1V139Zm411 0c0-1.041-.068-2.065-.199-3.07l.992-.129A24.65 24.65 0 0 1 778.5 139v2.775h-1V139Zm-634.188 8.325v5.55h-1v-5.55h1Zm223.188 5.55v-5.55h1v5.55h-1Zm236-5.55v5.55h-1v-5.55h1Zm175 5.55v-5.55h1v5.55h-1Zm152-5.55v5.55h-1v-5.55h1Zm-786.188 11.1v5.55h-1v-5.55h1Zm459.188 0v5.55h-1v-5.55h1Zm327 0v5.55h-1v-5.55h1Zm-563 5.55v-5.55h1v5.55h-1Zm411 0v-5.55h1v5.55h-1Zm-634.188 5.55v5.55h-1v-5.55h1Zm459.188 0v5.55h-1v-5.55h1Zm327 0v5.55h-1v-5.55h1Zm-563 5.55v-5.55h1v5.55h-1Zm411 0v-5.55h1v5.55h-1Zm-634.188 5.55v5.55h-1v-5.55h1Zm223.188 5.55v-5.55h1v5.55h-1Zm236-5.55v5.55h-1v-5.55h1Zm175 5.55v-5.55h1v5.55h-1Zm152-5.55v5.55h-1v-5.55h1Zm-786.188 11.1v2.775c0 1.084-.07 2.152-.207 3.199l-.991-.129c.131-1.005.198-2.029.198-3.07v-2.775h1ZM366.5 194.5v-2.775h1v2.775c0 1.041.068 2.065.199 3.07l-.992.129a24.65 24.65 0 0 1-.207-3.199Zm236-2.775v2.775c0 1.084-.07 2.152-.207 3.199l-.992-.129c.131-1.005.199-2.029.199-3.07v-2.775h1Zm175 2.775v-2.775h1v2.775c0 1.041.068 2.065.199 3.07l-.992.129a24.65 24.65 0 0 1-.207-3.199Zm152-2.775v2.775c0 1.084-.07 2.152-.207 3.199l-.992-.129c.131-1.005.199-2.029.199-3.07v-2.775h1Zm-788.047 12.153a24.47 24.47 0 0 1-3.202 5.537l-.793-.609a23.516 23.516 0 0 0 3.072-5.311l.923.383Zm459.188 0a24.474 24.474 0 0 1-3.203 5.537l-.793-.609a23.441 23.441 0 0 0 3.072-5.311l.924.383Zm327 0a24.474 24.474 0 0 1-3.203 5.537l-.793-.609a23.441 23.441 0 0 0 3.072-5.311l.924.383Zm-556.079 5.537a24.474 24.474 0 0 1-3.203-5.537l.924-.383a23.441 23.441 0 0 0 3.072 5.311l-.793.609Zm411 0a24.474 24.474 0 0 1-3.203-5.537l.924-.383a23.441 23.441 0 0 0 3.072 5.311l-.793.609Zm-648.834 4.523a24.495 24.495 0 0 1-5.537 3.203l-.383-.924a23.485 23.485 0 0 0 5.311-3.072l.609.793Zm247.894 3.203a24.474 24.474 0 0 1-5.537-3.203l.609-.793a23.441 23.441 0 0 0 5.311 3.072l-.383.924Zm211.293-3.203a24.474 24.474 0 0 1-5.537 3.203l-.383-.924a23.441 23.441 0 0 0 5.311-3.072l.609.793Zm199.707 3.203a24.474 24.474 0 0 1-5.537-3.203l.609-.793a23.441 23.441 0 0 0 5.311 3.072l-.383.924Zm127.293-3.203a24.474 24.474 0 0 1-5.537 3.203l-.383-.924a23.441 23.441 0 0 0 5.311-3.072l.609.793Zm-797.903 4.855a24.666 24.666 0 0 1-3.2.207h-2.74v-1h2.74c1.041 0 2.066-.068 3.07-.199l.13.992ZM391 219a24.65 24.65 0 0 1-3.199-.207l.129-.992c1.005.131 2.029.199 3.07.199h3.031v1H391Zm190.199-.207A24.65 24.65 0 0 1 578 219h-2.812v-1H578c1.041 0 2.065-.068 3.07-.199l.129.992ZM802 219a24.65 24.65 0 0 1-3.199-.207l.129-.992c1.005.131 2.029.199 3.07.199h2.861v1H802Zm106.199-.207A24.65 24.65 0 0 1 905 219h-2.861v-1H905c1.041 0 2.065-.068 3.07-.199l.129.992ZM66.741 219H64v-1h2.74v1Zm10.962 0h-5.481v-1h5.481v1Zm10.963 0h-5.482v-1h5.482v1Zm10.962 0h-5.481v-1h5.481v1Zm10.963 0h-5.482v-1h5.482v1Zm295.565 0h-6.062v-1h6.062v1Zm12.125 0h-6.062v-1h6.062v1Zm12.125 0h-6.062v-1h6.062v1Zm12.125 0h-6.062v-1h6.062v1Zm12.125 0h-6.062v-1h6.062v1Zm12.125 0h-6.062v-1h6.062v1Zm12.125 0h-6.062v-1h6.062v1Zm6.063 0v-1h5.843v1h-5.843Zm17.093 0h-5.624v-1h5.624v1Zm11.25 0h-5.624v-1h5.624v1Zm11.25 0h-5.624v-1h5.624v1Zm11.25 0h-5.624v-1h5.624v1Zm11.25 0h-5.624v-1h5.624v1Zm11.25 0h-5.624v-1h5.624v1Zm11.25 0h-5.624v-1h5.624v1Zm246.744 0h-5.723v-1h5.723v1Zm11.444 0h-5.722v-1h5.722v1Zm11.444 0h-5.722v-1h5.722v1Zm11.445 0h-5.722v-1h5.722v1Zm11.444 0h-5.722v-1h5.722v1Zm11.445 0h-5.722v-1h5.722v1Zm11.444 0h-5.722v-1h5.722v1Zm11.445 0h-5.723v-1h5.723v1Z" fill="#fff"/><path d="M52 232.5c7.732 0 14-6.268 14-14s-6.268-14-14-14-14 6.268-14 14 6.268 14 14 14Z" fill="#1F2229"/><path fill-rule="evenodd" clip-rule="evenodd" d="M52 206.5c-6.627 0-12 5.373-12 12s5.373 12 12 12 12-5.373 12-12-5.373-12-12-12Zm-16 12c0-8.837 7.163-16 16-16s16 7.163 16 16-7.163 16-16 16-16-7.163-16-16Z" fill="#fff"/><path d="M484 232.5c7.732 0 14-6.268 14-14s-6.268-14-14-14-14 6.268-14 14 6.268 14 14 14Z" fill="#1F2229"/><path fill-rule="evenodd" clip-rule="evenodd" d="M484 206.5c-6.627 0-12 5.373-12 12s5.373 12 12 12 12-5.373 12-12-5.373-12-12-12Zm-16 12c0-8.837 7.163-16 16-16s16 7.163 16 16-7.163 16-16 16-16-7.163-16-16Z" fill="#fff"/><path d="M858 232.5c7.732 0 14-6.268 14-14s-6.268-14-14-14-14 6.268-14 14 6.268 14 14 14Z" fill="#1F2229"/><path fill-rule="evenodd" clip-rule="evenodd" d="M858 206.5c-6.627 0-12 5.373-12 12s5.373 12 12 12 12-5.373 12-12-5.373-12-12-12Zm-16 12c0-8.837 7.163-16 16-16s16 7.163 16 16-7.163 16-16 16-16-7.163-16-16Z" fill="#fff"/><path d="M253 128.5c7.732 0 14-6.268 14-14s-6.268-14-14-14-14 6.268-14 14 6.268 14 14 14Z" fill="#1F2229"/><path fill-rule="evenodd" clip-rule="evenodd" d="M253 102.5c-6.627 0-12 5.373-12 12s5.373 12 12 12 12-5.373 12-12-5.373-12-12-12Zm-16 12c0-8.837 7.163-16 16-16s16 7.163 16 16-7.163 16-16 16-16-7.163-16-16Z" fill="#fff"/><path d="M688 128.5c7.732 0 14-6.268 14-14s-6.268-14-14-14-14 6.268-14 14 6.268 14 14 14Z" fill="#1F2229"/><path fill-rule="evenodd" clip-rule="evenodd" d="M688 102.5c-6.627 0-12 5.373-12 12s5.373 12 12 12 12-5.373 12-12-5.373-12-12-12Zm-16 12c0-8.837 7.163-16 16-16s16 7.163 16 16-7.163 16-16 16-16-7.163-16-16Z" fill="#fff"/><path d="M1013 128.5c7.73 0 14-6.268 14-14s-6.27-14-14-14-14 6.268-14 14 6.27 14 14 14Z" fill="#1F2229"/><path fill-rule="evenodd" clip-rule="evenodd" d="M1013 102.5c-6.63 0-12 5.373-12 12s5.37 12 12 12 12-5.373 12-12-5.37-12-12-12Zm-16 12c0-8.837 7.16-16 16-16s16 7.163 16 16-7.16 16-16 16-16-7.163-16-16Z" fill="#fff"/><path d="M1 162.593v-7.521c0 1.347.954 2.941 3.522 4.441 9.04 5.316 23.929 14.038 32.969 19.322 4.254 2.515 10.728 2.769 14.42.605 9.29-5.444 34.692-21.666 43.982-27.109 1.557-.913 2.373-2.115 2.478-3.386l.01 8.13c.063 1.445-.757 2.825-2.523 3.853-9.369 5.489-34.683 20.809-44.051 26.299-3.722 2.183-10.252 1.926-14.542-.61a17953.761 17953.761 0 0 1-33.247-19.486c-2.303-1.316-2.955-2.9-3.018-4.538Z" fill="#fff"/><path fill-rule="evenodd" clip-rule="evenodd" d="M97.874 151.334c-.44.53-1.019 1.012-1.728 1.428-4.637 2.717-13.303 8.129-21.98 13.547l-.009.006c-8.666 5.412-17.343 10.831-21.994 13.556-1.953 1.145-4.598 1.631-7.272 1.521-2.678-.111-5.443-.82-7.654-2.126l.254-.431-.255.43.001.001c-9.04-5.284-23.928-14.006-32.968-19.322-1.245-.727-2.156-1.497-2.769-2.275v-2.597c0 1.088.774 2.549 3.274 4.009l.002.001c9.039 5.315 23.927 14.037 32.967 19.321l.002.001c2.044 1.209 4.642 1.884 7.187 1.988 2.55.105 4.988-.364 6.725-1.384 4.638-2.717 13.303-8.128 21.98-13.547l.01-.006c8.666-5.412 17.342-10.83 21.993-13.556 1.459-.855 2.145-1.93 2.233-2.995l.998.041.01 8.119c.069 1.677-.897 3.206-2.772 4.296-4.682 2.743-13.348 7.943-22.02 13.146l-.005.003c-8.668 5.201-17.338 10.403-22.025 13.149-1.968 1.155-4.635 1.644-7.33 1.533-2.701-.111-5.489-.826-7.717-2.143a18272.473 18272.473 0 0 1-33.245-19.484c-1.208-.691-2.016-1.472-2.527-2.324-.512-.854-.706-1.747-.74-2.627V155.072h1m0 7.512v-4.915 4.915Zm0 0v-.01l-.5.019h.5v-.009Zm0 0c.03.752.194 1.468.598 2.142.406.677 1.075 1.346 2.168 1.971l.005.003c9.116 5.361 24.13 14.156 33.246 19.485l.002.001c2.062 1.219 4.683 1.9 7.25 2.006 2.572.106 5.031-.368 6.785-1.397 4.681-2.743 13.35-7.943 22.021-13.147l.002-.001c8.669-5.201 17.341-10.405 22.028-13.151l.001-.001c1.655-.962 2.329-2.189 2.276-3.398v-.01l-.008-5.753c.587-.708.926-1.504.996-2.348l-.499-.041-.5.001.003 2.388" fill="#fff"/><path d="M47.472 123.967c3.691-2.164 10.166-1.91 14.42.605a23122.345 23122.345 0 0 1 32.968 19.322c4.255 2.483 4.724 6.271 1.033 8.436-9.29 5.443-34.693 21.666-43.983 27.109-3.69 2.164-10.165 1.91-14.42-.605-9.04-5.284-23.928-14.006-32.968-19.322-4.254-2.483-4.723-6.271-1.032-8.436 9.29-5.443 34.661-21.666 43.982-27.109Z" fill="#1F2229"/><path fill-rule="evenodd" clip-rule="evenodd" d="M54.492 122.015c2.678.11 5.443.82 7.653 2.126 2.018 1.179 4.327 2.53 6.797 3.975l-.506.863-6.796-3.975-.002-.002c-2.044-1.208-4.643-1.883-7.188-1.988-2.55-.105-4.987.365-6.725 1.384v.001c-4.653 2.717-13.318 8.128-21.99 13.547l-.352.219c-8.548 5.341-17.05 10.653-21.64 13.342-1.725 1.012-2.377 2.329-2.22 3.607.161 1.314 1.198 2.768 3.25 3.966l.002.001c9.04 5.315 23.928 14.037 32.968 19.321l.002.002c2.043 1.208 4.642 1.883 7.187 1.988 2.55.104 4.987-.365 6.725-1.384v-.001c4.638-2.717 13.303-8.128 21.98-13.547l.01-.006c8.665-5.412 17.342-10.83 21.993-13.555 1.724-1.012 2.377-2.329 2.22-3.607-.162-1.314-1.198-2.768-3.251-3.966l-.002-.001c-5.838-3.433-14.115-8.286-21.681-12.717l.505-.863a14932.67 14932.67 0 0 1 21.682 12.718c2.2 1.284 3.525 2.966 3.74 4.707.218 1.779-.74 3.438-2.707 4.591-4.638 2.717-13.303 8.129-21.98 13.547l-.009.006c-8.666 5.412-17.343 10.831-21.994 13.556l-.253-.431.253.431c-1.953 1.146-4.598 1.631-7.272 1.521-2.678-.11-5.444-.82-7.654-2.126l.001.001.252-.432-.254.43v.001A17640.2 17640.2 0 0 1 4.27 159.944l.252-.432-.254.431h.001c-2.2-1.284-3.525-2.966-3.739-4.707-.218-1.779.74-3.438 2.707-4.591 4.577-2.682 13.072-7.99 21.633-13.338l.334-.209c8.665-5.414 17.346-10.836 22.015-13.562l.253.431-.252-.432v.001c1.953-1.146 4.598-1.631 7.272-1.521Z" fill="#fff"/><path d="m54.505 157.137 8.459 5.957-11.6 7.16-8.013-5.701-6.516 3.738-.609-16.588 24.25 1.673-5.971 3.761Z" fill="#38FFA6"/><path fill-rule="evenodd" clip-rule="evenodd" d="M35.878 151.344a.5.5 0 0 1 .383-.139l24.25 1.672a.5.5 0 0 1 .232.922l-5.337 3.362 7.845 5.524a.5.5 0 0 1-.025.834l-11.598 7.161a.502.502 0 0 1-.553-.018l-7.753-5.516-6.238 3.579a.5.5 0 0 1-.749-.416l-.609-16.587a.501.501 0 0 1 .152-.378Zm.868.897.558 15.204 5.798-3.326a.499.499 0 0 1 .539.027l7.744 5.508 10.671-6.588-7.84-5.52a.499.499 0 0 1 .022-.832l4.675-2.944-22.167-1.529ZM33.156 118.596 22.07 107.51l.707-.707 11.085 11.085-.707.708ZM66.179 116.308l11.085-11.086-.707-.707L65.472 115.6l.707.708ZM49.168 110.411V96.5h1v13.911h-1Z" fill="#38FFA6"/><path fill-rule="evenodd" clip-rule="evenodd" d="m204.179 55.158 46.282-26.876.502.864-46.283 26.878h-.001c-5.151 2.968-7.613 7.064-7.116 11.421.5 4.397 3.884 8.7 9.715 12.088a46.484 46.484 0 0 0 21.225 5.732h.006c7.823.275 15.02-1.25 20.124-4.22l46.27-26.931.003-.002c5.148-2.953 7.612-7.05 7.128-11.421-.488-4.409-3.898-8.714-9.721-12.102l.503-.865c5.958 3.467 9.674 8.002 10.212 12.857.541 4.891-2.254 9.317-7.623 12.398h-.002l-46.267 26.93c-5.31 3.09-12.706 4.635-20.66 4.355a47.478 47.478 0 0 1-21.684-5.858l-.011-.005c-5.973-3.468-9.661-8.003-10.212-12.843-.556-4.88 2.242-9.306 7.61-12.4Z" fill="#fff"/><path fill-rule="evenodd" clip-rule="evenodd" d="m204.189 61.399 46.272-26.871.502.864L204.68 62.27l-.017.01a14.026 14.026 0 0 0-6.633 7.276c1.203 3.604 4.393 7.106 9.248 9.924a46.483 46.483 0 0 0 21.225 5.731h.005c7.824.276 15.021-1.25 20.125-4.22l46.27-26.877.023-.013a14.025 14.025 0 0 0 6.627-7.274c-1.191-3.605-4.394-7.107-9.241-9.926l.503-.865c5.046 2.935 8.498 6.672 9.746 10.659a.503.503 0 0 1-.011.33 15.025 15.025 0 0 1-7.156 7.96l-46.258 26.87c-5.31 3.09-12.706 4.636-20.66 4.356a47.485 47.485 0 0 1-21.685-5.858l-.01-.005c-5.059-2.936-8.498-6.673-9.758-10.657a.501.501 0 0 1 .01-.332 15.026 15.026 0 0 1 7.156-7.96Z" fill="#fff"/><path fill-rule="evenodd" clip-rule="evenodd" d="m250.753 29.627 5.259 8.178h20.157l11.505-8.139h9.073v11.91c0 4.103-2.762 8.192-8.152 11.329-10.822 6.286-28.349 6.325-39.104 0-5.391-3.137-8.074-7.266-8.021-11.394V29.6l9.283.026Z" fill="#fff"/><path d="m241.795 47.11-11.072 6.417 11.072-6.418Zm-9.073-37.638 10.992 6.34-10.992-6.34Zm64.507 37.439 10.992 6.392-10.992-6.392ZM269.801.5v9.065V.5Zm37.027 8.84-11.124 6.471 11.124-6.47Zm15.173 21.531h-15.594 15.594ZM269.525 54.19v9.065-9.065ZM232.867 30.99h-15.595 15.595Z" fill="#38FFA6"/><path fill-rule="evenodd" clip-rule="evenodd" d="M269.801 0a.5.5 0 0 1 .5.5v9.065a.5.5 0 0 1-1 0V.5a.5.5 0 0 1 .5-.5Zm37.459 9.089a.5.5 0 0 1-.181.683l-11.124 6.472a.5.5 0 0 1-.503-.865l11.124-6.471a.5.5 0 0 1 .684.18Zm-74.971.134a.5.5 0 0 1 .683-.184l10.992 6.34a.5.5 0 0 1-.499.865l-10.993-6.338a.5.5 0 0 1-.183-.683Zm73.618 21.648a.5.5 0 0 1 .5-.5h15.594a.5.5 0 0 1 0 1h-15.594a.5.5 0 0 1-.5-.5Zm-88.635-.38h15.595v1h-15.595v-1Zm79.525 16.168a.5.5 0 0 1 .683-.18l10.993 6.391a.5.5 0 0 1-.503.864l-10.992-6.391a.5.5 0 0 1-.181-.684Zm-54.57.2a.5.5 0 0 1-.182.683l-11.071 6.418a.5.5 0 1 1-.501-.865l11.071-6.419a.5.5 0 0 1 .683.182Zm27.298 6.83a.5.5 0 0 1 .5.5v9.065a.5.5 0 0 1-1 0V54.19a.5.5 0 0 1 .5-.5ZM249.581 18.457c10.821-6.3 28.335-6.326 39.09-.08 10.756 6.247 10.703 16.437-.118 22.723-10.821 6.286-28.348 6.326-39.104.066-10.755-6.26-10.69-16.423.132-22.709Zm18.289 14.557h-11.833v4.817h20.156l.106-19.56h-8.284l-.145 14.743Z" fill="#38FFA6"/><path d="M457.413 110.395 457 181.019c0 1.234.495 2.09 1.238 2.376l6.189 3.374 58.175-107.49-6.602-3.64c-.486-.22-1.089-.187-1.733.158l-53.966 29.224c-1.568.924-2.888 3.275-2.888 5.374Z" fill="#38FFA6"/><path fill-rule="evenodd" clip-rule="evenodd" d="M514.504 76.237h-.001l-53.956 29.219c-.683.405-1.345 1.144-1.839 2.05-.494.907-.795 1.938-.795 2.889v.003l-.413 70.621v.002c0 1.121.443 1.725.917 1.907l.031.012 5.778 3.15 57.7-106.613-6.148-3.39c-.312-.134-.743-.134-1.274.15Zm-.473-.88c.748-.401 1.516-.472 2.176-.173l.017.008 7.053 3.889-58.649 108.367-6.603-3.599c-.991-.401-1.525-1.499-1.525-2.83v-.002l.413-70.622v-.001c0-1.148.359-2.342.917-3.366.556-1.022 1.335-1.918 2.217-2.438l.008-.005 53.976-29.229Z" fill="#38FFA6"/><path d="M520.868 79.451c1.568-.84 2.888.168 2.888 2.184l-.063 10.862-.057 9.713-.293 50.049c0 2.099-1.32 4.451-2.888 5.374l-53.966 29.224c-1.568.84-2.888-.168-2.888-2.183l.412-70.624c0-2.1 1.32-4.451 2.888-5.375l53.967-29.224Z" fill="#1F2229"/><path fill-rule="evenodd" clip-rule="evenodd" d="m521.105 79.891-.001.001-53.956 29.218c-.683.405-1.346 1.144-1.84 2.051-.494.907-.795 1.938-.795 2.889v.002l-.412 70.622v.001c0 .91.298 1.49.658 1.763.336.255.841.328 1.493-.021l.001-.001 53.956-29.218c.683-.405 1.345-1.144 1.839-2.05.494-.907.795-1.938.795-2.889v-.003l.293-50.049 1 .006-.293 50.046v.001c0 1.149-.359 2.342-.917 3.366-.556 1.022-1.335 1.918-2.217 2.438l-.008.005-53.974 29.228-.002.001c-.916.49-1.855.479-2.57-.064-.692-.524-1.054-1.456-1.054-2.56v-.003l.412-70.621v-.002c0-1.148.359-2.342.917-3.366.557-1.021 1.335-1.918 2.217-2.438l.008-.004 53.977-29.23c.915-.49 1.855-.479 2.57.064.692.524 1.054 1.456 1.054 2.56v.004l-.063 10.862-1-.005.063-10.86v-.002c0-.91-.298-1.49-.658-1.762-.337-.255-.841-.328-1.493.02Z" fill="#fff"/><path d="M483.531 132.373c.092 0 .092 0 0 0 .368-.188.737-.375 1.013-.563.368-.187.645-.375 1.013-.562h.092c.276-.188.368 0 .368.375v5.905c0 .75 0 .75.553.469.829-.469 1.658-.844 2.395-1.313.645-.375 1.381-.75 2.026-1.124h.092c.369-.188.461-.094.461.468v2.344c0 .562.092.562.368.468 0 0 .092 0 .092-.094.185-.093.369-.281.645-.374.184-.094.368-.188.461-.282.092-.093.276-.187.368-.187.092-.094.276-.188.368-.188.277-.187.369-.093.369.282v2.718c0 .375-.092.562-.369.656-.368.187-.644.375-1.013.562-.46.282-.921.469-1.381.75-.461.281-.921.469-1.382.75-.276.188-.553.281-.921.469 0 0-.092 0-.092.093-.276.188-.461.094-.368-.374v-2.438c0-.468 0-.562-.369-.374-.829.468-1.566.843-2.395 1.312-.736.375-1.565.843-2.302 1.218-.369.188-.461.375-.369.844v2.624c0 .282 0 .469-.276.563-.368.187-.829.375-1.197.656-.369.187-.645.375-1.013.562-.277.188-.277 0-.277-.281v-6.28c0-.375.092-.562.369-.656h.092l.552-.281c.092-.094.277-.094.369-.188.092-.093.276-.187.368-.187l.553-.281h.092c.276-.188.46-.375.368-.844v-6.093c0-.749 0-.937.277-1.124ZM515.768 147.277c.276-.094.276-.094.276.281v3.187c-1.842 1.031-3.684 1.968-5.526 2.999v-3.187c0-.281.092-.468.276-.562.829-.469 1.658-.844 2.487-1.312.921-.469 1.658-.938 2.487-1.406ZM513.005 141.651c.276-.187.368-.094.368.281v2.625c0 .375-.092.468-.368.656-1.566.844-3.224 1.781-4.79 2.624-.276.188-.368.282-.368.657v6.748c-.921.469-1.842 1.031-2.764 1.5 0-3.468 0-6.842.093-10.311 0-.374.092-.562.368-.749 1.289-.657 2.487-1.313 3.776-1.969a46.84 46.84 0 0 1 3.685-2.062ZM507.663 130.122c.276-.094.276-.094.276.281v9.936c0 .374-.092.468-.276.656h-.092c-.368.187-.645.375-1.013.562-.369.188-.645.375-1.013.562h-.092c-.277.188-.277.094-.277-.281 0-2.156 0-4.218.092-6.28 0-.375-.092-.468-.276-.281-.368.187-.737.375-1.105.656-.184.094-.369.188-.461.281-.184.094-.368.188-.46.281-.184.094-.277.094-.277-.281v-2.812c0-.281.093-.468.277-.562.829-.469 1.658-.844 2.487-1.312.552-.469 1.381-.938 2.21-1.406ZM502.136 140.34c.184-.094.277-.094.277.281v6.468c0 .281-.093.468-.277.562l-1.105.562-1.105.563c-.277.094-.277 0-.277-.281v-6.374c0-.281.093-.469.277-.563l1.105-.562c.368-.281.737-.469 1.105-.656ZM491.083 153.462c.277-.094.277 0 .277.281v2.812c0 .281-.092.469-.277.562h-.092c-.184.094-.276.188-.46.188l-.553.281c-.184.094-.368.188-.645.281-.184.094-.276.188-.46.282 0 0-.092 0-.092.093-.184.094-.277.094-.277-.281v-2.812c0-.375.093-.469.277-.562l1.105-.563c.46-.093.829-.281 1.197-.562 0 .094 0 0 0 0Z" fill="#fff"/><path d="M496.61 143.34c.276-.188.276 0 .276.281 0 3.28 0 6.561-.092 9.842 0 .375.092.468.368.281.461-.281.921-.469 1.29-.75.46-.187.829-.469 1.289-.656.737-.375 1.474-.844 2.211-1.219.276-.187.368-.093.368.282v2.718c0 .375-.092.469-.368.656-1.566.844-3.224 1.781-4.79 2.625-.276.187-.368.281-.368.656v3.187l-8.29 4.499v-3.187c0-.375.092-.469.369-.656 1.566-.844 3.223-1.781 4.789-2.625.277-.187.369-.281.369-.656 0-3.281 0-6.561.092-9.936 0-.375-.092-.468-.369-.281-1.565.844-3.223 1.781-4.789 2.625-.276.187-.369.093-.369-.281v-2.719c0-.281.093-.468.277-.562 1.289-.656 2.579-1.406 3.868-2.062 1.29-.656 2.579-1.406 3.869-2.062ZM486.11 110.063c0 5.624-.092 11.248-.092 16.872 0 .469-.093.656-.461.844-2.21 1.218-4.421 2.437-6.632 3.562l-6.631 3.655c0-5.999.092-11.997.092-17.996 2.211-1.219 4.421-2.437 6.632-3.562 2.21-1.125 4.421-2.437 6.631-3.656.369-.281.461-.187.461.281Zm-2.856 14.904c0-3.281 0-6.561.093-9.936 0-.375-.093-.468-.369-.281-1.289.656-2.487 1.406-3.776 2.062-1.29.656-2.487 1.406-3.776 2.062-.277.188-.369.281-.369.656v9.936c0 .375.092.469.369.281 1.289-.656 2.486-1.406 3.776-2.062 1.289-.656 2.487-1.406 3.776-2.062.276-.187.276-.375.276-.656ZM477.912 135.465s.092 0 0 0c.369-.188.737-.375 1.198-.657.368-.187.736-.374 1.105-.656.184-.093.184 0 .184.282v2.999c0 .281-.092.375-.276.469l-1.106.562c-.368.188-.736.375-1.105.656-.092 0-.184 0-.184-.281v-2.999c0-.188 0-.282.184-.375ZM474.596 137.246c.276-.188.368-.094.368.281 0 2.156 0 4.218-.092 6.28 0 .375.092.469.277.281h.092c.276-.093.46-.187.644-.281l.553-.281c.184-.094.368-.187.461-.281.184-.094.368-.188.46-.281.276-.094.276-.094.276.281v2.812c0 .281-.092.469-.276.562l-.553.281-.552.282-1.105.562c-.277.094-.277.281-.277.562v2.812c0 .282-.092.469-.276.563-.369.187-.737.375-1.013.562-.461.281-.921.469-1.382.75 0-4.78.092-9.654.092-14.435.369-.187.829-.468 1.198-.656.368-.187.736-.469 1.105-.656ZM515.952 125.718c.276-.094.276-.094.276.281v2.812c0 .282-.092.469-.276.563l-1.106.562c-.46.281-.921.563-1.473.75-.461.281-.921.469-1.382.75-.368.187-.645.375-1.013.562-.184.094-.276.094-.276-.281v-2.812c0-.281.092-.469.276-.562.829-.469 1.658-.844 2.487-1.313.829-.468 1.658-.843 2.487-1.312ZM505.543 120.468l1.105-.562 1.106-.562c.184-.094.276 0 .276.281v2.531c0 .468 0 .656.368.468 0 0 .093 0 .093-.094.276-.187.552-.374.828-.468.277-.188.645-.281.922-.469 0 0 .092 0 .092-.094.276-.187.368-.375.368-.843v-2.437c0-.375 0-.563.368-.75.829-.375 1.566-.844 2.395-1.219.737-.468 1.566-.843 2.303-1.312.368-.187.46-.094.46.375v2.437c0 .375 0 .656-.368.844h-.092l-.553.281c-.184.094-.276.187-.46.281-.092.094-.185.094-.369.188-.184.093-.368.187-.46.281h-.092c-.277.093-.369.281-.369.75v2.437c0 .468-.092.656-.46.843-.829.375-1.566.844-2.303 1.219-.921.468-1.842 1.031-2.763 1.5-.921.468-1.842 1.031-2.763 1.499-.737.375-1.566.844-2.303 1.313-.368.187-.46.093-.46-.375v-2.531c0-.375.092-.563.368-.656h.092c.184-.094.276-.188.461-.188.184 0 .276-.187.46-.187.092-.094.277-.188.369-.188.184-.093.46-.281.644-.375h.092c.277-.187.369-.375.369-.75v-2.624c0-.469 0-.656.276-.844ZM499.649 102.191c.185-.094.277-.094.277.187v2.906c0 .281-.092.375-.277.563-.829.468-1.657.843-2.486 1.312-.829.469-1.658.937-2.487 1.312-.184.094-.277.094-.277-.187v-2.906c0-.281.093-.375.277-.562l1.105-.563c.461-.281.921-.562 1.382-.75.46-.281.921-.468 1.381-.75l1.105-.562ZM491.268 110.251c.276-.094.276-.094.276.281v2.812c0 .375.092.375.369.281 2.487-1.406 4.973-2.718 7.552-4.124.277-.187.369-.094.369.281v2.719c0 .281-.092.468-.276.562l-2.211 1.125c-.276.093-.276.281-.276.562v2.812c0 .281-.092.469-.277.563l-1.105.562-1.105.562c-.276.094-.276.094-.276-.281v-2.812c0-.281-.093-.375-.277-.281-.276.187-.552.281-.829.469l-1.658.843c-.368.188-.644.375-1.013.563-.46.281-1.013.562-1.473.843-.277.094-.277.094-.277-.281v-6.468c0-.281.092-.468.277-.562l1.105-.562c.368-.188.829-.282 1.105-.469ZM491.36 121.032c.184-.094.184 0 .184.187v3c0 .281-.092.375-.184.468-.368.188-.737.375-1.105.656-.369.188-.737.375-1.105.657-.185.093-.185 0-.185-.188v-2.999c0-.188.092-.375.185-.469l.552-.281.553-.281.552-.282c.185-.093.277-.374.553-.468ZM499.465 120.188c.276-.094.276-.094.276.281v6.374c0 .375-.092.469-.276.562h-.092c-.553.282-1.106.657-1.75.938-1.106.656-2.303 1.218-3.408 1.874-.829.469-1.75.938-2.579 1.406-.829.469-1.75.938-2.579 1.406-.276.188-.369.094-.369-.281v-2.718c0-.375.093-.469.369-.656 2.487-1.312 4.974-2.718 7.552-4.031.369-.187.461-.281.369-.75v-2.718c0-.281.092-.468.276-.562l1.105-.563 1.106-.562ZM499.465 130.967c.184-.094.276 0 .276.188v6.561c0 .281-.092.375-.276.469h-.092l-1.105.562-1.105.562c-.185.094-.277.094-.277-.281v-6.467c0-.282.092-.469.277-.563.368-.187.644-.375 1.013-.562.46 0 .921-.188 1.289-.469ZM515.951 132.84c.184-.094.276-.094.276.187v3c0 .281-.092.375-.276.468l-1.105.563c-.368.187-.737.375-1.105.656-.185.094-.277.094-.277-.188v-2.999c0-.281.092-.375.277-.469l1.105-.562c.368-.188.737-.375 1.105-.656ZM480.031 159.461c.277-.094.277 0 .277.281v2.812c0 .281-.093.469-.277.562h-.092c-.184.094-.276.188-.46.188l-.553.281a4.307 4.307 0 0 1-.645.281c-.184.094-.276.188-.46.282 0 0-.092 0-.092.093-.092.188-.185.094-.185-.187v-2.812c0-.375.093-.469.277-.563l1.105-.562c.368-.281.737-.469 1.105-.656Z" fill="#fff"/><path d="M485.926 149.713c0 5.811-.092 11.623-.092 17.434-4.513 2.437-8.934 4.874-13.448 7.312-.276.093-.368.093-.368-.282 0-5.905.092-11.716.092-17.621 1.75-.938 3.592-1.969 5.342-2.906 2.671-1.406 5.342-2.906 8.013-4.312.369-.187.461-.094.461.375Zm-2.855 14.904c0-3.281 0-6.562.092-9.936 0-.375-.092-.469-.369-.281-1.289.656-2.487 1.406-3.776 2.062-1.289.656-2.487 1.406-3.776 2.062-.277.187-.369.281-.369.656v9.936c0 .375.092.468.369.281 1.289-.656 2.487-1.406 3.776-2.062 1.289-.656 2.487-1.406 3.776-2.062.185-.188.277-.282.277-.656ZM510.61 103.41c.184-.094.184 0 .184.187v3c0 .281-.092.375-.184.468a4.285 4.285 0 0 1-.921.469c-.461.281-.922.469-1.29.75-.184.094-.184 0-.184-.188v-2.999c0-.188.092-.375.184-.469l.553-.281.552-.281.553-.281c.184-.094.368-.282.553-.375Z" fill="#fff"/><path d="M516.412 93.567c0 5.718-.092 11.342-.092 16.966 0 .375-.092.562-.368.749-.921.469-1.842 1.032-2.855 1.5-1.198.656-2.487 1.312-3.685 1.969-1.197.656-2.486 1.312-3.684 1.968-.921.469-1.842 1.031-2.763 1.5-.368.187-.368.093-.368-.281.092-5.718.092-11.342.092-17.06 0-.469.092-.562.368-.75 2.119-1.125 4.329-2.343 6.54-3.468 2.21-1.218 4.329-2.343 6.539-3.562.184 0 .276.094.276.469Zm-2.855 14.997c0-3.28 0-6.655.092-9.935 0-.375-.092-.375-.368-.282-1.29.656-2.579 1.406-3.776 2.062-1.29.657-2.579 1.406-3.777 2.063-.276.187-.368.281-.368.562 0 3.281 0 6.655-.092 9.936 0 .375.092.375.368.281l1.658-.844c.737-.375 1.474-.75 2.118-1.125.737-.374 1.474-.749 2.211-1.218l1.658-.844c.276-.187.276-.281.276-.656ZM480.399 119.719c.184-.094.184 0 .184.187v3a.72.72 0 0 1-.184.468l-1.106.563c-.368.187-.736.375-1.105.656-.184.094-.184 0-.184-.188v-2.999c0-.187 0-.375.184-.469.092-.093.276-.093.369-.187.276-.094.552-.281.736-.469.277-.094.461-.281.737-.375.092 0 .184 0 .369-.187 0 .094 0 .094 0 0ZM751.346 36.405s1.122 2.357-11.248 8.433c-13.823 7.544-52.075 28.875-52.075 28.875-3.367 1.904-6.263 2.139-11.324-1.5 0 0-20.248-12.056-26.208-15.866-9.003-4.958-8.486-6.715-8.486-6.715v10.162c-.062 1.724 1.768 3.256 4.528 4.927l30.166 17.515c5.061 3.64 7.957 3.405 11.324 1.5l58.753-32.04c2.269-1.287 4.821-3.234 4.528-5.405h.031v-9.886h.011Z" fill="#fff"/><path fill-rule="evenodd" clip-rule="evenodd" d="M697.432 19.285c-3.423.161-6.28 1.286-9.637 3.11l-.41-.781c3.409-1.852 6.399-3.044 10.007-3.214l16.426-.84c4.82-.192 7.403 0 10.394 1.766l24.321 13.706c5.646 3.362 1.62 6.735-1.747 8.64l-58.753 32.04c-3.367 1.905-6.263 2.139-11.324-1.5l-30.176-17.515c-4.894-2.97-6.87-5.502-.513-9.439l30.825-17.621.426.771-30.811 17.614c-1.544.958-2.504 1.784-3.04 2.494-.519.687-.601 1.208-.511 1.641.1.484.453 1.047 1.171 1.711.707.655 1.687 1.333 2.891 2.064l30.169 17.51.071.047c2.471 1.776 4.311 2.531 5.871 2.67 1.539.137 2.926-.314 4.529-1.22l.011-.007 58.748-32.037c.813-.46 1.645-.998 2.352-1.588.717-.599 1.253-1.209 1.536-1.797.267-.557.304-1.074.065-1.613-.259-.582-.892-1.303-2.221-2.096L723.79 20.1l-.015-.01c-2.763-1.632-5.131-1.837-9.918-1.647h-.005l-16.42.84Z" fill="#fff"/><path d="M683.61 31.892c2.455-1.383 6.31-1.445 8.582-.103l7.142 4.17-23.779 13.422-.041-.537c-.04-.702-.344-1.383-.892-2.003-.528-.62-1.299-1.135-2.252-1.569a11.583 11.583 0 0 0-3.226-.867c-1.197-.145-2.435-.165-3.551-.02l-4.565.268 22.582-12.761Z" fill="#38FFA6"/><path d="m658.695 45.932 7.04-.413a12.699 12.699 0 0 1 2.8 0c.913.124 1.745.352 2.475.682.731.33 1.319.723 1.745 1.197.426.475.649.992.69 1.55l.081 1.527-11.93 6.731-7.081-4.17c-2.272-1.322-2.13-3.531.345-4.915l3.855-2.168-.02-.02ZM700.693 36.743l8.238 4.811-9.84 5.555-.203-1.61c-.122-1.157-.994-2.252-2.415-3.057-1.034-.578-2.333-.99-3.753-1.197l7.973-4.502Z" fill="#38FFA6"/><path d="M690.914 42.278c1.562.04 3.003.413 4.098 1.032 1.096.62 1.765 1.445 1.867 2.354l.284 2.54-11.362 6.4-4.403-.227c-1.562-.082-3.023-.474-4.078-1.115-1.055-.619-1.664-1.486-1.725-2.374l15.278-8.631.041.02Z" fill="#38FFA6"/><path d="M673.81 51.92c.325.826 1.014 1.57 2.009 2.169 1.379.825 3.266 1.342 5.295 1.445l2.78.144-12.661 7.145-8.237-4.811 10.794-6.092h.02ZM710.31 42.36l6.412 3.738c2.272 1.321 2.13 3.53-.345 4.914l-2.354 1.322-7.365-.166c-.892.083-1.785.063-2.658-.082a8.612 8.612 0 0 1-2.333-.66c-.69-.31-1.258-.703-1.664-1.137-.405-.454-.649-.95-.689-1.445l-.041-.248 11.058-6.235h-.021Z" fill="#38FFA6"/><path d="M697.447 49.608c.142.434.386.868.731 1.26.547.599 1.258 1.094 2.15 1.507.893.393 1.928.702 3.044.847 1.116.165 2.292.206 3.266.103l5.397.124-17.144 9.663-.284-2.973c.182-.64.142-1.28-.102-1.92-.284-.661-.771-1.24-1.461-1.755-.689-.537-1.562-.95-2.576-1.26a12.5 12.5 0 0 0-2.192-.434l9.171-5.162Z" fill="#38FFA6"/><path d="M686.491 55.802h.446c.893.062 1.745.207 2.516.455.771.248 1.441.557 1.988.97.528.393.913.847 1.096 1.342.203.517.243 1.012.081 1.528v.124l.365 3.985-5.336 3.015c-2.455 1.383-6.31 1.445-8.582.103l-6.412-3.737 13.858-7.805-.02.02ZM824.888 173.545l2.038 3.593 2.059-3.599 2.987 1.751-2.062 3.611 4.097-.006-.009 3.502-4.104.005 2.034 3.605-2.985 1.741-2.038-3.592-2.059 3.599-2.98-1.749 2.062-3.612-4.097.007.009-3.503 4.097-.006-2.034-3.606 2.985-1.741ZM844.911 173.545l2.038 3.593 2.059-3.599 2.987 1.751-2.062 3.611 4.096-.006-.008 3.502-4.104.005 2.034 3.605-2.985 1.741-2.038-3.592-2.059 3.599-2.98-1.749 2.062-3.612-4.097.007.009-3.503 4.097-.006-2.034-3.606 2.985-1.741ZM864.934 173.545l2.038 3.593 2.059-3.599 2.987 1.751-2.062 3.611 4.097-.006-.009 3.502-4.104.005 2.035 3.605-2.986 1.741-2.038-3.592-2.059 3.599-2.98-1.749 2.063-3.612-4.097.007.009-3.503 4.097-.006-2.035-3.606 2.985-1.741ZM884.957 173.545l2.038 3.593 2.059-3.599 2.987 1.751-2.062 3.611 4.096-.006-.009 3.502-4.103.005 2.034 3.605-2.985 1.741-2.038-3.592-2.059 3.599-2.98-1.749 2.062-3.612-4.097.007.009-3.503 4.097-.006-2.035-3.606 2.986-1.741Z" fill="#38FFA6"/><path d="M857.227 115.987c7.321 0 13.305 6.154 13.305 13.722 0 5.572-3.228 10.395-7.873 12.557 7.322 1.497 14.142 6.431 17.606 13.001-.788 1.164-1.654 2.079-2.52 2.993-6.534 6.321-14.633 7.753-18.964 7.753-.551 0-1.348.083-1.82 0-10.943-.416-18.915-6.928-21.119-10.005 1.181-2.329 3.513-5.176 5.324-7.005.63-.666 2.362-2.329 3.936-3.244 2.205-1.497 4.724-2.578 7.322-3.243-4.96-1.996-8.424-6.986-8.424-12.724-.079-7.651 5.826-13.805 13.227-13.805Z" fill="#fff"/><path fill-rule="evenodd" clip-rule="evenodd" d="m859.489 142.639 2.748-1.279c4.293-1.999 7.295-6.469 7.295-11.651 0-7.044-5.564-12.722-12.305-12.722-6.815 0-12.3 5.67-12.227 12.795v.01c0 5.335 3.221 9.955 7.797 11.796l2.832 1.14-2.957.757c-2.499.64-4.91 1.677-7.008 3.102l-.029.019-.03.018c-1.449.841-3.102 2.421-3.713 3.066l-.008.008-.007.008c-1.631 1.647-3.663 4.11-4.848 6.204 1.163 1.406 3.431 3.435 6.589 5.229 3.525 2.001 8.099 3.674 13.381 3.874l.068.003.067.012c.122.021.344.027.676.016.091-.002.195-.007.303-.011.225-.01.471-.02.668-.02 4.156 0 11.963-1.382 18.253-7.456.73-.771 1.418-1.501 2.054-2.359-3.4-6.025-9.787-10.553-16.629-11.952l-2.97-.607Zm20.776 12.628c-.788 1.164-1.654 2.079-2.52 2.993-6.534 6.321-14.633 7.753-18.964 7.753-.177 0-.381.008-.591.017-.44.019-.909.039-1.229-.017-10.943-.416-18.915-6.928-21.119-10.005 1.181-2.329 3.513-5.176 5.324-7.005.63-.666 2.362-2.329 3.936-3.244 1.784-1.211 3.774-2.15 5.845-2.817a25.38 25.38 0 0 1 1.477-.426 13.067 13.067 0 0 1-1.379-.652c-4.211-2.304-7.045-6.882-7.045-12.072-.079-7.651 5.826-13.805 13.227-13.805 7.321 0 13.305 6.154 13.305 13.722 0 5.019-2.62 9.431-6.535 11.838-.431.265-.878.505-1.338.719.499.102.996.22 1.489.354 6.747 1.823 12.889 6.525 16.117 12.647Z" fill="#fff"/><path fill-rule="evenodd" clip-rule="evenodd" d="M848.535 105.283h4.618c.5-.081 1.021-.191 1.553-.304 1.104-.235 2.253-.479 3.347-.479h-4.369c-.612 0-2.803.378-4.353.646l-.796.137Zm-1.701 1.814c-10.775 4.534-18.391 15.5-18.391 28.279 0 16.819 13.206 30.505 29.409 30.505h-4.699c-16.203 0-29.327-13.686-29.327-30.505 0-12.779 7.615-23.745 18.39-28.279 2.025-.825 4.132-1.484 6.319-1.814h4.618c-2.187.33-4.294.989-6.319 1.814Z" fill="#38FFA6"/><path fill-rule="evenodd" clip-rule="evenodd" d="M857.851 105.371c-15.909 0-28.908 13.444-28.908 30.005 0 16.56 12.999 30.005 28.908 30.005 7.632 0 14.713-3.153 19.89-8.253l2.571-2.943c3.977-5.106 6.366-11.672 6.366-18.809 0-9.13-3.928-17.317-10.121-22.824l.665-.747c6.402 5.693 10.456 14.15 10.456 23.571 0 7.367-2.468 14.153-6.586 19.435l-.009.01-2.614 2.993-.013.013c-5.354 5.281-12.688 8.554-20.605 8.554-16.495 0-29.908-13.928-29.908-31.005 0-17.078 13.413-31.005 29.908-31.005 4.573 0 8.906 1.071 12.779 2.985l-.443.896a27.76 27.76 0 0 0-12.336-2.881Z" fill="#fff"/><path fill-rule="evenodd" clip-rule="evenodd" d="M980.867 27.472a2.798 2.798 0 0 1-.849-.366v10.715l3.516 8.59 3.986-2.704-6.653-16.235ZM1033.23 25.673l-3.7 17.333 2.29 1.22 1.86-8.154V25.531c-.15.06-.29.101-.44.142h-.01ZM1051.56 55.51l-28.37 3.13-11.1 15.93-14.871-15.736L968.9 56.78l-.49.01-.079 11.457 28.888 2.084 14.871 15.737 11.1-15.93 29.33-3.233.18-11.345-1.14-.05Z" fill="#38FFA6"/><path fill-rule="evenodd" clip-rule="evenodd" d="m1008.1 34.023 24.92-9.064.66.57-3.51 17.252 22.76 12.186-.18.938-29.23 3.218-11.02 15.814-.77.058-14.791-15.656-28.565-2.08-.245-.913 18.674-12.672-6.819-16.632.597-.672 27.519 7.653Zm24.42-7.82-24.38 8.87-26.843-7.465 6.739 16.437-18.155 12.32 27.518 2.004 14.631 15.492 10.93-15.683 28.08-3.09-22-11.777 3.48-17.107Z" fill="#fff"/><path fill-rule="evenodd" clip-rule="evenodd" d="M952.424 16.281c-2.096 1.133-3.349 2.518-3.768 4.124-.47 1.812.121 3.919 1.8 6.274 1.675 2.351 4.387 4.88 8.004 7.488 5.468 3.945 12.952 8.035 21.897 11.946l-.4.916c-8.986-3.928-16.537-8.051-22.082-12.05-3.66-2.641-6.469-5.244-8.234-7.72-1.761-2.47-2.529-4.886-1.953-7.105.514-1.97 2.023-3.544 4.261-4.753 2.237-1.209 5.252-2.084 8.89-2.643 7.278-1.12 17.167-.996 28.61.355l-.117.993c-11.398-1.345-21.187-1.46-28.341-.36-3.579.55-6.469 1.402-8.567 2.535Zm32.179 31.629c5.895 2.416 12.329 4.74 19.167 6.89l-.3.954c-6.863-2.158-13.323-4.491-19.246-6.92l.379-.925Z" fill="#fff"/><path d="m1002.37 7.082-.94 5.495 3.56 4.29-5.497-.94-4.29 3.562.939-5.496-3.56-4.29 5.495.94 4.293-3.561Z" fill="#fff"/></svg>