<svg width="1053" height="235" viewBox="0 0 1053 235" fill="none" xmlns="http://www.w3.org/2000/svg">
<path fill-rule="evenodd" clip-rule="evenodd" d="M166.812 115.5C165.772 115.5 164.747 115.568 163.743 115.699L163.613 114.707C164.661 114.57 165.728 114.5 166.812 114.5H169.749V115.5H166.812ZM181.495 115.5H175.622V114.5H181.495V115.5ZM193.241 115.5H187.368V114.5H193.241V115.5ZM204.986 115.5H199.114V114.5H204.986V115.5ZM216.732 115.5H210.859V114.5H216.732V115.5ZM228.478 115.5H222.605V114.5H228.478V115.5ZM240.224 115.5H234.351V114.5H240.224V115.5ZM251.97 115.5H246.097V114.5H251.97V115.5ZM263.716 115.5H257.843V114.5H263.716V115.5ZM275.461 115.5H269.589V114.5H275.461V115.5ZM287.207 115.5H281.334V114.5H287.207V115.5ZM298.953 115.5H293.08V114.5H298.953V115.5ZM310.699 115.5H304.826V114.5H310.699V115.5ZM322.445 115.5H316.572V114.5H322.445V115.5ZM334.191 115.5H328.318V114.5H334.191V115.5ZM343 115.5H340.064V114.5H343C344.084 114.5 345.152 114.57 346.199 114.707L346.07 115.699C345.065 115.568 344.041 115.5 343 115.5ZM626 115.5C624.959 115.5 623.935 115.568 622.93 115.699L622.801 114.707C623.848 114.57 624.916 114.5 626 114.5H628.909V115.5H626ZM640.545 115.5H634.727V114.5H640.545V115.5ZM652.182 115.5H646.364V114.5H652.182V115.5ZM663.818 115.5H658V114.5H663.818V115.5ZM675.455 115.5H669.636V114.5H675.455V115.5ZM687.091 115.5H681.273V114.5H687.091V115.5ZM698.727 115.5H692.909V114.5H698.727V115.5ZM710.364 115.5H704.545V114.5H710.364V115.5ZM722 115.5H716.182V114.5H722V115.5ZM733.636 115.5H727.818V114.5H733.636V115.5ZM745.273 115.5H739.455V114.5H745.273V115.5ZM754 115.5H751.091V114.5H754C755.084 114.5 756.152 114.57 757.199 114.707L757.07 115.699C756.065 115.568 755.041 115.5 754 115.5ZM953 115.5C951.959 115.5 950.935 115.568 949.93 115.699L949.801 114.707C950.848 114.57 951.916 114.5 953 114.5H956.021V115.5H953ZM968.104 115.5H962.062V114.5H968.104V115.5ZM980.188 115.5H974.146V114.5H980.188V115.5ZM992.271 115.5H986.229V114.5H992.271V115.5ZM1004.35 115.5H998.312V114.5H1004.35V115.5ZM1016.44 115.5H1010.4V114.5H1016.44V115.5ZM1025.5 115.5H1022.48V114.5H1025.5V115.5ZM157.817 117.283C155.907 118.075 154.124 119.112 152.506 120.355L151.897 119.562C153.583 118.267 155.442 117.185 157.434 116.359L157.817 117.283ZM617.005 117.283C615.094 118.075 613.311 119.112 611.694 120.355L611.085 119.562C612.77 118.267 614.63 117.185 616.622 116.359L617.005 117.283ZM944.005 117.283C942.094 118.075 940.311 119.112 938.694 120.355L938.085 119.562C939.77 118.267 941.63 117.185 943.622 116.359L944.005 117.283ZM357.306 120.355C355.689 119.112 353.906 118.075 351.995 117.283L352.378 116.359C354.371 117.185 356.23 118.267 357.915 119.562L357.306 120.355ZM768.306 120.355C766.689 119.112 764.906 118.075 762.995 117.283L763.378 116.359C765.37 117.185 767.23 118.267 768.915 119.562L768.306 120.355ZM148.167 124.694C146.925 126.311 145.888 128.094 145.095 130.005L144.172 129.622C144.998 127.63 146.079 125.77 147.374 124.085L148.167 124.694ZM607.355 124.694C606.112 126.311 605.075 128.094 604.283 130.005L603.359 129.622C604.185 127.63 605.267 125.77 606.562 124.085L607.355 124.694ZM934.355 124.694C933.112 126.311 932.075 128.094 931.283 130.005L930.359 129.622C931.185 127.63 932.267 125.77 933.562 124.085L934.355 124.694ZM364.717 130.005C363.925 128.094 362.888 126.311 361.645 124.694L362.438 124.085C363.733 125.77 364.815 127.63 365.641 129.622L364.717 130.005ZM775.717 130.005C774.925 128.094 773.888 126.311 772.645 124.694L773.438 124.085C774.733 125.77 775.815 127.63 776.641 129.622L775.717 130.005ZM143.511 135.93C143.38 136.935 143.312 137.959 143.312 139V141.775H142.312V139C142.312 137.916 142.383 136.848 142.52 135.801L143.511 135.93ZM602.699 135.93C602.568 136.935 602.5 137.959 602.5 139V141.775H601.5V139C601.5 137.916 601.57 136.848 601.707 135.801L602.699 135.93ZM929.699 135.93C929.568 136.935 929.5 137.959 929.5 139V141.775H928.5V139C928.5 137.916 928.57 136.848 928.707 135.801L929.699 135.93ZM366.5 139C366.5 137.959 366.432 136.935 366.301 135.93L367.293 135.801C367.43 136.848 367.5 137.916 367.5 139V141.775H366.5V139ZM777.5 139C777.5 137.959 777.432 136.935 777.301 135.93L778.293 135.801C778.43 136.848 778.5 137.916 778.5 139V141.775H777.5V139ZM143.312 147.325V152.875H142.312V147.325H143.312ZM366.5 152.875V147.325H367.5V152.875H366.5ZM602.5 147.325V152.875H601.5V147.325H602.5ZM777.5 152.875V147.325H778.5V152.875H777.5ZM929.5 147.325V152.875H928.5V147.325H929.5ZM143.312 158.425V163.975H142.312V158.425H143.312ZM602.5 158.425V163.975H601.5V158.425H602.5ZM929.5 158.425V163.975H928.5V158.425H929.5ZM366.5 163.975V158.425H367.5V163.975H366.5ZM777.5 163.975V158.425H778.5V163.975H777.5ZM143.312 169.525V175.075H142.312V169.525H143.312ZM602.5 169.525V175.075H601.5V169.525H602.5ZM929.5 169.525V175.075H928.5V169.525H929.5ZM366.5 175.075V169.525H367.5V175.075H366.5ZM777.5 175.075V169.525H778.5V175.075H777.5ZM143.312 180.625V186.175H142.312V180.625H143.312ZM366.5 186.175V180.625H367.5V186.175H366.5ZM602.5 180.625V186.175H601.5V180.625H602.5ZM777.5 186.175V180.625H778.5V186.175H777.5ZM929.5 180.625V186.175H928.5V180.625H929.5ZM143.312 191.725V194.5C143.312 195.584 143.242 196.652 143.105 197.699L142.114 197.57C142.245 196.565 142.312 195.541 142.312 194.5V191.725H143.312ZM366.5 194.5V191.725H367.5V194.5C367.5 195.541 367.568 196.565 367.699 197.57L366.707 197.699C366.57 196.652 366.5 195.584 366.5 194.5ZM602.5 191.725V194.5C602.5 195.584 602.43 196.652 602.293 197.699L601.301 197.57C601.432 196.565 601.5 195.541 601.5 194.5V191.725H602.5ZM777.5 194.5V191.725H778.5V194.5C778.5 195.541 778.568 196.565 778.699 197.57L777.707 197.699C777.57 196.652 777.5 195.584 777.5 194.5ZM929.5 191.725V194.5C929.5 195.584 929.43 196.652 929.293 197.699L928.301 197.57C928.432 196.565 928.5 195.541 928.5 194.5V191.725H929.5ZM141.453 203.878C140.627 205.87 139.546 207.73 138.251 209.415L137.458 208.806C138.7 207.189 139.737 205.406 140.53 203.495L141.453 203.878ZM600.641 203.878C599.815 205.87 598.733 207.73 597.438 209.415L596.645 208.806C597.888 207.189 598.925 205.406 599.717 203.495L600.641 203.878ZM927.641 203.878C926.815 205.87 925.733 207.73 924.438 209.415L923.645 208.806C924.888 207.189 925.925 205.406 926.717 203.495L927.641 203.878ZM371.562 209.415C370.267 207.73 369.185 205.87 368.359 203.878L369.283 203.495C370.075 205.406 371.112 207.189 372.355 208.806L371.562 209.415ZM782.562 209.415C781.267 207.73 780.185 205.87 779.359 203.878L780.283 203.495C781.075 205.406 782.112 207.189 783.355 208.806L782.562 209.415ZM133.728 213.938C132.042 215.233 130.183 216.315 128.191 217.141L127.808 216.217C129.718 215.425 131.501 214.388 133.119 213.145L133.728 213.938ZM381.622 217.141C379.63 216.315 377.77 215.233 376.085 213.938L376.694 213.145C378.311 214.388 380.094 215.425 382.005 216.217L381.622 217.141ZM592.915 213.938C591.23 215.233 589.37 216.315 587.378 217.141L586.995 216.217C588.906 215.425 590.689 214.388 592.306 213.145L592.915 213.938ZM792.622 217.141C790.63 216.315 788.77 215.233 787.085 213.938L787.694 213.145C789.311 214.388 791.094 215.425 793.005 216.217L792.622 217.141ZM919.915 213.938C918.23 215.233 916.37 216.315 914.378 217.141L913.995 216.217C915.906 215.425 917.689 214.388 919.306 213.145L919.915 213.938ZM122.012 218.793C120.964 218.93 119.897 219 118.812 219H116.072V218H118.812C119.853 218 120.878 217.932 121.882 217.801L122.012 218.793ZM391 219C389.916 219 388.848 218.93 387.801 218.793L387.93 217.801C388.935 217.932 389.959 218 391 218H394.031V219H391ZM581.199 218.793C580.152 218.93 579.084 219 578 219H575.188V218H578C579.041 218 580.065 217.932 581.07 217.801L581.199 218.793ZM802 219C800.916 219 799.848 218.93 798.801 218.793L798.93 217.801C799.935 217.932 800.959 218 802 218H804.861V219H802ZM908.199 218.793C907.152 218.93 906.084 219 905 219H902.139V218H905C906.041 218 907.065 217.932 908.07 217.801L908.199 218.793ZM66.7406 219H64V218H66.7406V219ZM77.7031 219H72.2219V218H77.7031V219ZM88.6656 219H83.1844V218H88.6656V219ZM99.6281 219H94.1469V218H99.6281V219ZM110.591 219H105.109V218H110.591V219ZM406.156 219H400.094V218H406.156V219ZM418.281 219H412.219V218H418.281V219ZM430.406 219H424.344V218H430.406V219ZM442.531 219H436.469V218H442.531V219ZM454.656 219H448.594V218H454.656V219ZM466.781 219H460.719V218H466.781V219ZM478.906 219H472.844V218H478.906V219ZM484.969 219V218H490.812V219H484.969ZM502.062 219H496.438V218H502.062V219ZM513.312 219H507.688V218H513.312V219ZM524.562 219H518.938V218H524.562V219ZM535.812 219H530.188V218H535.812V219ZM547.062 219H541.438V218H547.062V219ZM558.312 219H552.688V218H558.312V219ZM569.562 219H563.938V218H569.562V219ZM816.306 219H810.583V218H816.306V219ZM827.75 219H822.028V218H827.75V219ZM839.194 219H833.472V218H839.194V219ZM850.639 219H844.917V218H850.639V219ZM862.083 219H856.361V218H862.083V219ZM873.528 219H867.806V218H873.528V219ZM884.972 219H879.25V218H884.972V219ZM896.417 219H890.694V218H896.417V219Z" fill="white"/>
<path d="M52 232.5C59.732 232.5 66 226.232 66 218.5C66 210.768 59.732 204.5 52 204.5C44.268 204.5 38 210.768 38 218.5C38 226.232 44.268 232.5 52 232.5Z" fill="#1F2229"/>
<path fill-rule="evenodd" clip-rule="evenodd" d="M52 206.5C45.3726 206.5 40 211.873 40 218.5C40 225.127 45.3726 230.5 52 230.5C58.6274 230.5 64 225.127 64 218.5C64 211.873 58.6274 206.5 52 206.5ZM36 218.5C36 209.663 43.1634 202.5 52 202.5C60.8365 202.5 68 209.663 68 218.5C68 227.337 60.8366 234.5 52 234.5C43.1634 234.5 36 227.337 36 218.5Z" fill="white"/>
<path d="M484 232.5C491.732 232.5 498 226.232 498 218.5C498 210.768 491.732 204.5 484 204.5C476.268 204.5 470 210.768 470 218.5C470 226.232 476.268 232.5 484 232.5Z" fill="#1F2229"/>
<path fill-rule="evenodd" clip-rule="evenodd" d="M484 206.5C477.373 206.5 472 211.873 472 218.5C472 225.127 477.373 230.5 484 230.5C490.627 230.5 496 225.127 496 218.5C496 211.873 490.627 206.5 484 206.5ZM468 218.5C468 209.663 475.163 202.5 484 202.5C492.837 202.5 500 209.663 500 218.5C500 227.337 492.837 234.5 484 234.5C475.163 234.5 468 227.337 468 218.5Z" fill="white"/>
<path d="M858 232.5C865.732 232.5 872 226.232 872 218.5C872 210.768 865.732 204.5 858 204.5C850.268 204.5 844 210.768 844 218.5C844 226.232 850.268 232.5 858 232.5Z" fill="#1F2229"/>
<path fill-rule="evenodd" clip-rule="evenodd" d="M858 206.5C851.373 206.5 846 211.873 846 218.5C846 225.127 851.373 230.5 858 230.5C864.627 230.5 870 225.127 870 218.5C870 211.873 864.627 206.5 858 206.5ZM842 218.5C842 209.663 849.163 202.5 858 202.5C866.837 202.5 874 209.663 874 218.5C874 227.337 866.837 234.5 858 234.5C849.163 234.5 842 227.337 842 218.5Z" fill="white"/>
<path d="M253 128.5C260.732 128.5 267 122.232 267 114.5C267 106.768 260.732 100.5 253 100.5C245.268 100.5 239 106.768 239 114.5C239 122.232 245.268 128.5 253 128.5Z" fill="#1F2229"/>
<path fill-rule="evenodd" clip-rule="evenodd" d="M253 102.5C246.373 102.5 241 107.873 241 114.5C241 121.127 246.373 126.5 253 126.5C259.627 126.5 265 121.127 265 114.5C265 107.873 259.627 102.5 253 102.5ZM237 114.5C237 105.663 244.163 98.5 253 98.5C261.837 98.5 269 105.663 269 114.5C269 123.337 261.837 130.5 253 130.5C244.163 130.5 237 123.337 237 114.5Z" fill="white"/>
<path d="M688 128.5C695.732 128.5 702 122.232 702 114.5C702 106.768 695.732 100.5 688 100.5C680.268 100.5 674 106.768 674 114.5C674 122.232 680.268 128.5 688 128.5Z" fill="#1F2229"/>
<path fill-rule="evenodd" clip-rule="evenodd" d="M688 102.5C681.373 102.5 676 107.873 676 114.5C676 121.127 681.373 126.5 688 126.5C694.627 126.5 700 121.127 700 114.5C700 107.873 694.627 102.5 688 102.5ZM672 114.5C672 105.663 679.163 98.5 688 98.5C696.837 98.5 704 105.663 704 114.5C704 123.337 696.837 130.5 688 130.5C679.163 130.5 672 123.337 672 114.5Z" fill="white"/>
<path d="M1013 128.5C1020.73 128.5 1027 122.232 1027 114.5C1027 106.768 1020.73 100.5 1013 100.5C1005.27 100.5 999 106.768 999 114.5C999 122.232 1005.27 128.5 1013 128.5Z" fill="#1F2229"/>
<path fill-rule="evenodd" clip-rule="evenodd" d="M1013 102.5C1006.37 102.5 1001 107.873 1001 114.5C1001 121.127 1006.37 126.5 1013 126.5C1019.63 126.5 1025 121.127 1025 114.5C1025 107.873 1019.63 102.5 1013 102.5ZM997 114.5C997 105.663 1004.16 98.5 1013 98.5C1021.84 98.5 1029 105.663 1029 114.5C1029 123.337 1021.84 130.5 1013 130.5C1004.16 130.5 997 123.337 997 114.5Z" fill="white"/>
<path d="M1 162.593V155.072C1.00005 156.419 1.95357 158.013 4.52204 159.513C13.5618 164.829 28.4508 173.551 37.4906 178.835C41.7446 181.35 48.2194 181.604 51.9104 179.44C61.2004 173.996 86.6031 157.774 95.8931 152.331C97.4498 151.418 98.2665 150.216 98.3713 148.945L98.3813 157.075C98.4444 158.52 97.6242 159.9 95.8577 160.928C86.4892 166.417 61.1753 181.737 51.8067 187.227C48.0846 189.41 41.555 189.153 37.265 186.617C28.1489 181.288 13.134 172.492 4.01783 167.131C1.71513 165.815 1.06309 164.231 1 162.593Z" fill="white"/>
<path fill-rule="evenodd" clip-rule="evenodd" d="M97.8742 151.334C97.4343 151.864 96.8552 152.346 96.146 152.762C91.5088 155.479 82.8433 160.891 74.1666 166.309L74.1572 166.315C65.4907 171.727 56.8143 177.146 52.1632 179.871C52.1631 179.871 52.1633 179.871 52.1632 179.871C50.2101 181.016 47.565 181.502 44.8911 181.392C42.2129 181.281 39.4476 180.572 37.2374 179.266C37.2371 179.266 37.2377 179.266 37.2374 179.266L37.4906 178.835L37.2362 179.265C37.2366 179.266 37.237 179.266 37.2374 179.266C28.1976 173.982 13.3094 165.26 4.26939 159.944C3.02359 159.217 2.11349 158.447 1.5 157.669V155.072C1.50004 156.16 2.27388 157.621 4.77409 159.081L4.7755 159.082C13.8148 164.397 28.7034 173.119 37.7429 178.403L37.745 178.404C39.7886 179.613 42.3872 180.288 44.9322 180.392C47.4819 180.497 49.9197 180.028 51.6575 179.008C56.2947 176.291 64.9602 170.88 73.6369 165.461L73.6464 165.455C82.3127 160.043 90.989 154.625 95.6401 151.899C97.0985 151.044 97.7851 149.969 97.873 148.904L98.8713 148.945L98.8813 157.064C98.95 158.741 97.9836 160.27 96.1091 161.36C91.4274 164.103 82.7606 169.303 74.0895 174.506L74.084 174.509C65.4165 179.71 56.7456 184.912 52.0595 187.658C50.0908 188.813 47.4243 189.302 44.7283 189.191C42.028 189.08 39.24 188.365 37.0119 187.048C27.8963 181.719 12.8837 172.925 3.76707 167.564C2.55874 166.873 1.75123 166.092 1.24021 165.24C0.72833 164.386 0.534313 163.493 0.500371 162.613L0.5 162.603V155.072L1.5 155.072M1.5 162.584V157.669V162.584ZM1.5 162.584C1.49987 162.58 1.49975 162.577 1.49963 162.574L1 162.593H1.5V162.584ZM1.5 162.584C1.53014 163.336 1.69401 164.052 2.09792 164.726C2.50399 165.403 3.17304 166.072 4.26595 166.697L4.27131 166.7C13.387 172.061 28.4014 180.856 37.5174 186.185L37.5195 186.186C39.5811 187.405 42.2023 188.086 44.7694 188.192C47.3411 188.298 49.8004 187.824 51.5538 186.795C56.2352 184.052 64.9031 178.852 73.575 173.648L73.5773 173.647C82.2458 168.446 90.9183 163.242 95.605 160.496L95.6064 160.495C97.2608 159.533 97.9345 158.306 97.8817 157.097L97.8813 157.087L97.8742 151.334C98.4609 150.626 98.8 149.83 98.8696 148.986L98.3713 148.945L97.8713 148.946L97.8742 151.334" fill="white"/>
<path d="M47.4725 123.967C51.1634 121.803 57.6383 122.057 61.8923 124.572C63.9099 125.751 66.2188 127.102 68.6891 128.548C76.2554 132.979 89.0227 140.461 94.8608 143.894C99.1148 146.377 99.584 150.165 95.8931 152.33C86.6031 157.773 61.2004 173.996 51.9104 179.439C48.2194 181.603 41.7446 181.349 37.4906 178.834C28.4508 173.55 13.5618 164.828 4.52204 159.512C0.268036 157.029 -0.201161 153.241 3.48982 151.076C12.7798 145.633 38.1512 129.41 47.4725 123.967Z" fill="#1F2229"/>
<path fill-rule="evenodd" clip-rule="evenodd" d="M54.4916 122.015C57.1698 122.125 59.9351 122.835 62.1453 124.141C64.1628 125.32 66.4715 126.671 68.9415 128.116L68.4363 128.979C65.9661 127.534 63.6572 126.183 61.6397 125.004L61.6376 125.002C59.594 123.794 56.9954 123.119 54.4505 123.014C51.9008 122.909 49.463 123.379 47.7252 124.398L47.7244 124.399C43.0719 127.116 34.407 132.527 25.7341 137.946L25.3831 138.165C16.8352 143.506 8.33257 148.818 3.74253 151.507C2.01813 152.519 1.3657 153.836 1.5226 155.114C1.68402 156.428 2.72062 157.882 4.77386 159.08L4.77527 159.081C13.8145 164.396 28.7032 173.118 37.7427 178.402L37.7448 178.404C39.7884 179.612 42.387 180.287 44.932 180.392C47.4816 180.496 49.9194 180.027 51.6573 179.008L51.6574 179.007C56.2947 176.29 64.9599 170.879 73.6367 165.46L73.6461 165.454C82.3124 160.042 90.9888 154.624 95.6399 151.899C97.3643 150.887 98.0167 149.57 97.8598 148.292C97.6984 146.978 96.6618 145.524 94.6086 144.326L94.6072 144.325C88.7694 140.892 80.492 136.039 72.9258 131.608L73.4311 130.745C80.9971 135.176 89.2747 140.029 95.1132 143.463C97.3136 144.747 98.6385 146.429 98.8524 148.17C99.0708 149.949 98.1124 151.608 96.1458 152.761L96.1456 152.761C91.5084 155.478 82.8431 160.89 74.1664 166.308L74.1573 166.314C65.4907 171.726 56.8141 177.145 52.163 179.87L51.9102 179.439L52.1631 179.87C52.1631 179.87 52.163 179.87 52.163 179.87C50.2098 181.016 47.5648 181.501 44.8909 181.391C42.2125 181.281 39.4471 180.571 37.2368 179.265C37.2372 179.265 37.2376 179.265 37.238 179.266L37.4904 178.834L37.2359 179.264C37.2362 179.265 37.2365 179.265 37.2368 179.265C28.1969 173.981 13.3089 165.259 4.26897 159.943C4.26923 159.943 4.2695 159.943 4.26977 159.944L4.5218 159.512L4.26836 159.943C4.26856 159.943 4.26876 159.943 4.26897 159.943C2.06868 158.659 0.743971 156.977 0.53006 155.236C0.311605 153.457 1.27006 151.798 3.23665 150.645L3.23681 150.645C7.81438 147.963 16.3094 142.655 24.8698 137.307L25.2042 137.098C33.8694 131.684 42.5505 126.262 47.2195 123.536C47.2194 123.536 47.2193 123.536 47.2193 123.536L47.4722 123.967L47.2201 123.535C47.2199 123.535 47.2197 123.536 47.2195 123.536C49.1726 122.39 51.8176 121.905 54.4916 122.015Z" fill="white"/>
<path d="M54.5047 157.137L62.9636 163.094L51.3649 170.254L43.3508 164.553L36.8351 168.291L36.2261 151.703L60.4763 153.376L54.5047 157.137Z" fill="#38FFA6"/>
<path fill-rule="evenodd" clip-rule="evenodd" d="M35.8783 151.344C35.9801 151.246 36.119 151.195 36.2605 151.205L60.5107 152.877C60.7266 152.892 60.9084 153.044 60.9612 153.254C61.014 153.464 60.9258 153.684 60.7428 153.799L55.4061 157.161L63.2514 162.685C63.3888 162.782 63.4684 162.941 63.4633 163.109C63.4583 163.277 63.3692 163.431 63.2262 163.519L51.6276 170.68C51.4565 170.785 51.2389 170.778 51.0751 170.662L43.3218 165.146L37.0839 168.725C36.932 168.812 36.7456 168.813 36.5925 168.728C36.4394 168.643 36.3419 168.484 36.3354 168.309L35.7264 151.722C35.7212 151.58 35.7764 151.443 35.8783 151.344ZM36.7461 152.241L37.3044 167.445L43.1019 164.119C43.2712 164.022 43.4816 164.032 43.6406 164.146L51.3845 169.654L62.0562 163.066L54.2169 157.546C54.0802 157.45 54.0006 157.292 54.0049 157.125C54.0092 156.957 54.0968 156.803 54.2383 156.714L58.9135 153.77L36.7461 152.241Z" fill="#38FFA6"/>
<path fill-rule="evenodd" clip-rule="evenodd" d="M33.1559 118.596L22.0708 107.51L22.7779 106.803L33.863 117.888L33.1559 118.596Z" fill="#38FFA6"/>
<path fill-rule="evenodd" clip-rule="evenodd" d="M66.1786 116.308L77.2637 105.222L76.5566 104.515L65.4715 115.6L66.1786 116.308Z" fill="#38FFA6"/>
<path fill-rule="evenodd" clip-rule="evenodd" d="M49.168 110.411V96.5H50.168V110.411H49.168Z" fill="#38FFA6"/>
<path fill-rule="evenodd" clip-rule="evenodd" d="M204.179 55.1583L250.461 28.2816L250.963 29.1463L204.68 56.024L204.679 56.0248C199.528 58.9924 197.066 63.0884 197.563 67.4453C198.063 71.8416 201.447 76.1459 207.278 79.5327C213.8 83.1149 221.076 85.0799 228.503 85.2646L228.509 85.2647C236.332 85.5403 243.529 84.015 248.633 81.0446L294.903 54.114L294.906 54.1124C300.054 51.1586 302.518 47.0625 302.034 42.6908C301.546 38.2821 298.136 33.9767 292.313 30.5886L292.816 29.7242C298.774 33.1911 302.49 37.7259 303.028 42.5808C303.569 47.4723 300.774 51.8982 295.405 54.979C295.404 54.9792 295.404 54.9795 295.403 54.9798L249.136 81.9088C243.826 84.9991 236.43 86.544 228.476 86.2642C220.887 86.0751 213.454 84.0668 206.792 80.4063L206.781 80.4006L206.781 80.4005C200.808 76.9327 197.12 72.3981 196.569 67.5585C196.013 62.6783 198.811 58.2518 204.179 55.1583Z" fill="white"/>
<path fill-rule="evenodd" clip-rule="evenodd" d="M204.189 61.3986L250.461 34.5276L250.963 35.3924L204.68 62.2701C204.674 62.2734 204.668 62.2765 204.663 62.2796C204.661 62.2807 204.659 62.2818 204.656 62.2829C201.646 63.822 199.293 66.4064 198.03 69.5558C199.233 73.1604 202.423 76.662 207.278 79.4795C213.8 83.0618 221.076 85.0267 228.503 85.2114L228.508 85.2116C236.332 85.4872 243.529 83.9619 248.633 80.9914L248.633 80.9912L294.903 54.1136C294.911 54.1091 294.919 54.1048 294.926 54.1007C297.937 52.5614 300.29 49.9767 301.553 46.8269C300.362 43.2225 297.159 39.7197 292.312 36.9009L292.815 36.0365C297.861 38.9707 301.313 42.7083 302.561 46.6946C302.594 46.8025 302.591 46.9186 302.55 47.0241C301.218 50.4718 298.67 53.3059 295.394 54.9849L249.136 81.8557C243.826 84.9459 236.43 86.4908 228.476 86.2111C220.887 86.022 213.454 84.0137 206.791 80.3531L206.781 80.3475L206.781 80.3474C201.722 77.4125 198.283 73.675 197.023 69.6905C196.989 69.5822 196.992 69.4654 197.033 69.3595C198.365 65.9117 200.913 63.0777 204.189 61.3986Z" fill="white"/>
<path fill-rule="evenodd" clip-rule="evenodd" d="M250.753 29.6267L256.012 37.8051H276.169L287.674 29.6664H296.747V41.5767C296.747 45.6792 293.985 49.7684 288.595 52.9048C277.773 59.1908 260.246 59.2305 249.491 52.9048C244.1 49.7684 241.417 45.6395 241.47 41.5106V29.6002L250.753 29.6267Z" fill="white"/>
<path d="M241.795 47.1091L230.723 53.5274L241.795 47.1091ZM232.722 9.47245L243.714 15.8114L232.722 9.47245ZM297.229 46.9106L308.221 53.3025L297.229 46.9106ZM269.801 0.5V9.56508V0.5ZM306.828 9.34011L295.704 15.8114L306.828 9.34011ZM322.001 30.8713H306.407H322.001ZM269.525 54.1891V63.2542V54.1891ZM232.867 30.9904H217.272H232.867Z" fill="#38FFA6"/>
<path fill-rule="evenodd" clip-rule="evenodd" d="M269.801 0C270.077 0 270.301 0.223858 270.301 0.5V9.56508C270.301 9.84122 270.077 10.0651 269.801 10.0651C269.525 10.0651 269.301 9.84122 269.301 9.56508V0.5C269.301 0.223858 269.525 0 269.801 0ZM307.26 9.08869C307.399 9.32737 307.318 9.63344 307.079 9.7723L295.955 16.2436C295.717 16.3824 295.411 16.3015 295.272 16.0628C295.133 15.8241 295.214 15.5181 295.452 15.3792L306.576 8.90793C306.815 8.76907 307.121 8.85 307.26 9.08869ZM232.289 9.22267C232.427 8.98345 232.733 8.90136 232.972 9.03931L243.964 15.3783C244.203 15.5162 244.285 15.822 244.147 16.0612C244.009 16.3004 243.704 16.3825 243.465 16.2445L232.472 9.90559C232.233 9.76764 232.151 9.46188 232.289 9.22267ZM305.907 30.8713C305.907 30.5952 306.131 30.3713 306.407 30.3713H322.001C322.277 30.3713 322.501 30.5952 322.501 30.8713C322.501 31.1475 322.277 31.3713 322.001 31.3713H306.407C306.131 31.3713 305.907 31.1475 305.907 30.8713ZM217.272 30.4904H232.867V31.4904H217.272V30.4904ZM296.797 46.6592C296.936 46.4205 297.242 46.3395 297.48 46.4783L308.473 52.8702C308.711 53.009 308.792 53.3151 308.654 53.5538C308.515 53.7925 308.209 53.8735 307.97 53.7347L296.978 47.3428C296.739 47.204 296.658 46.898 296.797 46.6592ZM242.227 46.8583C242.366 47.0972 242.284 47.4032 242.045 47.5417L230.974 53.96C230.735 54.0985 230.429 54.0171 230.291 53.7782C230.152 53.5393 230.234 53.2334 230.473 53.0949L241.544 46.6765C241.783 46.538 242.089 46.6194 242.227 46.8583ZM269.525 53.6891C269.801 53.6891 270.025 53.913 270.025 54.1891V63.2542C270.025 63.5303 269.801 63.7542 269.525 63.7542C269.249 63.7542 269.025 63.5303 269.025 63.2542V54.1891C269.025 53.913 269.249 53.6891 269.525 53.6891Z" fill="#38FFA6"/>
<path fill-rule="evenodd" clip-rule="evenodd" d="M249.581 18.4571C260.402 12.1578 277.916 12.1314 288.671 18.3777C299.427 24.624 299.374 34.8139 288.553 41.0999C277.732 47.3859 260.205 47.4256 249.449 41.1661C238.694 34.9066 238.759 24.7431 249.581 18.4571ZM267.87 33.0141H256.037V37.8312H276.193L276.299 18.2718H268.015L267.87 33.0141Z" fill="#38FFA6"/>
<path d="M457.413 110.395L457 181.019C457 182.253 457.495 183.109 458.238 183.395L464.427 186.769L522.602 79.2789L516 75.6393C515.514 75.4188 514.911 75.4519 514.267 75.797L460.301 105.021C458.733 105.945 457.413 108.296 457.413 110.395Z" fill="#38FFA6"/>
<path fill-rule="evenodd" clip-rule="evenodd" d="M514.504 76.2372C514.504 76.2374 514.504 76.2376 514.503 76.2378L460.547 105.456C459.864 105.861 459.202 106.6 458.708 107.506C458.214 108.413 457.913 109.444 457.913 110.395L457.913 110.398L457.5 181.019C457.5 181.02 457.5 181.02 457.5 181.021C457.5 182.142 457.943 182.746 458.417 182.928L458.448 182.94L464.226 186.09L521.926 79.4773L515.778 76.0876C515.466 75.9527 515.035 75.9532 514.504 76.2372ZM514.031 75.3563C514.779 74.9556 515.547 74.885 516.207 75.184L516.224 75.1921L523.277 79.0806L464.628 187.448L458.025 183.849C457.034 183.448 456.5 182.35 456.5 181.019V181.017L456.913 110.395C456.913 110.395 456.913 110.394 456.913 110.394C456.913 109.246 457.272 108.052 457.83 107.028C458.386 106.006 459.165 105.11 460.047 104.59L460.055 104.585L514.031 75.3563Z" fill="#38FFA6"/>
<path d="M520.868 79.4513C522.436 78.6115 523.756 79.6192 523.756 81.6347L523.693 92.4974C523.67 96.2904 523.658 98.417 523.636 102.21L523.343 152.259C523.343 154.358 522.023 156.71 520.455 157.633L466.489 186.857C464.921 187.697 463.601 186.689 463.601 184.674L464.013 114.05C464.013 111.95 465.333 109.599 466.901 108.675L520.868 79.4513Z" fill="#1F2229"/>
<path fill-rule="evenodd" clip-rule="evenodd" d="M521.105 79.8914C521.105 79.8916 521.104 79.8918 521.104 79.892L467.148 109.11C466.465 109.515 465.802 110.254 465.308 111.161C464.814 112.068 464.513 113.099 464.513 114.05L464.513 114.052L464.101 184.674C464.101 184.674 464.101 184.675 464.101 184.675C464.101 185.585 464.399 186.165 464.759 186.438C465.095 186.693 465.6 186.766 466.252 186.417C466.252 186.417 466.252 186.416 466.253 186.416L520.209 157.198C520.892 156.793 521.554 156.054 522.048 155.148C522.542 154.241 522.843 153.21 522.843 152.259L522.843 152.256L523.136 102.207L524.136 102.213L523.843 152.259C523.843 152.259 523.843 152.26 523.843 152.26C523.843 153.409 523.484 154.602 522.926 155.626C522.37 156.648 521.591 157.544 520.709 158.064L520.701 158.069L466.727 187.297L466.725 187.298C465.809 187.788 464.87 187.777 464.155 187.234C463.463 186.71 463.101 185.778 463.101 184.674V184.671L463.513 114.05C463.513 114.049 463.513 114.049 463.513 114.048C463.513 112.9 463.872 111.706 464.43 110.682C464.987 109.661 465.765 108.764 466.647 108.244L466.655 108.24L520.632 79.0105C521.547 78.5201 522.487 78.5314 523.202 79.0739C523.894 79.5984 524.256 80.5304 524.256 81.6347L524.256 81.6376L524.193 92.5003L523.193 92.4945L523.256 81.6347C523.256 81.6341 523.256 81.6336 523.256 81.6331C523.256 80.7228 522.958 80.1438 522.598 79.8707C522.261 79.6155 521.757 79.5428 521.105 79.8914Z" fill="white"/>
<path d="M483.531 132.373C483.623 132.373 483.623 132.373 483.531 132.373C483.899 132.185 484.268 131.998 484.544 131.81C484.912 131.623 485.189 131.435 485.557 131.248C485.557 131.248 485.557 131.248 485.649 131.248C485.925 131.06 486.017 131.248 486.017 131.623C486.017 133.591 486.017 135.56 486.017 137.528C486.017 138.278 486.017 138.278 486.57 137.997C487.399 137.528 488.228 137.153 488.965 136.684C489.61 136.309 490.346 135.934 490.991 135.56C490.991 135.56 490.991 135.56 491.083 135.56C491.452 135.372 491.544 135.466 491.544 136.028C491.544 136.778 491.544 137.528 491.544 138.372C491.544 138.934 491.636 138.934 491.912 138.84C491.912 138.84 492.004 138.84 492.004 138.746C492.189 138.653 492.373 138.465 492.649 138.372C492.833 138.278 493.017 138.184 493.11 138.09C493.202 137.997 493.386 137.903 493.478 137.903C493.57 137.809 493.754 137.715 493.846 137.715C494.123 137.528 494.215 137.622 494.215 137.997C494.215 138.934 494.215 139.777 494.215 140.715C494.215 141.09 494.123 141.277 493.846 141.371C493.478 141.558 493.202 141.746 492.833 141.933C492.373 142.215 491.912 142.402 491.452 142.683C490.991 142.964 490.531 143.152 490.07 143.433C489.794 143.621 489.517 143.714 489.149 143.902C489.149 143.902 489.057 143.902 489.057 143.995C488.781 144.183 488.596 144.089 488.689 143.621C488.689 142.777 488.689 142.027 488.689 141.183C488.689 140.715 488.689 140.621 488.32 140.809C487.491 141.277 486.754 141.652 485.925 142.121C485.189 142.496 484.36 142.964 483.623 143.339C483.254 143.527 483.162 143.714 483.254 144.183C483.254 145.027 483.254 145.87 483.254 146.807C483.254 147.089 483.254 147.276 482.978 147.37C482.61 147.557 482.149 147.745 481.781 148.026C481.412 148.213 481.136 148.401 480.768 148.588C480.491 148.776 480.491 148.588 480.491 148.307C480.491 146.245 480.491 144.089 480.491 142.027C480.491 141.652 480.583 141.465 480.86 141.371C480.86 141.371 480.86 141.371 480.952 141.371C481.136 141.277 481.32 141.183 481.504 141.09C481.596 140.996 481.781 140.996 481.873 140.902C481.965 140.809 482.149 140.715 482.241 140.715C482.425 140.621 482.61 140.527 482.794 140.434H482.886C483.162 140.246 483.346 140.059 483.254 139.59C483.254 137.622 483.254 135.56 483.254 133.497C483.254 132.748 483.254 132.56 483.531 132.373Z" fill="white"/>
<path d="M515.768 147.277C516.044 147.183 516.044 147.183 516.044 147.558C516.044 148.683 516.044 149.714 516.044 150.745C514.202 151.776 512.36 152.713 510.518 153.744C510.518 152.713 510.518 151.588 510.518 150.557C510.518 150.276 510.61 150.089 510.794 149.995C511.623 149.526 512.452 149.151 513.281 148.683C514.202 148.214 514.939 147.745 515.768 147.277Z" fill="white"/>
<path d="M513.005 141.651C513.281 141.464 513.373 141.557 513.373 141.932C513.373 142.87 513.373 143.713 513.373 144.557C513.373 144.932 513.281 145.025 513.005 145.213C511.439 146.057 509.781 146.994 508.215 147.837C507.939 148.025 507.847 148.119 507.847 148.494C507.847 150.743 507.847 152.993 507.847 155.242C506.926 155.711 506.005 156.273 505.083 156.742C505.083 153.274 505.083 149.9 505.176 146.431C505.176 146.057 505.268 145.869 505.544 145.682C506.833 145.025 508.031 144.369 509.32 143.713C510.518 142.963 511.715 142.307 513.005 141.651Z" fill="white"/>
<path d="M507.663 130.122C507.939 130.028 507.939 130.028 507.939 130.403C507.939 132.09 507.939 133.777 507.939 135.371C507.939 137.058 507.939 138.651 507.939 140.339C507.939 140.713 507.847 140.807 507.663 140.995C507.663 140.995 507.663 140.995 507.571 140.995C507.203 141.182 506.926 141.37 506.558 141.557C506.189 141.745 505.913 141.932 505.545 142.119C505.545 142.119 505.545 142.119 505.453 142.119C505.176 142.307 505.176 142.213 505.176 141.838C505.176 139.682 505.176 137.62 505.268 135.558C505.268 135.183 505.176 135.09 504.992 135.277C504.624 135.464 504.255 135.652 503.887 135.933C503.703 136.027 503.518 136.121 503.426 136.214C503.242 136.308 503.058 136.402 502.966 136.495C502.782 136.589 502.689 136.589 502.689 136.214C502.689 135.277 502.689 134.34 502.689 133.402C502.689 133.121 502.782 132.934 502.966 132.84C503.795 132.371 504.624 131.996 505.453 131.528C506.005 131.059 506.834 130.59 507.663 130.122Z" fill="white"/>
<path d="M502.136 140.34C502.32 140.246 502.413 140.246 502.413 140.621C502.413 141.746 502.413 142.777 502.413 143.902C502.413 144.933 502.413 145.964 502.413 147.089C502.413 147.37 502.32 147.557 502.136 147.651C501.768 147.838 501.399 148.026 501.031 148.213C500.663 148.401 500.294 148.588 499.926 148.776C499.649 148.87 499.649 148.776 499.649 148.495C499.649 146.339 499.649 144.183 499.649 142.121C499.649 141.84 499.742 141.652 499.926 141.558C500.294 141.371 500.663 141.183 501.031 140.996C501.399 140.715 501.768 140.527 502.136 140.34Z" fill="white"/>
<path d="M491.083 153.462C491.36 153.368 491.36 153.462 491.36 153.743C491.36 154.68 491.36 155.618 491.36 156.555C491.36 156.836 491.268 157.024 491.083 157.117C491.083 157.117 491.083 157.117 490.991 157.117C490.807 157.211 490.715 157.305 490.531 157.305C490.346 157.399 490.162 157.492 489.978 157.586C489.794 157.68 489.61 157.774 489.333 157.867C489.149 157.961 489.057 158.055 488.873 158.149C488.873 158.149 488.781 158.149 488.781 158.242C488.597 158.336 488.504 158.336 488.504 157.961C488.504 157.024 488.504 156.086 488.504 155.149C488.504 154.774 488.597 154.68 488.781 154.587C489.149 154.399 489.518 154.212 489.886 154.024C490.346 153.931 490.715 153.743 491.083 153.462C491.083 153.556 491.083 153.462 491.083 153.462Z" fill="white"/>
<path d="M496.61 143.34C496.886 143.152 496.886 143.34 496.886 143.621C496.886 146.901 496.886 150.182 496.794 153.463C496.794 153.838 496.886 153.931 497.162 153.744C497.623 153.463 498.083 153.275 498.452 152.994C498.912 152.807 499.281 152.525 499.741 152.338C500.478 151.963 501.215 151.494 501.952 151.119C502.228 150.932 502.32 151.026 502.32 151.401C502.32 152.338 502.32 153.182 502.32 154.119C502.32 154.494 502.228 154.588 501.952 154.775C500.386 155.619 498.728 156.556 497.162 157.4C496.886 157.587 496.794 157.681 496.794 158.056C496.794 159.087 496.794 160.118 496.794 161.243C494.031 162.742 491.268 164.242 488.504 165.742C488.504 164.711 488.504 163.68 488.504 162.555C488.504 162.18 488.596 162.086 488.873 161.899C490.439 161.055 492.096 160.118 493.662 159.274C493.939 159.087 494.031 158.993 494.031 158.618C494.031 155.337 494.031 152.057 494.123 148.682C494.123 148.307 494.031 148.214 493.754 148.401C492.189 149.245 490.531 150.182 488.965 151.026C488.689 151.213 488.596 151.119 488.596 150.745C488.596 149.807 488.596 148.87 488.596 148.026C488.596 147.745 488.689 147.558 488.873 147.464C490.162 146.808 491.452 146.058 492.741 145.402C494.031 144.746 495.32 143.996 496.61 143.34Z" fill="white"/>
<path d="M486.11 110.063C486.11 115.687 486.018 121.311 486.018 126.935C486.018 127.404 485.925 127.591 485.557 127.779C483.347 128.997 481.136 130.216 478.925 131.341C476.715 132.559 474.504 133.778 472.294 134.996C472.294 128.997 472.386 122.999 472.386 117C474.597 115.781 476.807 114.563 479.018 113.438C481.228 112.313 483.439 111.001 485.649 109.782C486.018 109.501 486.11 109.595 486.11 110.063ZM483.254 124.967C483.254 121.686 483.254 118.406 483.347 115.031C483.347 114.656 483.254 114.563 482.978 114.75C481.689 115.406 480.491 116.156 479.202 116.812C477.912 117.468 476.715 118.218 475.426 118.874C475.149 119.062 475.057 119.155 475.057 119.53C475.057 121.218 475.057 122.811 475.057 124.498C475.057 126.185 475.057 127.779 475.057 129.466C475.057 129.841 475.149 129.935 475.426 129.747C476.715 129.091 477.912 128.341 479.202 127.685C480.491 127.029 481.689 126.279 482.978 125.623C483.254 125.436 483.254 125.248 483.254 124.967Z" fill="white"/>
<path d="M477.912 135.465C477.912 135.465 478.004 135.465 477.912 135.465C478.281 135.277 478.649 135.09 479.11 134.808C479.478 134.621 479.846 134.434 480.215 134.152C480.399 134.059 480.399 134.152 480.399 134.434C480.399 134.902 480.399 135.371 480.399 135.933C480.399 136.402 480.399 136.871 480.399 137.433C480.399 137.714 480.307 137.808 480.123 137.902C479.754 138.089 479.386 138.277 479.017 138.464C478.649 138.652 478.281 138.839 477.912 139.12C477.82 139.12 477.728 139.12 477.728 138.839C477.728 137.808 477.728 136.871 477.728 135.84C477.728 135.652 477.728 135.558 477.912 135.465Z" fill="white"/>
<path d="M474.596 137.246C474.872 137.058 474.964 137.152 474.964 137.527C474.964 139.683 474.964 141.745 474.872 143.807C474.872 144.182 474.964 144.276 475.149 144.088C475.149 144.088 475.149 144.088 475.241 144.088C475.517 143.995 475.701 143.901 475.885 143.807C476.07 143.714 476.254 143.62 476.438 143.526C476.622 143.432 476.806 143.339 476.899 143.245C477.083 143.151 477.267 143.057 477.359 142.964C477.635 142.87 477.635 142.87 477.635 143.245C477.635 144.182 477.635 145.12 477.635 146.057C477.635 146.338 477.543 146.526 477.359 146.619C477.175 146.713 476.991 146.807 476.806 146.9C476.622 146.994 476.438 147.088 476.254 147.182C475.885 147.369 475.517 147.557 475.149 147.744C474.872 147.838 474.872 148.025 474.872 148.306C474.872 149.244 474.872 150.181 474.872 151.118C474.872 151.4 474.78 151.587 474.596 151.681C474.227 151.868 473.859 152.056 473.583 152.243C473.122 152.524 472.662 152.712 472.201 152.993C472.201 148.213 472.293 143.339 472.293 138.558C472.662 138.371 473.122 138.09 473.491 137.902C473.859 137.715 474.227 137.433 474.596 137.246Z" fill="white"/>
<path d="M515.952 125.718C516.228 125.624 516.228 125.624 516.228 125.999C516.228 126.937 516.228 127.874 516.228 128.811C516.228 129.093 516.136 129.28 515.952 129.374C515.583 129.561 515.215 129.749 514.846 129.936C514.386 130.217 513.925 130.499 513.373 130.686C512.912 130.967 512.452 131.155 511.991 131.436C511.623 131.623 511.346 131.811 510.978 131.998C510.794 132.092 510.702 132.092 510.702 131.717C510.702 130.78 510.702 129.842 510.702 128.905C510.702 128.624 510.794 128.436 510.978 128.343C511.807 127.874 512.636 127.499 513.465 127.03C514.294 126.562 515.123 126.187 515.952 125.718Z" fill="white"/>
<path d="M505.543 120.468C505.912 120.281 506.28 120.093 506.648 119.906C507.017 119.718 507.385 119.531 507.754 119.344C507.938 119.25 508.03 119.344 508.03 119.625C508.03 120.468 508.03 121.312 508.03 122.156C508.03 122.624 508.03 122.812 508.398 122.624C508.398 122.624 508.491 122.624 508.491 122.53C508.767 122.343 509.043 122.156 509.319 122.062C509.596 121.874 509.964 121.781 510.241 121.593C510.241 121.593 510.333 121.593 510.333 121.499C510.609 121.312 510.701 121.124 510.701 120.656C510.701 119.812 510.701 118.969 510.701 118.219C510.701 117.844 510.701 117.656 511.069 117.469C511.898 117.094 512.635 116.625 513.464 116.25C514.201 115.782 515.03 115.407 515.767 114.938C516.135 114.751 516.227 114.844 516.227 115.313C516.227 116.157 516.227 116.907 516.227 117.75C516.227 118.125 516.227 118.406 515.859 118.594H515.767C515.583 118.687 515.398 118.781 515.214 118.875C515.03 118.969 514.938 119.062 514.754 119.156C514.662 119.25 514.569 119.25 514.385 119.344C514.201 119.437 514.017 119.531 513.925 119.625H513.833C513.556 119.718 513.464 119.906 513.464 120.375C513.464 121.124 513.464 121.968 513.464 122.812C513.464 123.28 513.372 123.468 513.004 123.655C512.175 124.03 511.438 124.499 510.701 124.874C509.78 125.342 508.859 125.905 507.938 126.374C507.017 126.842 506.096 127.405 505.175 127.873C504.438 128.248 503.609 128.717 502.872 129.186C502.504 129.373 502.412 129.279 502.412 128.811C502.412 127.967 502.412 127.123 502.412 126.28C502.412 125.905 502.504 125.717 502.78 125.624C502.78 125.624 502.78 125.624 502.872 125.624C503.056 125.53 503.148 125.436 503.333 125.436C503.517 125.436 503.609 125.249 503.793 125.249C503.885 125.155 504.07 125.061 504.162 125.061C504.346 124.968 504.622 124.78 504.806 124.686C504.806 124.686 504.806 124.686 504.898 124.686C505.175 124.499 505.267 124.311 505.267 123.936C505.267 123.093 505.267 122.249 505.267 121.312C505.267 120.843 505.267 120.656 505.543 120.468Z" fill="white"/>
<path d="M499.649 102.191C499.834 102.097 499.926 102.097 499.926 102.378C499.926 103.316 499.926 104.347 499.926 105.284C499.926 105.565 499.834 105.659 499.649 105.847C498.82 106.315 497.992 106.69 497.163 107.159C496.334 107.628 495.505 108.096 494.676 108.471C494.492 108.565 494.399 108.565 494.399 108.284C494.399 107.346 494.399 106.315 494.399 105.378C494.399 105.097 494.492 105.003 494.676 104.816C495.044 104.628 495.413 104.441 495.781 104.253C496.242 103.972 496.702 103.691 497.163 103.503C497.623 103.222 498.084 103.035 498.544 102.753C498.913 102.566 499.281 102.378 499.649 102.191Z" fill="white"/>
<path d="M491.268 110.251C491.544 110.157 491.544 110.157 491.544 110.532C491.544 111.469 491.544 112.407 491.544 113.344C491.544 113.719 491.636 113.719 491.913 113.625C494.4 112.219 496.886 110.907 499.465 109.501C499.742 109.314 499.834 109.407 499.834 109.782C499.834 110.72 499.834 111.563 499.834 112.501C499.834 112.782 499.742 112.969 499.558 113.063C498.821 113.438 498.084 113.813 497.347 114.188C497.071 114.281 497.071 114.469 497.071 114.75C497.071 115.687 497.071 116.625 497.071 117.562C497.071 117.843 496.979 118.031 496.794 118.125C496.426 118.312 496.058 118.499 495.689 118.687C495.321 118.874 494.952 119.062 494.584 119.249C494.308 119.343 494.308 119.343 494.308 118.968C494.308 118.031 494.308 117.093 494.308 116.156C494.308 115.875 494.215 115.781 494.031 115.875C493.755 116.062 493.479 116.156 493.202 116.344C492.65 116.625 492.097 116.906 491.544 117.187C491.176 117.375 490.9 117.562 490.531 117.75C490.071 118.031 489.518 118.312 489.058 118.593C488.781 118.687 488.781 118.687 488.781 118.312C488.781 116.156 488.781 114 488.781 111.844C488.781 111.563 488.873 111.376 489.058 111.282C489.426 111.095 489.794 110.907 490.163 110.72C490.531 110.532 490.992 110.438 491.268 110.251Z" fill="white"/>
<path d="M491.36 121.032C491.544 120.938 491.544 121.032 491.544 121.219C491.544 122.25 491.544 123.188 491.544 124.219C491.544 124.5 491.452 124.594 491.36 124.687C490.992 124.875 490.623 125.062 490.255 125.343C489.886 125.531 489.518 125.718 489.15 126C488.965 126.093 488.965 126 488.965 125.812C488.965 124.781 488.965 123.844 488.965 122.813C488.965 122.625 489.057 122.438 489.15 122.344C489.334 122.25 489.518 122.157 489.702 122.063C489.886 121.969 490.071 121.875 490.255 121.782C490.439 121.688 490.623 121.594 490.807 121.5C490.992 121.407 491.084 121.126 491.36 121.032Z" fill="white"/>
<path d="M499.465 120.188C499.741 120.094 499.741 120.094 499.741 120.469C499.741 122.625 499.741 124.781 499.741 126.843C499.741 127.218 499.649 127.312 499.465 127.405C499.465 127.405 499.465 127.405 499.373 127.405C498.82 127.687 498.267 128.062 497.623 128.343C496.517 128.999 495.32 129.561 494.215 130.217C493.386 130.686 492.465 131.155 491.636 131.623C490.807 132.092 489.886 132.561 489.057 133.029C488.781 133.217 488.688 133.123 488.688 132.748C488.688 131.811 488.688 130.967 488.688 130.03C488.688 129.655 488.781 129.561 489.057 129.374C491.544 128.062 494.031 126.656 496.609 125.343C496.978 125.156 497.07 125.062 496.978 124.593C496.978 123.75 496.978 122.813 496.978 121.875C496.978 121.594 497.07 121.407 497.254 121.313C497.623 121.125 497.991 120.938 498.359 120.75C498.728 120.563 499.096 120.375 499.465 120.188Z" fill="white"/>
<path d="M499.465 130.967C499.649 130.873 499.741 130.967 499.741 131.155C499.741 133.31 499.741 135.56 499.741 137.716C499.741 137.997 499.649 138.091 499.465 138.185C499.465 138.185 499.465 138.185 499.373 138.185C499.005 138.372 498.636 138.559 498.268 138.747C497.899 138.934 497.531 139.122 497.163 139.309C496.978 139.403 496.886 139.403 496.886 139.028C496.886 137.903 496.886 136.872 496.886 135.748C496.886 134.716 496.886 133.685 496.886 132.561C496.886 132.279 496.978 132.092 497.163 131.998C497.531 131.811 497.807 131.623 498.176 131.436C498.636 131.436 499.097 131.248 499.465 130.967Z" fill="white"/>
<path d="M515.951 132.84C516.135 132.746 516.227 132.746 516.227 133.027C516.227 133.496 516.227 134.058 516.227 134.527C516.227 134.996 516.227 135.464 516.227 136.027C516.227 136.308 516.135 136.402 515.951 136.495C515.583 136.683 515.214 136.87 514.846 137.058C514.478 137.245 514.109 137.433 513.741 137.714C513.556 137.808 513.464 137.808 513.464 137.526C513.464 136.495 513.464 135.558 513.464 134.527C513.464 134.246 513.556 134.152 513.741 134.058C514.109 133.871 514.478 133.683 514.846 133.496C515.214 133.308 515.583 133.121 515.951 132.84Z" fill="white"/>
<path d="M480.031 159.461C480.308 159.367 480.308 159.461 480.308 159.742C480.308 160.679 480.308 161.617 480.308 162.554C480.308 162.835 480.215 163.023 480.031 163.116C480.031 163.116 480.031 163.116 479.939 163.116C479.755 163.21 479.663 163.304 479.479 163.304C479.294 163.398 479.11 163.491 478.926 163.585C478.742 163.679 478.558 163.773 478.281 163.866C478.097 163.96 478.005 164.054 477.821 164.148C477.821 164.148 477.729 164.148 477.729 164.241C477.637 164.429 477.544 164.335 477.544 164.054C477.544 163.116 477.544 162.179 477.544 161.242C477.544 160.867 477.637 160.773 477.821 160.679C478.189 160.492 478.558 160.304 478.926 160.117C479.294 159.836 479.663 159.648 480.031 159.461Z" fill="white"/>
<path d="M485.926 149.713C485.926 155.524 485.834 161.336 485.834 167.147C481.321 169.584 476.9 172.021 472.386 174.459C472.11 174.552 472.018 174.552 472.018 174.177C472.018 168.272 472.11 162.461 472.11 156.556C473.86 155.618 475.702 154.587 477.452 153.65C480.123 152.244 482.794 150.744 485.465 149.338C485.834 149.151 485.926 149.244 485.926 149.713ZM483.071 164.617C483.071 161.336 483.071 158.055 483.163 154.681C483.163 154.306 483.071 154.212 482.794 154.4C481.505 155.056 480.307 155.806 479.018 156.462C477.729 157.118 476.531 157.868 475.242 158.524C474.965 158.711 474.873 158.805 474.873 159.18C474.873 160.867 474.873 162.461 474.873 164.148C474.873 165.835 474.873 167.429 474.873 169.116C474.873 169.491 474.965 169.584 475.242 169.397C476.531 168.741 477.729 167.991 479.018 167.335C480.307 166.679 481.505 165.929 482.794 165.273C482.979 165.085 483.071 164.991 483.071 164.617Z" fill="white"/>
<path d="M510.61 103.41C510.794 103.316 510.794 103.41 510.794 103.597C510.794 104.628 510.794 105.566 510.794 106.597C510.794 106.878 510.702 106.972 510.61 107.065C510.333 107.253 509.965 107.44 509.689 107.534C509.228 107.815 508.767 108.003 508.399 108.284C508.215 108.378 508.215 108.284 508.215 108.096C508.215 107.065 508.215 106.128 508.215 105.097C508.215 104.909 508.307 104.722 508.399 104.628C508.583 104.534 508.767 104.441 508.952 104.347C509.136 104.253 509.32 104.16 509.504 104.066C509.689 103.972 509.873 103.878 510.057 103.785C510.241 103.691 510.425 103.503 510.61 103.41Z" fill="white"/>
<path d="M516.412 93.5669C516.412 99.2846 516.32 104.909 516.32 110.533C516.32 110.908 516.228 111.095 515.952 111.282C515.031 111.751 514.11 112.314 513.097 112.782C511.899 113.438 510.61 114.094 509.412 114.751C508.215 115.407 506.926 116.063 505.728 116.719C504.807 117.188 503.886 117.75 502.965 118.219C502.597 118.406 502.597 118.312 502.597 117.938C502.689 112.22 502.689 106.596 502.689 100.878C502.689 100.409 502.781 100.316 503.057 100.128C505.176 99.0034 507.386 97.7849 509.597 96.6601C511.807 95.4416 513.926 94.3168 516.136 93.0983C516.32 93.0983 516.412 93.192 516.412 93.5669ZM513.557 108.564C513.557 105.284 513.557 101.909 513.649 98.6285C513.649 98.2536 513.557 98.2536 513.281 98.3473C511.991 99.0034 510.702 99.7533 509.505 100.409C508.215 101.066 506.926 101.815 505.728 102.472C505.452 102.659 505.36 102.753 505.36 103.034C505.36 106.315 505.36 109.689 505.268 112.97C505.268 113.345 505.36 113.345 505.636 113.251C506.189 112.97 506.741 112.688 507.294 112.407C508.031 112.032 508.768 111.657 509.412 111.282C510.149 110.908 510.886 110.533 511.623 110.064C512.176 109.783 512.728 109.502 513.281 109.22C513.557 109.033 513.557 108.939 513.557 108.564Z" fill="white"/>
<path d="M480.399 119.719C480.583 119.625 480.583 119.719 480.583 119.906C480.583 120.937 480.583 121.875 480.583 122.906C480.583 123.093 480.491 123.281 480.399 123.374C480.03 123.562 479.662 123.749 479.293 123.937C478.925 124.124 478.557 124.312 478.188 124.593C478.004 124.687 478.004 124.593 478.004 124.405C478.004 123.374 478.004 122.437 478.004 121.406C478.004 121.219 478.004 121.031 478.188 120.937C478.28 120.844 478.464 120.844 478.557 120.75C478.833 120.656 479.109 120.469 479.293 120.281C479.57 120.187 479.754 120 480.03 119.906C480.122 119.906 480.214 119.906 480.399 119.719C480.399 119.813 480.399 119.813 480.399 119.719Z" fill="white"/>
<path d="M751.346 36.4053C751.346 36.4053 752.468 38.7618 740.098 44.8378C726.275 52.3822 688.023 73.7127 688.023 73.7127C684.656 75.6174 681.76 75.8515 676.699 72.2123C676.699 72.2123 656.451 60.1568 650.491 56.3473C641.488 51.3886 642.005 49.6321 642.005 49.6321V59.7943C641.943 61.5181 643.773 63.0504 646.533 64.721L676.699 82.2361C681.76 85.8753 684.656 85.6412 688.023 83.7365L746.776 51.6965C749.045 50.4089 751.597 48.4616 751.304 46.2908H751.335V36.4053H751.346Z" fill="white"/>
<path fill-rule="evenodd" clip-rule="evenodd" d="M697.432 19.2846C694.009 19.4461 691.152 20.5713 687.795 22.3948L687.385 21.6137C690.794 19.7622 693.784 18.5704 697.392 18.4002L713.818 17.5595C718.638 17.368 721.221 17.5595 724.212 19.3259L748.533 33.0315C754.179 36.3941 750.153 39.7673 746.786 41.672L688.033 73.7121C684.666 75.6168 681.77 75.8509 676.709 72.2117L646.533 54.6966C641.639 51.7278 639.663 49.1952 646.02 45.2581L676.845 27.6366L677.271 28.4085L646.46 46.0223C644.916 46.9798 643.956 47.8062 643.42 48.5157C642.901 49.2033 642.819 49.7235 642.909 50.1572C643.009 50.6406 643.362 51.2038 644.08 51.868C644.787 52.523 645.767 53.2007 646.971 53.9319L677.14 71.4426L677.211 71.4887C679.682 73.2651 681.522 74.02 683.082 74.1589C684.621 74.2959 686.008 73.8449 687.611 72.9383L687.622 72.9317L746.37 40.8949C747.183 40.4346 748.015 39.8968 748.722 39.3067C749.439 38.708 749.975 38.0982 750.258 37.5096C750.525 36.9534 750.562 36.4359 750.323 35.8973C750.064 35.3154 749.431 34.594 748.102 33.8009L723.79 20.1005L723.775 20.0916C721.012 18.4595 718.644 18.254 713.857 18.444C713.855 18.4441 713.854 18.4441 713.852 18.4442L697.432 19.2846Z" fill="white"/>
<path d="M683.61 31.892C686.065 30.5086 689.92 30.4467 692.192 31.7888L699.334 35.9597L675.555 49.381L675.514 48.8441C675.474 48.1421 675.17 47.4607 674.622 46.8413C674.094 46.2218 673.323 45.7056 672.37 45.272C671.416 44.859 670.341 44.5493 669.144 44.4048C667.947 44.2602 666.709 44.2396 665.593 44.3841L661.028 44.6526L683.61 31.892Z" fill="#38FFA6"/>
<path d="M658.695 45.9325L665.735 45.5195C666.689 45.4163 667.622 45.4163 668.535 45.5195C669.448 45.6434 670.28 45.8705 671.01 46.2009C671.741 46.5313 672.329 46.9236 672.755 47.3985C673.181 47.8734 673.404 48.3896 673.445 48.9471L673.526 50.4751L661.596 57.2063L654.515 53.0354C652.243 51.7139 652.385 49.5046 654.86 48.1212L658.715 45.9531L658.695 45.9325Z" fill="#38FFA6"/>
<path d="M700.693 36.7433L708.931 41.5544L699.091 47.1087L698.888 45.4981C698.766 44.3419 697.894 43.2475 696.473 42.4422C695.439 41.8641 694.14 41.4511 692.72 41.2446L700.693 36.7433Z" fill="#38FFA6"/>
<path d="M690.914 42.2776C692.476 42.3189 693.917 42.6906 695.012 43.31C696.108 43.9295 696.777 44.7554 696.879 45.6639L697.163 48.2036L685.801 54.6045L681.398 54.3774C679.836 54.2948 678.375 53.9025 677.32 53.2624C676.265 52.643 675.656 51.7757 675.595 50.8879L690.873 42.257L690.914 42.2776Z" fill="#38FFA6"/>
<path d="M673.81 51.9205C674.135 52.7464 674.824 53.4897 675.819 54.0885C677.198 54.9144 679.085 55.4307 681.114 55.5339L683.894 55.6784L671.233 62.8227L662.996 58.0117L673.79 51.9205H673.81Z" fill="#38FFA6"/>
<path d="M710.31 42.3607L716.722 46.098C718.994 47.4194 718.852 49.6288 716.377 51.0122L714.023 52.3337L706.658 52.1685C705.766 52.2511 704.873 52.2305 704 52.0859C703.128 51.962 702.357 51.7349 701.667 51.4252C700.977 51.1155 700.409 50.7231 700.003 50.2895C699.598 49.8353 699.354 49.3397 699.314 48.8442L699.273 48.5964L710.331 42.3607H710.31Z" fill="#38FFA6"/>
<path d="M697.447 49.6085C697.589 50.0421 697.833 50.4757 698.178 50.868C698.725 51.4668 699.436 51.9623 700.328 52.3753C701.221 52.7676 702.256 53.0773 703.372 53.2219C704.488 53.3871 705.664 53.4284 706.638 53.3251L712.035 53.449L694.891 63.1123L694.607 60.139C694.789 59.4989 694.749 58.8588 694.505 58.2187C694.221 57.558 693.734 56.9798 693.044 56.4636C692.355 55.9268 691.482 55.5138 690.468 55.2041C689.778 54.9976 689.027 54.8531 688.276 54.7705L697.447 49.6085Z" fill="#38FFA6"/>
<path d="M686.491 55.8024H686.937C687.83 55.8644 688.682 56.0089 689.453 56.2567C690.224 56.5045 690.894 56.8142 691.441 57.2272C691.969 57.6195 692.354 58.0737 692.537 58.5693C692.74 59.0855 692.78 59.5811 692.618 60.0973V60.2211L692.983 64.2062L687.647 67.2209C685.192 68.6043 681.337 68.6662 679.065 67.3241L672.653 63.5868L686.511 55.7818L686.491 55.8024Z" fill="#38FFA6"/>
<path d="M824.888 173.545L826.926 177.138L828.985 173.539L831.972 175.29L829.91 178.901L834.007 178.895L833.998 182.397L829.894 182.402L831.928 186.007L828.943 187.748L826.905 184.156L824.846 187.755L821.866 186.006L823.928 182.394L819.831 182.401L819.84 178.898L823.937 178.892L821.903 175.286L824.888 173.545Z" fill="#38FFA6"/>
<path d="M844.911 173.545L846.949 177.138L849.008 173.539L851.995 175.29L849.933 178.901L854.029 178.895L854.021 182.397L849.917 182.402L851.951 186.007L848.966 187.748L846.928 184.156L844.869 187.755L841.889 186.006L843.951 182.394L839.854 182.401L839.863 178.898L843.96 178.892L841.926 175.286L844.911 173.545Z" fill="#38FFA6"/>
<path d="M864.934 173.545L866.972 177.138L869.031 173.539L872.018 175.29L869.956 178.901L874.053 178.895L874.044 182.397L869.94 182.402L871.975 186.007L868.989 187.748L866.951 184.156L864.892 187.755L861.912 186.006L863.975 182.394L859.878 182.401L859.887 178.898L863.984 178.892L861.949 175.286L864.934 173.545Z" fill="#38FFA6"/>
<path d="M884.957 173.545L886.995 177.138L889.054 173.539L892.041 175.29L889.979 178.901L894.075 178.895L894.066 182.397L889.963 182.402L891.997 186.007L889.012 187.748L886.974 184.156L884.915 187.755L881.935 186.006L883.997 182.394L879.9 182.401L879.909 178.898L884.006 178.892L881.971 175.286L884.957 173.545Z" fill="#38FFA6"/>
<path d="M857.227 115.987C864.548 115.987 870.532 122.141 870.532 129.709C870.532 135.281 867.304 140.104 862.659 142.266C869.981 143.763 876.801 148.697 880.265 155.267C879.477 156.431 878.611 157.346 877.745 158.26C871.211 164.581 863.112 166.013 858.781 166.013C858.23 166.013 857.433 166.096 856.961 166.013C846.018 165.597 838.046 159.085 835.842 156.008C837.023 153.679 839.355 150.832 841.166 149.003C841.796 148.337 843.528 146.674 845.102 145.759C847.307 144.262 849.826 143.181 852.424 142.516C847.464 140.52 844 135.53 844 129.792C843.921 122.141 849.826 115.987 857.227 115.987Z" fill="white"/>
<path fill-rule="evenodd" clip-rule="evenodd" d="M859.489 142.639L862.237 141.36C866.53 139.361 869.532 134.891 869.532 129.709C869.532 122.665 863.968 116.987 857.227 116.987C850.412 116.987 844.927 122.657 845 129.782L845 129.792H845C845 135.127 848.221 139.747 852.797 141.588L855.629 142.728L852.672 143.485C850.173 144.125 847.762 145.162 845.664 146.587L845.635 146.606L845.605 146.624C844.156 147.465 842.503 149.045 841.892 149.69L841.884 149.698L841.877 149.706C840.246 151.353 838.214 153.816 837.029 155.91C838.192 157.316 840.46 159.345 843.618 161.139C847.143 163.14 851.717 164.813 856.999 165.013L857.067 165.016L857.134 165.028C857.256 165.049 857.478 165.055 857.81 165.044C857.901 165.042 858.005 165.037 858.113 165.033C858.338 165.023 858.584 165.013 858.781 165.013C862.937 165.013 870.744 163.631 877.034 157.557C877.764 156.786 878.452 156.056 879.088 155.198C875.688 149.173 869.301 144.645 862.459 143.246L859.489 142.639ZM880.265 155.267C879.477 156.431 878.611 157.346 877.745 158.26C871.211 164.581 863.112 166.013 858.781 166.013C858.604 166.013 858.4 166.021 858.19 166.03C857.75 166.049 857.281 166.069 856.961 166.013C846.018 165.597 838.046 159.085 835.842 156.008C837.023 153.679 839.355 150.832 841.166 149.003C841.796 148.337 843.528 146.674 845.102 145.759C846.886 144.548 848.876 143.609 850.947 142.942C851.435 142.785 851.928 142.643 852.424 142.516C851.95 142.325 851.49 142.107 851.045 141.864C846.834 139.56 844 134.982 844 129.792C843.921 122.141 849.826 115.987 857.227 115.987C864.548 115.987 870.532 122.141 870.532 129.709C870.532 134.728 867.912 139.14 863.997 141.547C863.566 141.812 863.119 142.052 862.659 142.266C863.158 142.368 863.655 142.486 864.148 142.62C870.895 144.443 877.037 149.145 880.265 155.267Z" fill="white"/>
<path fill-rule="evenodd" clip-rule="evenodd" d="M848.535 105.283H853.153C853.653 105.202 854.174 105.092 854.706 104.979C855.81 104.744 856.959 104.5 858.053 104.5H853.684C853.072 104.5 850.881 104.878 849.331 105.146C849.038 105.197 848.767 105.243 848.535 105.283ZM846.834 107.097L846.834 107.097C836.059 111.631 828.443 122.597 828.443 135.376C828.443 152.195 841.649 165.881 857.852 165.881H853.153C836.95 165.881 823.826 152.195 823.826 135.376C823.826 122.597 831.441 111.631 842.216 107.097L842.216 107.097C844.241 106.272 846.348 105.613 848.535 105.283H853.153C850.966 105.613 848.859 106.272 846.834 107.097Z" fill="#38FFA6"/>
<path fill-rule="evenodd" clip-rule="evenodd" d="M857.851 105.371C841.942 105.371 828.943 118.815 828.943 135.376C828.943 151.936 841.942 165.381 857.851 165.381C865.483 165.381 872.564 162.228 877.741 157.128L880.312 154.185C884.289 149.079 886.678 142.513 886.678 135.376C886.678 126.246 882.75 118.059 876.557 112.552L877.222 111.805C883.624 117.498 887.678 125.955 887.678 135.376C887.678 142.743 885.21 149.529 881.092 154.811L881.083 154.821L878.469 157.814L878.456 157.827C873.102 163.108 865.768 166.381 857.851 166.381C841.356 166.381 827.943 152.453 827.943 135.376C827.943 118.298 841.356 104.371 857.851 104.371C862.424 104.371 866.757 105.442 870.63 107.356L870.187 108.252C866.448 106.405 862.266 105.371 857.851 105.371Z" fill="white"/>
<path fill-rule="evenodd" clip-rule="evenodd" d="M980.867 27.4723C980.547 27.391 980.268 27.269 980.018 27.1063V37.821L983.534 46.4111L987.52 43.707L980.867 27.4723Z" fill="#38FFA6"/>
<path fill-rule="evenodd" clip-rule="evenodd" d="M1033.23 25.673L1029.53 43.0056L1031.82 44.2255L1033.68 36.0725V25.5306C1033.53 25.5916 1033.39 25.6323 1033.24 25.673H1033.23Z" fill="#38FFA6"/>
<path fill-rule="evenodd" clip-rule="evenodd" d="M1051.56 55.5095L1023.19 58.6406L1012.09 74.5703L997.219 58.8337L968.9 56.7802L968.41 56.7904L968.331 68.2472L997.219 70.3312L1012.09 86.0678L1023.19 70.1381L1052.52 66.9054L1052.7 55.5604L1051.56 55.5095Z" fill="#38FFA6"/>
<path fill-rule="evenodd" clip-rule="evenodd" d="M1008.1 34.023L1033.02 24.959L1033.68 25.5287L1030.17 42.7811L1052.93 54.967L1052.75 55.9048L1023.52 59.1228L1012.5 74.9374L1011.73 74.9949L996.939 59.3386L968.374 57.2585L968.129 56.3461L986.803 43.6736L979.984 27.0418L980.581 26.3704L1008.1 34.023ZM1032.52 26.2039L1008.14 35.0723L981.297 27.6075L988.036 44.0453L969.881 56.3656L997.399 58.3694L1012.03 73.8613L1022.96 58.1785L1051.04 55.0873L1029.04 43.3113L1032.52 26.2039Z" fill="white"/>
<path fill-rule="evenodd" clip-rule="evenodd" d="M952.424 16.281C950.328 17.4139 949.075 18.7994 948.656 20.4053C948.186 22.2168 948.777 24.3236 950.456 26.6793C952.131 29.0303 954.843 31.5587 958.46 34.1673C963.928 38.1119 971.412 42.2025 980.357 46.1127L979.957 47.0289C970.971 43.1014 963.42 38.9779 957.875 34.9784C954.215 32.338 951.406 29.7354 949.641 27.2597C947.88 24.789 947.112 22.3735 947.688 20.1537L947.688 20.1533C948.202 18.1835 949.711 16.6105 951.949 15.4012C954.186 14.1924 957.201 13.3174 960.839 12.7576C968.117 11.6375 978.006 11.7624 989.449 13.1126L989.332 14.1057C977.934 12.7608 968.145 12.6451 960.991 13.746C957.412 14.2967 954.522 15.1477 952.424 16.281ZM984.603 47.9095C990.498 50.3262 996.932 52.6498 1003.77 54.7997L1003.47 55.7536C996.607 53.5958 990.147 51.2628 984.224 48.8348L984.603 47.9095Z" fill="white"/>
<path d="M1002.37 7.08159L1001.43 12.5769L1004.99 16.8667L999.493 15.9279L995.203 19.4886L996.142 13.9932L992.582 9.70349L998.077 10.6422L1002.37 7.08159Z" fill="white"/>
</svg>
