<svg width="331" height="724" viewBox="0 0 331 724" fill="none" xmlns="http://www.w3.org/2000/svg">
<path fill-rule="evenodd" clip-rule="evenodd" d="M323.5 14V16.8869H322.5V14H323.5ZM323.5 22.6607V28.4345H322.5V22.6607H323.5ZM323.5 34.2083V39.9821H322.5V34.2083H323.5ZM323.5 45.7559V51.5297H322.5V45.7559H323.5ZM323.5 57.3035V63.0773H322.5V57.3035H323.5ZM323.5 68.8511V74.6249H322.5V68.8511H323.5ZM323.5 80.3987V86.1725H322.5V80.3987H323.5ZM323.5 91.9464V97.7202H322.5V91.9464H323.5ZM323.5 103.494V106.381C323.5 107.215 323.418 108.031 323.262 108.82L322.281 108.626C322.425 107.9 322.5 107.15 322.5 106.381V103.494H323.5ZM321.394 113.326C320.482 114.689 319.308 115.863 317.945 116.775L317.389 115.944C318.643 115.104 319.723 114.024 320.563 112.77L321.394 113.326ZM313.439 118.643C312.65 118.799 311.834 118.881 311 118.881H307.969V117.881H311C311.769 117.881 312.519 117.806 313.245 117.662L313.439 118.643ZM19.9999 118.881C19.2312 118.881 18.4806 118.956 17.755 119.1L17.5609 118.119C18.3501 117.963 19.1657 117.881 19.9999 117.881H23.0311V118.881H19.9999ZM35.1561 118.881H29.0936V117.881H35.1561V118.881ZM47.2811 118.881H41.2186V117.881H47.2811V118.881ZM59.4061 118.881H53.3436V117.881H59.4061V118.881ZM71.5311 118.881H65.4686V117.881H71.5311V118.881ZM83.6561 118.881H77.5936V117.881H83.6561V118.881ZM95.7811 118.881H89.7186V117.881H95.7811V118.881ZM107.906 118.881H101.844V117.881H107.906V118.881ZM120.031 118.881H113.969V117.881H120.031V118.881ZM132.156 118.881H126.094V117.881H132.156V118.881ZM144.281 118.881H138.219V117.881H144.281V118.881ZM156.406 118.881H150.344V117.881H156.406V118.881ZM162.469 118.881V117.881H168.531V118.881H162.469ZM180.656 118.881H174.594V117.881H180.656V118.881ZM192.781 118.881H186.719V117.881H192.781V118.881ZM204.906 118.881H198.844V117.881H204.906V118.881ZM217.031 118.881H210.969V117.881H217.031V118.881ZM229.156 118.881H223.094V117.881H229.156V118.881ZM241.281 118.881H235.219V117.881H241.281V118.881ZM253.406 118.881H247.344V117.881H253.406V118.881ZM265.531 118.881H259.469V117.881H265.531V118.881ZM277.656 118.881H271.594V117.881H277.656V118.881ZM289.781 118.881H283.719V117.881H289.781V118.881ZM301.906 118.881H295.844V117.881H301.906V118.881ZM13.6107 120.818C12.3563 121.657 11.2763 122.737 10.4366 123.992L9.60561 123.435C10.5181 122.072 11.6914 120.899 13.0543 119.987L13.6107 120.818ZM8.71878 128.136C8.57522 128.862 8.49988 129.612 8.49988 130.381V133.541H7.49988V130.381C7.49988 129.547 7.58166 128.731 7.73779 127.942L8.71878 128.136ZM8.49988 139.861V146.181H7.49988V139.861H8.49988ZM8.49988 152.501V158.821H7.49988V152.501H8.49988ZM8.49988 165.141V171.461H7.49988V165.141H8.49988ZM8.49988 177.78V184.1H7.49988V177.78H8.49988ZM8.49988 190.42V196.74H7.49988V190.42H8.49988ZM8.49988 203.06V209.38H7.49988V203.06H8.49988ZM8.49988 215.7V222.02H7.49988V215.7H8.49988ZM8.49988 228.34V231.5C8.49988 232.269 8.57522 233.019 8.71878 233.745L7.73779 233.939C7.58166 233.15 7.49988 232.334 7.49988 231.5V228.34H8.49988ZM10.4366 237.889C11.2763 239.144 12.3563 240.224 13.6106 241.063L13.0543 241.894C11.6914 240.982 10.5181 239.808 9.60561 238.446L10.4366 237.889ZM17.755 242.781C18.4806 242.925 19.2312 243 19.9999 243H23.0311V244H19.9999C19.1657 244 18.3501 243.918 17.5609 243.762L17.755 242.781ZM29.0936 243H35.1561V244H29.0936V243ZM41.2186 243H47.2811V244H41.2186V243ZM53.3436 243H59.4061V244H53.3436V243ZM65.4687 243H71.5311V244H65.4687V243ZM77.5936 243H83.6561V244H77.5936V243ZM89.7187 243H95.7811V244H89.7187V243ZM101.844 243H107.906V244H101.844V243ZM113.969 243H120.031V244H113.969V243ZM126.094 243H132.156V244H126.094V243ZM138.219 243H144.281V244H138.219V243ZM150.344 243H156.406V244H150.344V243ZM162.469 244V243H168.531V244H162.469ZM174.594 243H180.656V244H174.594V243ZM186.719 243H192.781V244H186.719V243ZM198.844 243H204.906V244H198.844V243ZM210.969 243H217.031V244H210.969V243ZM223.094 243H229.156V244H223.094V243ZM235.219 243H241.281V244H235.219V243ZM247.344 243H253.406V244H247.344V243ZM259.469 243H265.531V244H259.469V243ZM271.594 243H277.656V244H271.594V243ZM283.719 243H289.781V244H283.719V243ZM295.844 243H301.906V244H295.844V243ZM307.969 243H311C311.834 243 312.65 243.082 313.439 243.238L313.245 244.219C312.519 244.075 311.769 244 311 244H307.969V243ZM317.945 245.106C319.308 246.018 320.482 247.192 321.394 248.554L320.563 249.111C319.723 247.856 318.643 246.776 317.389 245.937L317.945 245.106ZM323.262 253.061C323.418 253.85 323.5 254.666 323.5 255.5V258.469H322.5V255.5C322.5 254.731 322.425 253.981 322.281 253.255L323.262 253.061ZM323.5 264.406V270.344H322.5V264.406H323.5ZM323.5 276.281V282.219H322.5V276.281H323.5ZM323.5 288.156V294.094H322.5V288.156H323.5ZM323.5 300.031V305.969H322.5V300.031H323.5ZM323.5 311.906V317.844H322.5V311.906H323.5ZM323.5 323.781V329.719H322.5V323.781H323.5ZM323.5 335.656V341.594H322.5V335.656H323.5ZM323.5 347.531V353.469H322.5V347.531H323.5ZM323.5 359.406V365.344H322.5V359.406H323.5ZM323.5 371.281V377.219H322.5V371.281H323.5ZM323.5 383.156V389.094H322.5V383.156H323.5ZM323.5 395.031V398C323.5 398.834 323.418 399.65 323.262 400.439L322.281 400.245C322.425 399.519 322.5 398.769 322.5 398V395.031H323.5ZM321.394 404.946C320.482 406.308 319.308 407.482 317.945 408.394L317.389 407.563C318.643 406.724 319.723 405.644 320.563 404.389L321.394 404.946ZM313.439 410.262C312.65 410.418 311.834 410.5 311 410.5H307.969V409.5H311C311.769 409.5 312.519 409.425 313.245 409.281L313.439 410.262ZM19.9999 410.5C19.2312 410.5 18.4806 410.575 17.755 410.719L17.5609 409.738C18.3501 409.582 19.1657 409.5 19.9999 409.5H23.0311V410.5H19.9999ZM35.1561 410.5H29.0936V409.5H35.1561V410.5ZM47.2811 410.5H41.2186V409.5H47.2811V410.5ZM59.4061 410.5H53.3436V409.5H59.4061V410.5ZM71.5311 410.5H65.4686V409.5H71.5311V410.5ZM83.6561 410.5H77.5936V409.5H83.6561V410.5ZM95.7811 410.5H89.7186V409.5H95.7811V410.5ZM107.906 410.5H101.844V409.5H107.906V410.5ZM120.031 410.5H113.969V409.5H120.031V410.5ZM132.156 410.5H126.094V409.5H132.156V410.5ZM144.281 410.5H138.219V409.5H144.281V410.5ZM156.406 410.5H150.344V409.5H156.406V410.5ZM168.531 410.5H162.469V409.5H168.531V410.5ZM180.656 410.5H174.594V409.5H180.656V410.5ZM192.781 410.5H186.719V409.5H192.781V410.5ZM204.906 410.5H198.844V409.5H204.906V410.5ZM217.031 410.5H210.969V409.5H217.031V410.5ZM229.156 410.5H223.094V409.5H229.156V410.5ZM241.281 410.5H235.219V409.5H241.281V410.5ZM253.406 410.5H247.344V409.5H253.406V410.5ZM265.531 410.5H259.469V409.5H265.531V410.5ZM277.656 410.5H271.594V409.5H277.656V410.5ZM289.781 410.5H283.719V409.5H289.781V410.5ZM301.906 410.5H295.844V409.5H301.906V410.5ZM13.6107 412.437C12.3563 413.276 11.2763 414.356 10.4366 415.611L9.60562 415.054C10.5181 413.692 11.6914 412.518 13.0543 411.606L13.6107 412.437ZM8.71879 419.755C8.57523 420.481 8.49989 421.231 8.49989 422L8.49989 425.089H7.49989L7.49989 422C7.49989 421.166 7.58167 420.35 7.7378 419.561L8.71879 419.755ZM8.49989 431.268L8.49989 437.446H7.49989L7.49989 431.268H8.49989ZM8.49989 443.625L8.4999 449.804H7.4999L7.49989 443.625H8.49989ZM8.4999 455.982L8.4999 462.161H7.4999L7.4999 455.982H8.4999ZM8.4999 468.339L8.49991 474.518H7.49991L7.4999 468.339H8.4999ZM8.49991 480.696L8.49991 486.875H7.49991L7.49991 480.696H8.49991ZM8.49991 493.054L8.49991 499.232H7.49991L7.49991 493.054H8.49991ZM8.49992 505.411L8.49992 508.5C8.49992 509.269 8.57526 510.019 8.71882 510.745L7.73783 510.939C7.5817 510.15 7.49992 509.334 7.49992 508.5L7.49992 505.411H8.49992ZM10.4366 514.889C11.2764 516.144 12.3564 517.224 13.6107 518.063L13.0544 518.894C11.6914 517.982 10.5181 516.808 9.60565 515.446L10.4366 514.889ZM17.755 519.781C18.4807 519.925 19.2312 520 19.9999 520H23.0312V521H19.9999C19.1657 521 18.3502 520.918 17.5609 520.762L17.755 519.781ZM29.0937 520H35.1562V521H29.0937V520ZM41.2187 520H47.2812V521H41.2187V520ZM53.3437 520H59.4062V521H53.3437V520ZM65.4687 520H71.5312V521H65.4687V520ZM77.5937 520H83.6562V521H77.5937V520ZM89.7187 520H95.7812V521H89.7187V520ZM101.844 520H107.906V521H101.844V520ZM113.969 520H120.031V521H113.969V520ZM126.094 520H132.156V521H126.094V520ZM138.219 520H144.281V521H138.219V520ZM150.344 520H156.406V521H150.344V520ZM162.469 520H168.531V521H162.469V520ZM174.594 520H180.656V521H174.594V520ZM186.719 520H192.781V521H186.719V520ZM198.844 520H204.906V521H198.844V520ZM210.969 520H217.031V521H210.969V520ZM223.094 520H229.156V521H223.094V520ZM235.219 520H241.281V521H235.219V520ZM247.344 520H253.406V521H247.344V520ZM259.469 520H265.531V521H259.469V520ZM271.594 520H277.656V521H271.594V520ZM283.719 520H289.781V521H283.719V520ZM295.844 520H301.906V521H295.844V520ZM307.969 520H311C311.834 520 312.65 520.082 313.439 520.238L313.245 521.219C312.519 521.075 311.769 521 311 521H307.969V520ZM317.945 522.106C319.308 523.018 320.482 524.192 321.394 525.554L320.563 526.111C319.724 524.856 318.643 523.776 317.389 522.937L317.945 522.106ZM323.262 530.061C323.418 530.85 323.5 531.666 323.5 532.5V535.357H322.5V532.5C322.5 531.731 322.425 530.981 322.281 530.255L323.262 530.061ZM323.5 541.071V546.786H322.5V541.071H323.5ZM323.5 552.5V558.214H322.5V552.5H323.5ZM323.5 563.929V569.643H322.5V563.929H323.5ZM323.5 575.357V581.071H322.5V575.357H323.5ZM323.5 586.786V592.5H322.5V586.786H323.5ZM323.5 598.214V603.929H322.5V598.214H323.5ZM323.5 609.643V612.5C323.5 613.334 323.418 614.15 323.262 614.939L322.281 614.745C322.425 614.019 322.5 613.269 322.5 612.5V609.643H323.5ZM321.394 619.446C320.482 620.808 319.308 621.982 317.945 622.894L317.389 622.063C318.643 621.224 319.723 620.144 320.563 618.889L321.394 619.446ZM313.439 624.762C312.65 624.918 311.834 625 311 625H307.969V624H311C311.769 624 312.519 623.925 313.245 623.781L313.439 624.762ZM19.9999 625C19.2312 625 18.4807 625.075 17.755 625.219L17.5609 624.238C18.3502 624.082 19.1657 624 19.9999 624H23.0312V625H19.9999ZM35.1562 625H29.0937V624H35.1562V625ZM47.2812 625H41.2187V624H47.2812V625ZM59.4062 625H53.3437V624H59.4062V625ZM71.5312 625H65.4687V624H71.5312V625ZM83.6562 625H77.5937V624H83.6562V625ZM95.7812 625H89.7187V624H95.7812V625ZM107.906 625H101.844V624H107.906V625ZM120.031 625H113.969V624H120.031V625ZM132.156 625H126.094V624H132.156V625ZM144.281 625H138.219V624H144.281V625ZM156.406 625H150.344V624H156.406V625ZM168.531 625H162.469V624H168.531V625ZM180.656 625H174.594V624H180.656V625ZM192.781 625H186.719V624H192.781V625ZM204.906 625H198.844V624H204.906V625ZM217.031 625H210.969V624H217.031V625ZM229.156 625H223.094V624H229.156V625ZM241.281 625H235.219V624H241.281V625ZM253.406 625H247.344V624H253.406V625ZM265.531 625H259.469V624H265.531V625ZM277.656 625H271.594V624H277.656V625ZM289.781 625H283.719V624H289.781V625ZM301.906 625H295.844V624H301.906V625ZM13.6107 626.937C12.3564 627.776 11.2764 628.856 10.4366 630.111L9.60565 629.554C10.5181 628.192 11.6914 627.018 13.0544 626.106L13.6107 626.937ZM8.71883 634.255C8.57527 634.981 8.49992 635.731 8.49992 636.5V639.321H7.49992V636.5C7.49992 635.666 7.5817 634.85 7.73784 634.061L8.71883 634.255ZM8.49992 644.964V650.607H7.49992V644.964H8.49992ZM8.49992 656.25V661.893H7.49992V656.25H8.49992ZM8.49992 667.536V673.179H7.49992V667.536H8.49992ZM8.49992 678.821V684.464H7.49992V678.821H8.49992ZM8.49992 690.107V695.75H7.49992V690.107H8.49992ZM8.49992 701.393V707.036H7.49992V701.393H8.49992ZM8.49992 712.679V715.5H7.49992V712.679H8.49992Z" fill="white"/>
<path d="M323 15C326.866 15 330 11.866 330 8.00002C330 4.13403 326.866 1 323 1C319.134 1 316 4.13403 316 8.00002C316 11.866 319.134 15 323 15Z" fill="#1F2229"/>
<path fill-rule="evenodd" clip-rule="evenodd" d="M323 2C319.686 2 317 4.68631 317 8.00002C317 11.3137 319.686 14.0001 323 14.0001C326.314 14.0001 329 11.3137 329 8.00002C329 4.68631 326.314 2 323 2ZM315 8.00002C315 3.58175 318.582 0 323 0C327.418 0 331 3.58175 331 8.00002C331 12.4183 327.418 16 323 16C318.582 16 315 12.4183 315 8.00002Z" fill="white"/>
<path d="M8 188.381C11.866 188.381 15 185.247 15 181.381C15 177.515 11.866 174.381 8 174.381C4.13401 174.381 1 177.515 1 181.381C1 185.247 4.13401 188.381 8 188.381Z" fill="#1F2229"/>
<path fill-rule="evenodd" clip-rule="evenodd" d="M8 175.381C4.6863 175.381 2 178.067 2 181.381C2 184.695 4.6863 187.381 8 187.381C11.3137 187.381 14 184.695 14 181.381C14 178.067 11.3137 175.381 8 175.381ZM0 181.381C0 176.963 3.58172 173.381 8 173.381C12.4183 173.381 16 176.963 16 181.381C16 185.799 12.4183 189.381 8 189.381C3.58172 189.381 0 185.799 0 181.381Z" fill="white"/>
<path d="M323 332C326.866 332 330 328.866 330 325C330 321.134 326.866 318 323 318C319.134 318 316 321.134 316 325C316 328.866 319.134 332 323 332Z" fill="#1F2229"/>
<path fill-rule="evenodd" clip-rule="evenodd" d="M323 319C319.686 319 317 321.686 317 325C317 328.314 319.686 331 323 331C326.314 331 329 328.314 329 325C329 321.686 326.314 319 323 319ZM315 325C315 320.582 318.582 317 323 317C327.418 317 331 320.582 331 325C331 329.418 327.418 333 323 333C318.582 333 315 329.418 315 325Z" fill="white"/>
<path d="M8.4 471.8C11.9346 471.8 14.8 468.935 14.8 465.4C14.8 461.865 11.9346 459 8.4 459C4.86538 459 2 461.865 2 465.4C2 468.935 4.86538 471.8 8.4 471.8Z" fill="#1F2229"/>
<path fill-rule="evenodd" clip-rule="evenodd" d="M8.4 460C5.41767 460 3 462.418 3 465.4C3 468.382 5.41767 470.8 8.4 470.8C11.3823 470.8 13.8 468.382 13.8 465.4C13.8 462.418 11.3823 460 8.4 460ZM1 465.4C1 461.313 4.31309 458 8.4 458C12.4869 458 15.8 461.313 15.8 465.4C15.8 469.487 12.4869 472.8 8.4 472.8C4.31309 472.8 1 469.487 1 465.4Z" fill="white"/>
<path d="M322 577C325.866 577 329 573.866 329 570C329 566.134 325.866 563 322 563C318.134 563 315 566.134 315 570C315 573.866 318.134 577 322 577Z" fill="#1F2229"/>
<path fill-rule="evenodd" clip-rule="evenodd" d="M322 564C318.686 564 316 566.686 316 570C316 573.314 318.686 576 322 576C325.314 576 328 573.314 328 570C328 566.686 325.314 564 322 564ZM314 570C314 565.582 317.582 562 322 562C326.418 562 330 565.582 330 570C330 574.418 326.418 578 322 578C317.582 578 314 574.418 314 570Z" fill="white"/>
<path d="M9 723C12.866 723 16 719.866 16 716C16 712.134 12.866 709 9 709C5.13401 709 2 712.134 2 716C2 719.866 5.13401 723 9 723Z" fill="#1F2229"/>
<path fill-rule="evenodd" clip-rule="evenodd" d="M9 710C5.6863 710 3 712.686 3 716C3 719.314 5.6863 722 9 722C12.3137 722 15 719.314 15 716C15 712.686 12.3137 710 9 710ZM1 716C1 711.582 4.58172 708 9 708C13.4183 708 17 711.582 17 716C17 720.418 13.4183 724 9 724C4.58172 724 1 720.418 1 716Z" fill="white"/>
<path d="M20 57.9323V51.9079C20 52.9863 20.7773 54.2637 22.8711 55.4646C30.24 59.7228 42.377 66.7092 49.7459 70.9419C53.2136 72.9562 58.4917 73.1602 61.5005 71.4263C69.0734 67.0662 89.7807 54.0719 97.3536 49.7118C98.6226 48.9805 99.2883 48.0179 99.3738 47L99.3819 53.5123C99.4334 54.6694 98.7648 55.7751 97.3248 56.598C89.688 60.995 69.0529 73.2668 61.416 77.6638C58.3818 79.4123 53.0591 79.2066 49.5621 77.1752C42.1309 72.9068 29.8913 65.8613 22.46 61.5672C20.583 60.5129 20.0514 59.2437 20 57.9323Z" fill="white"/>
<path fill-rule="evenodd" clip-rule="evenodd" d="M97.1039 49.2786C98.2761 48.6031 98.8076 47.7669 98.8755 46.9582L99.8738 46.9994L99.8819 53.5014C99.9392 54.8944 99.1193 56.148 97.5739 57.0315C93.7582 59.2284 86.6934 63.3937 79.6243 67.5616L79.6214 67.5633C72.5557 71.7292 65.4862 75.8973 61.6655 78.0971C60.0416 79.0328 57.8502 79.4258 55.6424 79.3365C53.4302 79.2471 51.1432 78.6716 49.312 77.6081C41.8813 73.34 29.6441 66.2959 22.2125 62.0016C21.2175 61.4423 20.5458 60.8069 20.1186 60.1065C19.6902 59.4043 19.5286 58.6711 19.5004 57.9519L19.5 57.9421V51.9079L20.5 51.9077C20.5 51.9077 20.5 51.9077 20.5 51.9077C20.5 52.7234 21.092 53.8678 23.1198 55.0308L23.1212 55.0317C30.4896 59.2896 42.6262 66.2757 49.9949 70.5083L49.997 70.5095C51.648 71.4685 53.7519 72.0067 55.8155 72.0901C57.8837 72.1737 59.8532 71.7985 61.2508 70.9931C65.0295 68.8175 72.0919 64.4837 79.1655 60.1429L79.1757 60.1367C86.2387 55.8024 93.3115 51.4621 97.1039 49.2786ZM20.5 54.2451V57.9222C20.5242 58.5108 20.6544 59.0648 20.9723 59.5858C21.2925 60.1108 21.8243 60.6366 22.7049 61.1312L22.7102 61.1342C30.141 65.428 42.3801 72.4733 49.8111 76.7416L49.8132 76.7428C51.4789 77.7104 53.6012 78.2532 55.6828 78.3373C57.769 78.4217 59.756 78.0433 61.1663 77.2306C64.9819 75.0337 72.0472 70.8681 79.1164 66.7002L79.1194 66.6984C86.1851 62.5326 93.2545 58.3645 97.0753 56.1647L97.0767 56.1639C98.4064 55.404 98.9232 54.451 98.8824 53.5346L98.8819 53.5238L98.8765 49.1597C98.5333 49.5237 98.1067 49.8549 97.6032 50.145C93.8245 52.3206 86.7621 56.6544 79.6885 60.9952L79.6806 61.0001C72.6168 65.3349 65.5427 69.6759 61.75 71.8596C60.1388 72.788 57.9649 73.1777 55.7751 73.0892C53.5808 73.0006 51.3122 72.4297 49.4956 71.3748C42.1266 67.142 29.9905 60.1561 22.6215 55.8978C21.7044 55.3718 21.0032 54.8147 20.5 54.2451Z" fill="white"/>
<path d="M57.8828 27.672C60.8915 25.9381 66.1696 26.1421 69.6373 28.1564C71.282 29.1011 73.1642 30.183 75.1779 31.3411C81.3456 34.8903 91.7532 40.8836 96.5122 43.6337C99.9799 45.6225 100.362 48.6568 97.3536 50.3906C89.7807 54.7508 69.0734 67.745 61.5005 72.1051C58.4917 73.839 53.2136 73.635 49.7459 71.6207C42.377 67.388 30.24 60.4016 22.8711 56.1434C19.4033 54.1546 19.0209 51.1203 22.0296 49.3865C29.6025 45.0263 50.2844 32.0321 57.8828 27.672Z" fill="#1F2229"/>
<path fill-rule="evenodd" clip-rule="evenodd" d="M59.2968 26.5228C62.4805 25.5281 66.8386 25.9531 69.8871 27.7233C71.5317 28.6679 73.4137 29.7497 75.4272 30.9077L74.9286 31.7745C72.915 30.6165 71.0329 29.5346 69.3883 28.59L69.3862 28.5888C66.5843 26.9612 62.5162 26.5646 59.595 27.4773L59.4459 27L59.595 27.4773C59.0587 27.6448 58.567 27.8548 58.1325 28.1052L58.1316 28.1056C57.7113 28.3468 57.2504 28.6148 56.7531 28.9067C52.7114 31.2792 46.3033 35.2134 39.9263 39.1284C39.6278 39.3117 39.3294 39.4949 39.0312 39.6779C32.37 43.7673 25.8629 47.7564 22.2791 49.8198L22.0296 49.3865L22.2793 49.8197C22.2792 49.8198 22.2792 49.8198 22.2791 49.8198C20.8941 50.618 20.3968 51.6394 20.5178 52.6073C20.6437 53.6142 21.458 54.7566 23.1198 55.7097L23.1213 55.7106L23.7501 56.0739L23.5 56.5068L23.7501 56.0739C31.1645 60.3568 42.8323 67.0729 49.995 71.1872L49.9971 71.1884C52.98 72.9211 57.3865 73.2545 60.3188 72.1145L60.3189 72.1145C60.6522 71.985 60.964 71.8372 61.2509 71.6719L61.251 71.6718C65.0401 69.4902 72.0915 65.1629 79.1503 60.8311C85.1673 57.1386 91.1897 53.4427 95.2017 51.0697L95.4562 51.5L95.2017 51.0696C95.9008 50.6562 96.5385 50.283 97.1041 49.9573C97.1041 49.9573 97.104 49.9574 97.104 49.9574L97.3536 50.3906L97.1041 49.9573C98.4891 49.1591 98.9864 48.1377 98.8655 47.1698C98.7396 46.1629 97.9252 45.0205 96.2635 44.0674L96.262 44.0666C91.5034 41.3169 84.7559 37.429 78.5882 33.8798L79.087 33.0131C85.2543 36.5621 92.0018 40.4499 96.7611 43.2001C96.761 43.2 96.761 43.2 96.761 43.2L96.5122 43.6337L96.7624 43.2008C96.7619 43.2006 96.7615 43.2003 96.7611 43.2001C98.5669 44.2358 99.6776 45.6049 99.8577 47.0458C100.043 48.5256 99.2269 49.8882 97.6032 50.8238L97.6031 50.8239C97.0419 51.1471 96.4076 51.5182 95.7107 51.9304C91.7375 54.2805 85.7253 57.9698 79.7071 61.6627C72.6249 66.0086 65.5345 70.3595 61.7502 72.5383L61.5005 72.1051L61.75 72.5384C61.75 72.5384 61.7501 72.5384 61.7502 72.5383C61.4154 72.7312 61.0572 72.9005 60.6811 73.0466C60.6811 73.0466 60.6811 73.0466 60.6812 73.0465L60.5 72.5805L60.6811 73.0466C57.4551 74.3006 52.7316 73.9329 49.4956 72.0535C49.496 72.0538 49.4964 72.054 49.4969 72.0543L49.7459 71.6207L49.4948 72.0531C49.495 72.0532 49.4953 72.0534 49.4956 72.0535C42.3323 67.9389 30.6647 61.223 23.2499 56.9398L23.2499 56.9398L22.6223 56.5771L22.8711 56.1434L22.6208 56.5763L22.6219 56.5769C20.8162 55.5412 19.7056 54.1722 19.5255 52.7314C19.3405 51.2515 20.1563 49.8889 21.78 48.9533L21.7801 48.9532C25.3486 46.8986 31.8404 42.919 38.5081 38.8257C38.8081 38.6415 39.1085 38.4571 39.4089 38.2726C45.7805 34.3609 52.1962 30.4221 56.2469 28.0443C56.7463 27.7511 57.2101 27.4815 57.634 27.2383C57.6337 27.2384 57.6334 27.2386 57.6332 27.2387L57.8828 27.672L57.634 27.2383C58.1406 26.9464 58.701 26.7089 59.2968 26.5228V26.5228ZM59.2968 26.5228C59.2968 26.5228 59.2968 26.5228 59.2968 26.5228L59.4459 26.9999L59.2968 26.5228Z" fill="white"/>
<path d="M63.6155 54.2415L70.5109 59.0126L61.0561 64.7481L54.5232 60.1814L49.2118 63.1757L48.7154 49.8889L68.4833 51.2288L63.6155 54.2415Z" fill="#38FFA6"/>
<path fill-rule="evenodd" clip-rule="evenodd" d="M48.3672 49.5301C48.469 49.4314 48.6078 49.3805 48.7492 49.3901L68.5171 50.73C68.7339 50.7447 68.9163 50.8976 68.9686 51.1084C69.0209 51.3192 68.9312 51.5397 68.7465 51.654L64.528 54.2648L70.7954 58.6014C70.9347 58.6978 71.0157 58.8582 71.0106 59.0276C71.0056 59.1969 70.9151 59.3522 70.7702 59.4401L61.3154 65.1756C61.146 65.2784 60.932 65.2714 60.7696 65.1579L54.4946 60.7715L49.4574 63.6112C49.3055 63.6968 49.1199 63.6972 48.9677 63.612C48.8155 63.5269 48.7187 63.3686 48.7122 63.1943L48.2157 49.9076C48.2104 49.766 48.2655 49.6288 48.3672 49.5301ZM49.2358 50.4254L49.6809 62.3373L54.2776 59.7459C54.4452 59.6514 54.652 59.6615 54.8096 59.7716L61.0754 64.1516L69.5923 58.985L63.331 54.6527C63.1924 54.5567 63.1114 54.3973 63.1157 54.2287C63.12 54.0602 63.209 53.9051 63.3524 53.8164L66.8972 51.6225L49.2358 50.4254Z" fill="#38FFA6"/>
<path fill-rule="evenodd" clip-rule="evenodd" d="M46.1473 28.0768L37.1111 19.0407L37.8183 18.3336L46.8544 27.3697L46.1473 28.0768Z" fill="#38FFA6"/>
<path fill-rule="evenodd" clip-rule="evenodd" d="M73.197 26.2118L82.2332 17.1756L81.5261 16.4685L72.4899 25.5047L73.197 26.2118Z" fill="#38FFA6"/>
<path fill-rule="evenodd" clip-rule="evenodd" d="M59.1729 21.3401V10H60.1729V21.3401H59.1729Z" fill="#38FFA6"/>
<path fill-rule="evenodd" clip-rule="evenodd" d="M245.802 188.028L277.272 169.753L277.774 170.617L246.303 188.894L246.301 188.894C242.834 190.892 241.214 193.625 241.542 196.503C241.874 199.422 244.126 202.311 248.068 204.601C252.48 207.024 257.402 208.353 262.426 208.478L262.431 208.478C267.73 208.665 272.592 207.631 276.029 205.63L307.492 187.318L307.494 187.317C310.96 185.328 312.582 182.596 312.262 179.707C311.938 176.78 309.668 173.889 305.73 171.598L306.233 170.734C310.306 173.104 312.883 176.224 313.256 179.597C313.633 183.006 311.679 186.068 307.993 188.183C307.993 188.183 307.992 188.184 307.992 188.184L276.532 206.495C272.889 208.615 267.827 209.669 262.398 209.478C257.213 209.349 252.133 207.976 247.581 205.475L247.571 205.469L247.571 205.469C243.487 203.098 240.931 199.978 240.548 196.617C240.161 193.215 242.116 190.152 245.801 188.029C245.802 188.028 245.802 188.028 245.802 188.028Z" fill="white"/>
<path fill-rule="evenodd" clip-rule="evenodd" d="M245.812 192.269L277.272 174L277.774 174.865L246.303 193.141C246.295 193.145 246.287 193.15 246.279 193.154C244.284 194.174 242.721 195.88 241.871 197.962C242.687 200.343 244.812 202.676 248.068 204.565C252.48 206.988 257.402 208.317 262.426 208.442L262.431 208.442C267.73 208.629 272.592 207.595 276.029 205.594L276.029 205.594L307.492 187.318C307.5 187.313 307.507 187.309 307.515 187.305C309.511 186.285 311.074 184.578 311.924 182.496C311.116 180.115 308.981 177.781 305.73 175.89L306.233 175.026C309.684 177.033 312.068 179.601 312.932 182.364C312.966 182.472 312.962 182.588 312.921 182.693C312.002 185.073 310.244 187.029 307.983 188.189L276.532 206.459C272.889 208.579 267.827 209.633 262.398 209.442C257.213 209.312 252.133 207.94 247.581 205.439L247.571 205.433L247.571 205.433C244.11 203.426 241.736 200.857 240.863 198.096C240.829 197.988 240.833 197.871 240.873 197.765C241.793 195.386 243.551 193.429 245.812 192.269Z" fill="white"/>
<path fill-rule="evenodd" clip-rule="evenodd" d="M277.551 170.806L281.127 176.367H294.834L302.657 170.833H308.826V178.931C308.826 181.721 306.948 184.502 303.283 186.634C295.924 190.909 284.006 190.936 276.693 186.634C273.027 184.502 271.203 181.694 271.239 178.886V170.788L277.551 170.806Z" fill="white"/>
<path d="M271.46 182.693L263.932 187.058L271.46 182.693ZM265.291 157.101L272.765 161.411L265.291 157.101ZM309.154 182.558L316.629 186.905L309.154 182.558ZM290.504 151V157.164V151ZM315.681 157.011L308.117 161.411L315.681 157.011ZM325.999 171.652H315.395H325.999ZM290.316 187.508V193.672V187.508ZM265.389 171.733H254.785H265.389Z" fill="#38FFA6"/>
<path fill-rule="evenodd" clip-rule="evenodd" d="M290.504 150.5C290.78 150.5 291.004 150.724 291.004 151V157.164C291.004 157.44 290.78 157.664 290.504 157.664C290.227 157.664 290.004 157.44 290.004 157.164V151C290.004 150.724 290.227 150.5 290.504 150.5ZM316.113 156.76C316.252 156.998 316.171 157.304 315.932 157.443L308.368 161.844C308.13 161.982 307.824 161.902 307.685 161.663C307.546 161.424 307.627 161.118 307.866 160.979L315.429 156.579C315.668 156.44 315.974 156.521 316.113 156.76ZM264.857 156.851C264.995 156.612 265.301 156.53 265.54 156.668L273.015 160.978C273.254 161.116 273.336 161.422 273.198 161.661C273.06 161.9 272.755 161.983 272.515 161.845L265.041 157.534C264.802 157.396 264.719 157.091 264.857 156.851ZM314.895 171.652C314.895 171.376 315.119 171.152 315.395 171.152H325.999C326.275 171.152 326.499 171.376 326.499 171.652C326.499 171.928 326.275 172.152 325.999 172.152H315.395C315.119 172.152 314.895 171.928 314.895 171.652ZM254.785 171.233H265.389V172.233H254.785V171.233ZM308.722 182.307C308.861 182.068 309.167 181.987 309.405 182.126L316.88 186.472C317.119 186.611 317.2 186.917 317.061 187.156C316.922 187.395 316.616 187.476 316.377 187.337L308.903 182.991C308.664 182.852 308.583 182.546 308.722 182.307ZM271.892 182.442C272.031 182.681 271.949 182.987 271.711 183.126L264.182 187.49C263.943 187.629 263.638 187.547 263.499 187.308C263.361 187.069 263.442 186.764 263.681 186.625L271.209 182.261C271.448 182.122 271.754 182.204 271.892 182.442ZM290.316 187.008C290.592 187.008 290.816 187.231 290.816 187.508V193.672C290.816 193.948 290.592 194.172 290.316 194.172C290.04 194.172 289.816 193.948 289.816 193.672V187.508C289.816 187.231 290.04 187.008 290.316 187.008Z" fill="#38FFA6"/>
<path fill-rule="evenodd" clip-rule="evenodd" d="M276.754 163.21C284.112 158.927 296.021 158.909 303.335 163.156C310.648 167.404 310.613 174.333 303.254 178.607C295.896 182.882 283.978 182.909 276.664 178.652C269.351 174.396 269.396 167.485 276.754 163.21ZM289.19 173.109H281.144V176.384H294.85L294.921 163.084H289.289L289.19 173.109Z" fill="#38FFA6"/>
<path d="M314.605 454.073C314.605 454.073 315.576 456.076 304.874 461.242C292.914 467.656 259.819 485.79 259.819 485.79C256.906 487.409 254.4 487.608 250.021 484.514C250.021 484.514 232.503 474.265 227.346 471.027C219.557 466.811 220.005 465.318 220.005 465.318V473.957C219.95 475.423 221.534 476.725 223.922 478.146L250.021 493.036C254.4 496.13 256.906 495.931 259.819 494.312L310.652 467.073C312.615 465.978 314.822 464.322 314.569 462.477H314.596V454.073H314.605Z" fill="white"/>
<path fill-rule="evenodd" clip-rule="evenodd" d="M267.959 439.517C264.998 439.655 262.526 440.611 259.621 442.161L259.267 441.497C262.216 439.923 264.803 438.91 267.925 438.765L282.137 438.051C286.307 437.888 288.542 438.051 291.129 439.552L312.171 451.204C317.057 454.063 313.574 456.931 310.661 458.55L259.828 485.79C256.915 487.409 254.409 487.608 250.03 484.514L223.922 469.623C219.688 467.099 217.978 464.946 223.479 461.599L250.148 446.618L250.517 447.274L223.859 462.249C222.523 463.063 221.692 463.765 221.229 464.368C220.78 464.953 220.708 465.395 220.786 465.764C220.873 466.175 221.178 466.654 221.799 467.218C222.412 467.775 223.259 468.351 224.301 468.973L250.403 483.86L250.465 483.899C252.602 485.41 254.194 486.051 255.544 486.169C256.875 486.286 258.076 485.902 259.462 485.132L259.472 485.126L310.3 457.89C311.003 457.498 311.724 457.041 312.335 456.539C312.956 456.03 313.419 455.512 313.664 455.011C313.895 454.539 313.927 454.099 313.72 453.641C313.496 453.146 312.949 452.533 311.799 451.858L290.764 440.211L290.751 440.203C288.361 438.816 286.312 438.641 282.17 438.803C282.169 438.803 282.167 438.803 282.166 438.803L267.959 439.517Z" fill="white"/>
<path d="M256.001 450.236C258.125 449.059 261.46 449.007 263.426 450.148L269.605 453.694L249.032 465.104L248.996 464.648C248.961 464.051 248.698 463.472 248.224 462.945C247.768 462.418 247.101 461.979 246.276 461.611C245.451 461.26 244.52 460.996 243.484 460.874C242.449 460.751 241.378 460.733 240.412 460.856L236.463 461.084L256.001 450.236Z" fill="#38FFA6"/>
<path d="M234.444 462.172L240.535 461.821C241.36 461.733 242.168 461.733 242.958 461.821C243.748 461.927 244.467 462.12 245.099 462.4C245.731 462.681 246.24 463.015 246.609 463.419C246.978 463.822 247.171 464.261 247.206 464.735L247.276 466.034L236.954 471.757L230.828 468.211C228.862 467.087 228.985 465.209 231.126 464.033L234.462 462.19L234.444 462.172Z" fill="#38FFA6"/>
<path d="M270.781 454.36L277.908 458.45L269.395 463.172L269.219 461.803C269.114 460.82 268.359 459.89 267.13 459.205C266.235 458.713 265.111 458.362 263.882 458.187L270.781 454.36Z" fill="#38FFA6"/>
<path d="M262.32 459.065C263.672 459.1 264.918 459.416 265.866 459.943C266.814 460.469 267.393 461.172 267.481 461.944L267.727 464.103L257.896 469.545L254.087 469.352C252.735 469.282 251.471 468.948 250.559 468.404C249.646 467.877 249.119 467.14 249.066 466.385L262.285 459.048L262.32 459.065Z" fill="#38FFA6"/>
<path d="M247.522 467.263C247.802 467.965 248.399 468.597 249.26 469.106C250.453 469.808 252.086 470.247 253.841 470.335L256.246 470.458L245.292 476.532L238.165 472.442L247.504 467.263H247.522Z" fill="#38FFA6"/>
<path d="M279.102 459.136L284.649 462.313C286.615 463.436 286.492 465.315 284.351 466.491L282.314 467.614L275.942 467.474C275.17 467.544 274.397 467.527 273.642 467.404C272.888 467.298 272.221 467.105 271.624 466.842C271.027 466.579 270.535 466.245 270.184 465.877C269.833 465.49 269.623 465.069 269.587 464.648L269.552 464.437L279.119 459.136H279.102Z" fill="#38FFA6"/>
<path d="M267.972 465.298C268.095 465.666 268.306 466.035 268.604 466.368C269.078 466.877 269.693 467.299 270.465 467.65C271.238 467.983 272.133 468.247 273.098 468.37C274.064 468.51 275.082 468.545 275.925 468.457L280.594 468.563L265.761 476.778L265.515 474.25C265.673 473.706 265.638 473.162 265.427 472.618C265.181 472.056 264.76 471.564 264.163 471.126C263.566 470.669 262.811 470.318 261.934 470.055C261.337 469.879 260.687 469.756 260.038 469.686L267.972 465.298Z" fill="#38FFA6"/>
<path d="M258.493 470.563H258.879C259.652 470.616 260.389 470.739 261.056 470.95C261.723 471.16 262.302 471.424 262.776 471.775C263.233 472.108 263.566 472.494 263.724 472.916C263.9 473.355 263.935 473.776 263.795 474.215V474.32L264.111 477.708L259.494 480.271C257.37 481.447 254.034 481.5 252.068 480.359L246.521 477.181L258.511 470.546L258.493 470.563Z" fill="#38FFA6"/>
<path d="M20.4126 306.289L20 375.687C20 376.899 20.4946 377.74 21.2378 378.021L27.4266 381.336L85.6015 275.713L79.0001 272.137C78.5139 271.92 77.9115 271.953 77.2673 272.292L23.3007 301.008C21.7329 301.916 20.4126 304.226 20.4126 306.289Z" fill="#38FFA6"/>
<path fill-rule="evenodd" clip-rule="evenodd" d="M77.5013 272.734C77.5009 272.734 77.5005 272.734 77.5001 272.734L23.5438 301.445C22.8606 301.843 22.199 302.569 21.706 303.458C21.2126 304.348 20.9126 305.359 20.9126 306.289L20.9126 306.292L20.5 375.687C20.5 375.687 20.5 375.688 20.5 375.688C20.5004 376.783 20.9396 377.374 21.4146 377.553L21.4451 377.565L27.2271 380.662L84.9207 275.913L78.7806 272.587C78.4664 272.453 78.033 272.454 77.5013 272.734ZM77.0344 271.85C77.7816 271.456 78.5469 271.388 79.2037 271.68L79.2213 271.688L86.2824 275.514L27.6261 382.01L21.0285 378.476C20.038 378.083 19.5 377.001 19.5 375.687V375.684L19.9126 306.289C19.9126 306.289 19.9126 306.288 19.9126 306.288C19.9129 305.156 20.273 303.98 20.8314 302.973C21.3887 301.968 22.1681 301.086 23.0502 300.575L23.0579 300.571L77.0344 271.85Z" fill="#38FFA6"/>
<path d="M83.868 275.883C85.4358 275.058 86.7561 276.048 86.7561 278.028L86.6926 288.702C86.6705 292.429 86.6581 294.519 86.6359 298.246L86.3435 347.426C86.3435 349.489 85.0232 351.799 83.4554 352.707L29.4888 381.423C27.921 382.248 26.6007 381.258 26.6007 379.277L27.0133 309.88C27.0133 307.817 28.3336 305.507 29.9014 304.599L83.868 275.883Z" fill="#1F2229"/>
<path fill-rule="evenodd" clip-rule="evenodd" d="M86.598 275.696C87.2911 276.212 87.6554 277.132 87.6554 278.222L87.6554 278.225L87.5919 288.899L86.5919 288.893L86.6554 278.222C86.6554 278.221 86.6554 278.221 86.6554 278.22C86.655 277.33 86.3593 276.765 86.0005 276.498C85.6626 276.246 85.1546 276.175 84.5013 276.518C84.5009 276.518 84.5006 276.519 84.5002 276.519L30.5437 305.23C29.8606 305.627 29.199 306.353 28.706 307.242C28.2126 308.132 27.9126 309.143 27.9126 310.074L27.9126 310.077L27.5 379.471C27.5 379.471 27.5 379.472 27.5 379.472C27.5003 380.362 27.7961 380.928 28.1549 381.195C28.4929 381.447 29.0011 381.518 29.6547 381.175C29.6545 381.175 29.6549 381.174 29.6547 381.175L83.6116 352.463C84.2947 352.065 84.9564 351.34 85.4494 350.451C85.9428 349.56 86.2428 348.55 86.2428 347.619L86.2428 347.616L86.5352 298.437L87.5352 298.443L87.2428 347.619C87.2428 347.62 87.2428 347.62 87.2428 347.621C87.2424 348.753 86.8824 349.928 86.324 350.935C85.7667 351.941 84.9873 352.822 84.1052 353.333L84.0975 353.337L30.123 382.058L30.121 382.059C29.207 382.54 28.2713 382.529 27.5574 381.997C26.8642 381.48 26.5 380.561 26.5 379.471V379.468L26.9126 310.074C26.9126 310.073 26.9126 310.073 26.9126 310.072C26.9129 308.94 27.273 307.765 27.8314 306.757C28.3887 305.752 29.1681 304.87 30.0502 304.36L30.0579 304.355L84.0344 275.634C84.9484 275.153 85.884 275.164 86.598 275.696Z" fill="white"/>
<path d="M46.5308 327.885C46.6229 327.885 46.6229 327.885 46.5308 327.885C46.8992 327.701 47.2676 327.516 47.5439 327.332C47.9123 327.148 48.1887 326.964 48.5571 326.78C48.5571 326.78 48.5571 326.78 48.6492 326.78C48.9255 326.595 49.0176 326.78 49.0176 327.148C49.0176 329.082 49.0176 331.016 49.0176 332.951C49.0176 333.687 49.0176 333.687 49.5702 333.411C50.3992 332.951 51.2281 332.582 51.965 332.122C52.6097 331.753 53.3465 331.385 53.9913 331.016C53.9913 331.016 53.9913 331.016 54.0834 331.016C54.4518 330.832 54.5439 330.924 54.5439 331.477C54.5439 332.214 54.5439 332.951 54.5439 333.78C54.5439 334.332 54.636 334.332 54.9123 334.24C54.9123 334.24 55.0044 334.24 55.0044 334.148C55.1886 334.056 55.3728 333.872 55.6491 333.78C55.8334 333.687 56.0176 333.595 56.1097 333.503C56.2018 333.411 56.386 333.319 56.4781 333.319C56.5702 333.227 56.7544 333.135 56.8465 333.135C57.1228 332.951 57.2149 333.043 57.2149 333.411C57.2149 334.332 57.2149 335.161 57.2149 336.082C57.2149 336.451 57.1228 336.635 56.8465 336.727C56.4781 336.911 56.2018 337.095 55.8334 337.28C55.3728 337.556 54.9123 337.74 54.4518 338.016C53.9913 338.293 53.5307 338.477 53.0702 338.753C52.7939 338.937 52.5176 339.03 52.1492 339.214C52.1492 339.214 52.0571 339.214 52.0571 339.306C51.7807 339.49 51.5965 339.398 51.6886 338.937C51.6886 338.108 51.6886 337.372 51.6886 336.543C51.6886 336.082 51.6886 335.99 51.3202 336.174C50.4913 336.635 49.7544 337.003 48.9255 337.464C48.1887 337.832 47.3597 338.293 46.6229 338.661C46.2545 338.845 46.1624 339.03 46.2545 339.49C46.2545 340.319 46.2545 341.148 46.2545 342.069C46.2545 342.345 46.2545 342.529 45.9781 342.622C45.6097 342.806 45.1492 342.99 44.7808 343.266C44.4124 343.451 44.1361 343.635 43.7676 343.819C43.4913 344.003 43.4913 343.819 43.4913 343.543C43.4913 341.516 43.4913 339.398 43.4913 337.372C43.4913 337.003 43.5834 336.819 43.8597 336.727C43.8597 336.727 43.8597 336.727 43.9518 336.727C44.1361 336.635 44.3203 336.543 44.5045 336.451C44.5966 336.358 44.7808 336.358 44.8729 336.266C44.965 336.174 45.1492 336.082 45.2413 336.082C45.4255 335.99 45.6097 335.898 45.7939 335.806H45.886C46.1624 335.622 46.3466 335.437 46.2545 334.977C46.2545 333.043 46.2545 331.016 46.2545 328.99C46.2545 328.253 46.2545 328.069 46.5308 327.885Z" fill="white"/>
<path d="M78.7672 342.53C79.0435 342.438 79.0435 342.438 79.0435 342.806C79.0435 343.912 79.0435 344.925 79.0435 345.938C77.2014 346.951 75.3594 347.872 73.5173 348.885C73.5173 347.872 73.5173 346.767 73.5173 345.754C73.5173 345.477 73.6094 345.293 73.7936 345.201C74.6225 344.74 75.4515 344.372 76.2804 343.912C77.2014 343.451 77.9383 342.99 78.7672 342.53Z" fill="white"/>
<path d="M76.0044 337.002C76.2807 336.818 76.3728 336.91 76.3728 337.278C76.3728 338.2 76.3728 339.028 76.3728 339.857C76.3728 340.226 76.2807 340.318 76.0044 340.502C74.4386 341.331 72.7807 342.252 71.215 343.081C70.9387 343.265 70.8465 343.357 70.8465 343.726C70.8465 345.936 70.8465 348.147 70.8465 350.357C69.9255 350.818 69.0045 351.37 68.0834 351.831C68.0834 348.423 68.0834 345.107 68.1755 341.699C68.1755 341.331 68.2676 341.147 68.5439 340.963C69.8334 340.318 71.0308 339.673 72.3202 339.028C73.5176 338.292 74.7149 337.647 76.0044 337.002Z" fill="white"/>
<path d="M70.6628 325.673C70.9391 325.581 70.9391 325.581 70.9391 325.949C70.9391 327.607 70.9391 329.265 70.9391 330.831C70.9391 332.489 70.9391 334.054 70.9391 335.712C70.9391 336.081 70.847 336.173 70.6628 336.357C70.6628 336.357 70.6628 336.357 70.5707 336.357C70.2023 336.541 69.926 336.726 69.5575 336.91C69.1891 337.094 68.9128 337.278 68.5444 337.462C68.5444 337.462 68.5444 337.462 68.4523 337.462C68.176 337.647 68.176 337.554 68.176 337.186C68.176 335.068 68.176 333.041 68.2681 331.015C68.2681 330.647 68.176 330.555 67.9918 330.739C67.6233 330.923 67.2549 331.107 66.8865 331.383C66.7023 331.476 66.5181 331.568 66.426 331.66C66.2418 331.752 66.0576 331.844 65.9654 331.936C65.7812 332.028 65.6891 332.028 65.6891 331.66C65.6891 330.739 65.6891 329.818 65.6891 328.897C65.6891 328.62 65.7812 328.436 65.9654 328.344C66.7944 327.883 67.6233 327.515 68.4523 327.055C69.0049 326.594 69.8338 326.133 70.6628 325.673Z" fill="white"/>
<path d="M65.1362 335.714C65.3204 335.622 65.4125 335.622 65.4125 335.99C65.4125 337.095 65.4125 338.108 65.4125 339.214C65.4125 340.227 65.4125 341.24 65.4125 342.345C65.4125 342.622 65.3204 342.806 65.1362 342.898C64.7677 343.082 64.3993 343.266 64.0309 343.45C63.6625 343.635 63.2941 343.819 62.9256 344.003C62.6493 344.095 62.6493 344.003 62.6493 343.727C62.6493 341.608 62.6493 339.49 62.6493 337.464C62.6493 337.187 62.7414 337.003 62.9256 336.911C63.2941 336.727 63.6625 336.543 64.0309 336.358C64.3993 336.082 64.7677 335.898 65.1362 335.714Z" fill="white"/>
<path d="M54.0831 348.608C54.3595 348.516 54.3595 348.608 54.3595 348.884C54.3595 349.805 54.3595 350.726 54.3595 351.647C54.3595 351.924 54.2674 352.108 54.0831 352.2C54.0831 352.2 54.0831 352.2 53.991 352.2C53.8068 352.292 53.7147 352.384 53.5305 352.384C53.3463 352.476 53.1621 352.568 52.9779 352.66C52.7937 352.753 52.6095 352.845 52.3332 352.937C52.1489 353.029 52.0568 353.121 51.8726 353.213C51.8726 353.213 51.7805 353.213 51.7805 353.305C51.5963 353.397 51.5042 353.397 51.5042 353.029C51.5042 352.108 51.5042 351.187 51.5042 350.266C51.5042 349.897 51.5963 349.805 51.7805 349.713C52.1489 349.529 52.5174 349.345 52.8858 349.16C53.3463 349.068 53.7147 348.884 54.0831 348.608C54.0831 348.7 54.0831 348.608 54.0831 348.608Z" fill="white"/>
<path d="M59.6094 338.661C59.8857 338.477 59.8857 338.661 59.8857 338.938C59.8857 342.161 59.8857 345.385 59.7936 348.609C59.7936 348.977 59.8857 349.069 60.1621 348.885C60.6226 348.609 61.0831 348.424 61.4515 348.148C61.9121 347.964 62.2805 347.688 62.741 347.503C63.4778 347.135 64.2147 346.674 64.9515 346.306C65.2278 346.122 65.3199 346.214 65.3199 346.582C65.3199 347.503 65.3199 348.332 65.3199 349.253C65.3199 349.622 65.2278 349.714 64.9515 349.898C63.3857 350.727 61.7278 351.648 60.1621 352.477C59.8857 352.661 59.7936 352.753 59.7936 353.122C59.7936 354.135 59.7936 355.148 59.7936 356.253C57.0305 357.727 54.2674 359.201 51.5042 360.674C51.5042 359.661 51.5042 358.648 51.5042 357.543C51.5042 357.174 51.5963 357.082 51.8726 356.898C53.4384 356.069 55.0963 355.148 56.6621 354.319C56.9384 354.135 57.0305 354.043 57.0305 353.674C57.0305 350.451 57.0305 347.227 57.1226 343.911C57.1226 343.543 57.0305 343.451 56.7542 343.635C55.1884 344.464 53.5305 345.385 51.9647 346.214C51.6884 346.398 51.5963 346.306 51.5963 345.938C51.5963 345.017 51.5963 344.095 51.5963 343.267C51.5963 342.99 51.6884 342.806 51.8726 342.714C53.1621 342.069 54.4516 341.332 55.741 340.688C57.0305 340.043 58.32 339.306 59.6094 338.661Z" fill="white"/>
<path d="M49.1094 305.963C49.1094 311.489 49.0173 317.016 49.0173 322.542C49.0173 323.003 48.9252 323.187 48.5567 323.371C46.3462 324.568 44.1357 325.766 41.9252 326.871C39.7147 328.068 37.5042 329.266 35.2937 330.463C35.2937 324.568 35.3858 318.674 35.3858 312.779C37.5963 311.582 39.8068 310.384 42.0173 309.279C44.2278 308.174 46.4383 306.884 48.6489 305.687C49.0173 305.411 49.1094 305.503 49.1094 305.963ZM46.2541 320.608C46.2541 317.384 46.2541 314.16 46.3462 310.845C46.3462 310.476 46.2541 310.384 45.9778 310.568C44.6883 311.213 43.491 311.95 42.2015 312.595C40.912 313.239 39.7147 313.976 38.4252 314.621C38.1489 314.805 38.0568 314.897 38.0568 315.266C38.0568 316.924 38.0568 318.489 38.0568 320.147C38.0568 321.805 38.0568 323.371 38.0568 325.029C38.0568 325.397 38.1489 325.489 38.4252 325.305C39.7147 324.66 40.912 323.924 42.2015 323.279C43.491 322.634 44.6883 321.897 45.9778 321.253C46.2541 321.068 46.2541 320.884 46.2541 320.608Z" fill="white"/>
<path d="M40.9122 330.923C40.9122 330.923 41.0043 330.923 40.9122 330.923C41.2806 330.739 41.649 330.555 42.1095 330.278C42.478 330.094 42.8464 329.91 43.2148 329.634C43.399 329.542 43.399 329.634 43.399 329.91C43.399 330.37 43.399 330.831 43.399 331.384C43.399 331.844 43.399 332.305 43.399 332.857C43.399 333.134 43.3069 333.226 43.1227 333.318C42.7543 333.502 42.3859 333.686 42.0174 333.87C41.649 334.055 41.2806 334.239 40.9122 334.515C40.8201 334.515 40.728 334.515 40.728 334.239C40.728 333.226 40.728 332.305 40.728 331.291C40.728 331.107 40.728 331.015 40.9122 330.923Z" fill="white"/>
<path d="M37.596 332.673C37.8723 332.489 37.9644 332.581 37.9644 332.95C37.9644 335.068 37.9644 337.095 37.8723 339.121C37.8723 339.489 37.9644 339.581 38.1486 339.397C38.1486 339.397 38.1486 339.397 38.2407 339.397C38.517 339.305 38.7012 339.213 38.8855 339.121C39.0697 339.029 39.2539 338.937 39.4381 338.845C39.6223 338.752 39.8065 338.66 39.8986 338.568C40.0828 338.476 40.267 338.384 40.3591 338.292C40.6354 338.2 40.6354 338.2 40.6354 338.568C40.6354 339.489 40.6354 340.41 40.6354 341.331C40.6354 341.608 40.5433 341.792 40.3591 341.884C40.1749 341.976 39.9907 342.068 39.8065 342.16C39.6223 342.252 39.4381 342.344 39.2539 342.437C38.8855 342.621 38.517 342.805 38.1486 342.989C37.8723 343.081 37.8723 343.266 37.8723 343.542C37.8723 344.463 37.8723 345.384 37.8723 346.305C37.8723 346.581 37.7802 346.766 37.596 346.858C37.2276 347.042 36.8591 347.226 36.5828 347.41C36.1223 347.687 35.6618 347.871 35.2013 348.147C35.2013 343.45 35.2934 338.66 35.2934 333.963C35.6618 333.779 36.1223 333.502 36.4907 333.318C36.8591 333.134 37.2276 332.858 37.596 332.673Z" fill="white"/>
<path d="M78.9518 321.346C79.2281 321.254 79.2281 321.254 79.2281 321.622C79.2281 322.543 79.2281 323.464 79.2281 324.385C79.2281 324.662 79.136 324.846 78.9518 324.938C78.5834 325.122 78.2149 325.307 77.8465 325.491C77.386 325.767 76.9255 326.043 76.3729 326.228C75.9123 326.504 75.4518 326.688 74.9913 326.964C74.6229 327.149 74.3465 327.333 73.9781 327.517C73.7939 327.609 73.7018 327.609 73.7018 327.241C73.7018 326.32 73.7018 325.399 73.7018 324.478C73.7018 324.201 73.7939 324.017 73.9781 323.925C74.8071 323.464 75.636 323.096 76.465 322.635C77.2939 322.175 78.1228 321.807 78.9518 321.346Z" fill="white"/>
<path d="M68.5433 316.187C68.9117 316.003 69.2802 315.819 69.6486 315.635C70.017 315.451 70.3854 315.266 70.7538 315.082C70.938 314.99 71.0301 315.082 71.0301 315.358C71.0301 316.187 71.0301 317.016 71.0301 317.845C71.0301 318.306 71.0302 318.49 71.3986 318.306C71.3986 318.306 71.4907 318.306 71.4907 318.214C71.767 318.029 72.0433 317.845 72.3196 317.753C72.5959 317.569 72.9644 317.477 73.2407 317.293C73.2407 317.293 73.3328 317.293 73.3328 317.201C73.6091 317.016 73.7012 316.832 73.7012 316.372C73.7012 315.543 73.7012 314.714 73.7012 313.977C73.7012 313.608 73.7012 313.424 74.0696 313.24C74.8986 312.872 75.6354 312.411 76.4643 312.043C77.2012 311.582 78.0301 311.214 78.767 310.753C79.1354 310.569 79.2275 310.661 79.2275 311.122C79.2275 311.951 79.2275 312.687 79.2275 313.516C79.2275 313.885 79.2275 314.161 78.8591 314.345H78.767C78.5827 314.437 78.3985 314.529 78.2143 314.622C78.0301 314.714 77.938 314.806 77.7538 314.898C77.6617 314.99 77.5696 314.99 77.3854 315.082C77.2012 315.174 77.017 315.266 76.9249 315.358H76.8328C76.5564 315.451 76.4643 315.635 76.4643 316.095C76.4643 316.832 76.4643 317.661 76.4643 318.49C76.4643 318.951 76.3722 319.135 76.0038 319.319C75.1749 319.687 74.438 320.148 73.7012 320.516C72.7801 320.977 71.8591 321.529 70.938 321.99C70.017 322.45 69.096 323.003 68.1749 323.464C67.4381 323.832 66.6091 324.293 65.8723 324.753C65.5039 324.937 65.4118 324.845 65.4118 324.385C65.4118 323.556 65.4118 322.727 65.4118 321.898C65.4118 321.529 65.5039 321.345 65.7802 321.253C65.7802 321.253 65.7802 321.253 65.8723 321.253C66.0565 321.161 66.1486 321.069 66.3328 321.069C66.517 321.069 66.6091 320.885 66.7933 320.885C66.8854 320.793 67.0696 320.701 67.1618 320.701C67.346 320.608 67.6223 320.424 67.8065 320.332C67.8065 320.332 67.8065 320.332 67.8986 320.332C68.1749 320.148 68.267 319.964 68.267 319.595C68.267 318.766 68.267 317.937 68.267 317.016C68.267 316.556 68.267 316.372 68.5433 316.187Z" fill="white"/>
<path d="M62.6491 298.228C62.8333 298.135 62.9254 298.135 62.9254 298.412C62.9254 299.333 62.9254 300.346 62.9254 301.267C62.9254 301.543 62.8333 301.635 62.6491 301.82C61.8201 302.28 60.9912 302.649 60.1622 303.109C59.3333 303.57 58.5043 304.03 57.6754 304.399C57.4912 304.491 57.3991 304.491 57.3991 304.214C57.3991 303.293 57.3991 302.28 57.3991 301.359C57.3991 301.083 57.4912 300.991 57.6754 300.806C58.0438 300.622 58.4122 300.438 58.7807 300.254C59.2412 299.978 59.7017 299.701 60.1622 299.517C60.6227 299.241 61.0833 299.056 61.5438 298.78C61.9122 298.596 62.2806 298.412 62.6491 298.228Z" fill="white"/>
<path d="M54.268 306.147C54.5443 306.055 54.5443 306.055 54.5443 306.424C54.5443 307.345 54.5443 308.266 54.5443 309.187C54.5443 309.555 54.6364 309.555 54.9127 309.463C57.3995 308.082 59.8864 306.792 62.4653 305.411C62.7416 305.226 62.8337 305.318 62.8337 305.687C62.8337 306.608 62.8337 307.437 62.8337 308.358C62.8337 308.634 62.7416 308.818 62.5574 308.911C61.8206 309.279 61.0837 309.647 60.3469 310.016C60.0706 310.108 60.0706 310.292 60.0706 310.568C60.0706 311.49 60.0706 312.411 60.0706 313.332C60.0706 313.608 59.9785 313.792 59.7943 313.884C59.4258 314.068 59.0574 314.253 58.689 314.437C58.3206 314.621 57.9522 314.805 57.5837 314.989C57.3074 315.082 57.3074 315.082 57.3074 314.713C57.3074 313.792 57.3074 312.871 57.3074 311.95C57.3074 311.674 57.2153 311.582 57.0311 311.674C56.7548 311.858 56.4785 311.95 56.2022 312.134C55.6495 312.411 55.0969 312.687 54.5443 312.963C54.1759 313.147 53.8996 313.332 53.5311 313.516C53.0706 313.792 52.518 314.068 52.0575 314.345C51.7811 314.437 51.7811 314.437 51.7811 314.068C51.7811 311.95 51.7811 309.832 51.7811 307.713C51.7811 307.437 51.8732 307.253 52.0575 307.161C52.4259 306.976 52.7943 306.792 53.1627 306.608C53.5311 306.424 53.9917 306.332 54.268 306.147Z" fill="white"/>
<path d="M54.3597 316.741C54.5439 316.649 54.5439 316.741 54.5439 316.925C54.5439 317.938 54.5439 318.859 54.5439 319.873C54.5439 320.149 54.4518 320.241 54.3597 320.333C53.9913 320.517 53.6229 320.701 53.2545 320.978C52.886 321.162 52.5176 321.346 52.1492 321.623C51.965 321.715 51.965 321.623 51.965 321.438C51.965 320.425 51.965 319.504 51.965 318.491C51.965 318.307 52.0571 318.123 52.1492 318.03C52.3334 317.938 52.5176 317.846 52.7018 317.754C52.886 317.662 53.0703 317.57 53.2545 317.478C53.4387 317.386 53.6229 317.294 53.8071 317.201C53.9913 317.109 54.0834 316.833 54.3597 316.741Z" fill="white"/>
<path d="M62.4648 315.912C62.7411 315.82 62.7411 315.82 62.7411 316.188C62.7411 318.307 62.7411 320.425 62.7411 322.451C62.7411 322.82 62.649 322.912 62.4648 323.004C62.4648 323.004 62.4648 323.004 62.3727 323.004C61.82 323.28 61.2674 323.649 60.6227 323.925C59.5174 324.57 58.3201 325.122 57.2148 325.767C56.3859 326.228 55.4648 326.688 54.6359 327.149C53.8069 327.609 52.8859 328.07 52.0569 328.53C51.7806 328.714 51.6885 328.622 51.6885 328.254C51.6885 327.333 51.6885 326.504 51.6885 325.583C51.6885 325.214 51.7806 325.122 52.0569 324.938C54.5438 323.649 57.0306 322.267 59.6095 320.978C59.978 320.793 60.0701 320.701 59.978 320.241C59.978 319.412 59.978 318.491 59.978 317.57C59.978 317.293 60.0701 317.109 60.2543 317.017C60.6227 316.833 60.9911 316.649 61.3595 316.464C61.7279 316.28 62.0964 316.096 62.4648 315.912Z" fill="white"/>
<path d="M62.4649 326.504C62.6491 326.412 62.7412 326.504 62.7412 326.688C62.7412 328.806 62.7412 331.017 62.7412 333.135C62.7412 333.412 62.6491 333.504 62.4649 333.596C62.4649 333.596 62.4649 333.596 62.3728 333.596C62.0044 333.78 61.636 333.964 61.2675 334.148C60.8991 334.333 60.5307 334.517 60.1623 334.701C59.9781 334.793 59.886 334.793 59.886 334.425C59.886 333.32 59.886 332.306 59.886 331.201C59.886 330.188 59.886 329.175 59.886 328.07C59.886 327.793 59.9781 327.609 60.1623 327.517C60.5307 327.333 60.807 327.148 61.1754 326.964C61.636 326.964 62.0965 326.78 62.4649 326.504Z" fill="white"/>
<path d="M78.9511 328.344C79.1353 328.252 79.2274 328.252 79.2274 328.528C79.2274 328.989 79.2274 329.541 79.2274 330.002C79.2274 330.462 79.2274 330.923 79.2274 331.475C79.2274 331.752 79.1353 331.844 78.9511 331.936C78.5827 332.12 78.2142 332.304 77.8458 332.489C77.4774 332.673 77.109 332.857 76.7406 333.133C76.5564 333.225 76.4642 333.225 76.4642 332.949C76.4642 331.936 76.4642 331.015 76.4642 330.002C76.4642 329.725 76.5564 329.633 76.7406 329.541C77.109 329.357 77.4774 329.173 77.8458 328.989C78.2142 328.804 78.5827 328.62 78.9511 328.344Z" fill="white"/>
<path d="M43.0309 354.503C43.3073 354.41 43.3073 354.503 43.3073 354.779C43.3073 355.7 43.3073 356.621 43.3073 357.542C43.3073 357.818 43.2152 358.003 43.0309 358.095C43.0309 358.095 43.0309 358.095 42.9388 358.095C42.7546 358.187 42.6625 358.279 42.4783 358.279C42.2941 358.371 42.1099 358.463 41.9257 358.555C41.7415 358.647 41.5573 358.739 41.281 358.831C41.0967 358.924 41.0046 359.016 40.8204 359.108C40.8204 359.108 40.7283 359.108 40.7283 359.2C40.6362 359.384 40.5441 359.292 40.5441 359.016C40.5441 358.095 40.5441 357.174 40.5441 356.253C40.5441 355.884 40.6362 355.792 40.8204 355.7C41.1888 355.516 41.5573 355.332 41.9257 355.147C42.2941 354.871 42.6625 354.687 43.0309 354.503Z" fill="white"/>
<path d="M48.9257 344.924C48.9257 350.635 48.8336 356.345 48.8336 362.056C44.3204 364.45 39.8994 366.845 35.3863 369.24C35.11 369.332 35.0179 369.332 35.0179 368.963C35.0179 363.161 35.11 357.45 35.11 351.648C36.86 350.727 38.7021 349.713 40.452 348.792C43.1231 347.411 45.7941 345.937 48.4652 344.556C48.8336 344.371 48.9257 344.464 48.9257 344.924ZM46.0704 359.569C46.0704 356.345 46.0704 353.121 46.1625 349.806C46.1625 349.437 46.0704 349.345 45.7941 349.529C44.5047 350.174 43.3073 350.911 42.0178 351.556C40.7284 352.2 39.531 352.937 38.2415 353.582C37.9652 353.766 37.8731 353.858 37.8731 354.227C37.8731 355.885 37.8731 357.45 37.8731 359.108C37.8731 360.766 37.8731 362.332 37.8731 363.99C37.8731 364.358 37.9652 364.45 38.2415 364.266C39.531 363.621 40.7284 362.884 42.0178 362.24C43.3073 361.595 44.5047 360.858 45.7941 360.213C45.9783 360.029 46.0704 359.937 46.0704 359.569Z" fill="white"/>
<path d="M73.6094 299.425C73.7936 299.333 73.7936 299.425 73.7936 299.609C73.7936 300.622 73.7936 301.543 73.7936 302.557C73.7936 302.833 73.7015 302.925 73.6094 303.017C73.3331 303.201 72.9647 303.386 72.6884 303.478C72.2278 303.754 71.7673 303.938 71.3989 304.214C71.2147 304.307 71.2147 304.214 71.2147 304.03C71.2147 303.017 71.2147 302.096 71.2147 301.083C71.2147 300.899 71.3068 300.714 71.3989 300.622C71.5831 300.53 71.7673 300.438 71.9515 300.346C72.1357 300.254 72.3199 300.162 72.5042 300.07C72.6884 299.978 72.8726 299.886 73.0568 299.793C73.241 299.701 73.4252 299.517 73.6094 299.425Z" fill="white"/>
<path d="M79.4122 289.753C79.4122 295.372 79.3201 300.898 79.3201 306.424C79.3201 306.793 79.228 306.977 78.9517 307.161C78.0307 307.622 77.1096 308.174 76.0965 308.635C74.8991 309.279 73.6096 309.924 72.4123 310.569C71.2149 311.214 69.9255 311.858 68.7281 312.503C67.807 312.964 66.886 313.516 65.9649 313.977C65.5965 314.161 65.5965 314.069 65.5965 313.7C65.6886 308.082 65.6886 302.556 65.6886 296.937C65.6886 296.477 65.7807 296.385 66.0571 296.201C68.1755 295.095 70.386 293.898 72.5965 292.793C74.807 291.595 76.9254 290.49 79.1359 289.293C79.3201 289.293 79.4122 289.385 79.4122 289.753ZM76.557 304.49C76.557 301.266 76.557 297.951 76.6491 294.727C76.6491 294.358 76.557 294.358 76.2807 294.451C74.9912 295.095 73.7017 295.832 72.5044 296.477C71.2149 297.122 69.9255 297.858 68.7281 298.503C68.4518 298.687 68.3597 298.779 68.3597 299.056C68.3597 302.279 68.3597 305.595 68.2676 308.819C68.2676 309.187 68.3597 309.187 68.636 309.095C69.1886 308.819 69.7412 308.543 70.2939 308.266C71.0307 307.898 71.7675 307.529 72.4123 307.161C73.1491 306.793 73.886 306.424 74.6228 305.964C75.1754 305.687 75.7281 305.411 76.2807 305.135C76.557 304.951 76.557 304.858 76.557 304.49Z" fill="white"/>
<path d="M43.3987 315.451C43.5829 315.359 43.5829 315.451 43.5829 315.635C43.5829 316.648 43.5829 317.569 43.5829 318.582C43.5829 318.767 43.4908 318.951 43.3987 319.043C43.0303 319.227 42.6619 319.411 42.2934 319.596C41.925 319.78 41.5566 319.964 41.1882 320.24C41.004 320.332 41.004 320.24 41.004 320.056C41.004 319.043 41.004 318.122 41.004 317.109C41.004 316.924 41.004 316.74 41.1882 316.648C41.2803 316.556 41.4645 316.556 41.5566 316.464C41.8329 316.372 42.1092 316.188 42.2934 316.003C42.5698 315.911 42.754 315.727 43.0303 315.635C43.1224 315.635 43.2145 315.635 43.3987 315.451C43.3987 315.543 43.3987 315.543 43.3987 315.451Z" fill="white"/>
<path d="M33.0205 596.299L34.8016 599.385L36.6012 596.294L39.212 597.797L37.4095 600.899L40.9902 600.894L40.9825 603.902L37.3956 603.906L39.1738 607.002L36.5644 608.498L34.7833 605.412L32.9837 608.503L30.3791 607.001L32.1816 603.899L28.6009 603.905L28.6086 600.897L32.1894 600.891L30.4111 597.795L33.0205 596.299Z" fill="#38FFA6"/>
<path d="M50.521 596.299L52.3022 599.385L54.1018 596.294L56.7125 597.797L54.91 600.899L58.4908 600.894L58.483 603.902L54.8961 603.906L56.6743 607.002L54.0649 608.498L52.2838 605.412L50.4842 608.503L47.8797 607.001L49.6821 603.899L46.1014 603.905L46.1091 600.897L49.6899 600.891L47.9116 597.795L50.521 596.299Z" fill="#38FFA6"/>
<path d="M68.0218 596.299L69.8029 599.385L71.6025 596.294L74.2133 597.797L72.4108 600.899L75.9915 600.894L75.9838 603.902L72.3968 603.906L74.1751 607.002L71.5657 608.498L69.7846 605.412L67.985 608.503L65.3804 607.001L67.1829 603.899L63.6022 603.905L63.6099 600.897L67.1906 600.891L65.4124 597.795L68.0218 596.299Z" fill="#38FFA6"/>
<path d="M85.5223 596.299L87.3034 599.385L89.103 596.294L91.7138 597.797L89.9113 600.899L93.492 600.894L93.4843 603.902L89.8974 603.906L91.6756 607.002L89.0662 608.498L87.2851 605.412L85.4855 608.503L82.8809 607.001L84.6834 603.899L81.1027 603.905L81.1104 600.897L84.6912 600.891L82.9129 597.795L85.5223 596.299Z" fill="#38FFA6"/>
<path d="M61.2851 546.866C67.6846 546.866 72.9142 552.151 72.9142 558.651C72.9142 563.436 70.093 567.579 66.0331 569.436C72.4326 570.721 78.3933 574.958 81.421 580.601C80.7329 581.601 79.976 582.386 79.2191 583.172C73.5077 588.6 66.4288 589.83 62.6442 589.83C62.1625 589.83 61.4658 589.901 61.0529 589.83C51.4882 589.473 44.521 583.88 42.5943 581.237C43.6265 579.237 45.665 576.792 47.2477 575.221C47.7981 574.649 49.312 573.221 50.6882 572.435C52.6149 571.15 54.8169 570.221 57.0877 569.65C52.7526 567.936 49.7249 563.65 49.7249 558.722C49.6561 552.151 54.8169 546.866 61.2851 546.866Z" fill="white"/>
<path fill-rule="evenodd" clip-rule="evenodd" d="M62.8133 569.809L65.6172 568.526C69.3291 566.828 71.9142 563.036 71.9142 558.651C71.9142 552.692 67.1206 547.866 61.2851 547.866C55.3868 547.866 50.6617 552.683 50.7248 558.712L50.7249 558.722H50.7249C50.7249 563.237 53.4987 567.155 57.4554 568.72L60.3433 569.862L57.3317 570.62C55.1584 571.166 53.0642 572.052 51.2433 573.267L51.2143 573.286L51.184 573.304C49.9336 574.018 48.4989 575.363 47.9678 575.915L47.9601 575.923L47.9522 575.93C46.5556 577.317 44.8251 579.375 43.792 581.136C44.814 582.325 46.7558 584.016 49.4466 585.517C52.514 587.229 56.494 588.659 61.0902 588.831L61.1573 588.833L61.2234 588.845C61.3174 588.861 61.5005 588.866 61.7915 588.857C61.8685 588.855 61.9577 588.851 62.0519 588.847C62.2496 588.839 62.4692 588.83 62.6442 588.83C66.2583 588.83 73.0476 587.648 78.5143 582.462C79.1288 581.824 79.7038 581.225 80.2362 580.53C77.2736 575.437 71.7541 571.605 65.8362 570.416L62.8133 569.809ZM81.421 580.601C80.7329 581.601 79.976 582.386 79.2191 583.172C73.5077 588.6 66.4288 589.83 62.6442 589.83C62.4887 589.83 62.3108 589.837 62.1273 589.845C61.7423 589.861 61.3325 589.878 61.0529 589.83C51.4882 589.473 44.521 583.88 42.5943 581.237C43.6265 579.237 45.665 576.792 47.2477 575.221C47.7981 574.649 49.312 573.221 50.6882 572.435C52.1935 571.431 53.8667 570.645 55.6095 570.076C56.0975 569.917 56.5909 569.775 57.0877 569.65C56.6121 569.462 56.1524 569.243 55.7106 568.995C52.1248 566.988 49.7249 563.11 49.7249 558.722C49.6561 552.151 54.8169 546.866 61.2851 546.866C67.6846 546.866 72.9142 552.151 72.9142 558.651C72.9142 562.891 70.6989 566.627 67.3694 568.715C66.9416 568.983 66.4954 569.224 66.0331 569.436C66.5327 569.536 67.0296 569.654 67.5227 569.79C73.3454 571.391 78.6297 575.399 81.421 580.601Z" fill="white"/>
<path fill-rule="evenodd" clip-rule="evenodd" d="M53.6885 537.672H57.7246C58.1616 537.603 58.6172 537.508 59.0817 537.411C60.0473 537.21 61.0515 537 62.0076 537H58.1886C57.6535 537 55.7385 537.325 54.3846 537.555C54.128 537.598 53.8916 537.639 53.6885 537.672ZM52.2016 539.23H48.1655C49.9357 538.522 51.7767 537.956 53.6885 537.672H57.7246C55.8128 537.956 53.9718 538.522 52.2016 539.23ZM61.8314 589.717C47.6697 589.717 36.128 577.962 36.128 563.518C36.128 552.542 42.784 543.125 52.2015 539.23H48.1654C38.7479 543.125 32.0919 552.542 32.0919 563.518C32.0919 577.962 43.5629 589.717 57.7245 589.717H61.8314Z" fill="#38FFA6"/>
<path fill-rule="evenodd" clip-rule="evenodd" d="M61.8314 537.818C47.9547 537.818 36.6279 549.34 36.6279 563.517C36.6279 577.695 47.9547 589.217 61.8314 589.217C68.4859 589.217 74.6592 586.516 79.1721 582.148L81.4163 579.623C84.8825 575.251 86.964 569.629 86.964 563.517C86.964 555.7 83.5411 548.689 78.1423 543.971L78.8003 543.218C84.4101 548.12 87.964 555.403 87.964 563.517C87.964 569.863 85.8004 575.708 82.1909 580.256L82.1823 580.267L79.8948 582.84L79.8814 582.853C75.1904 587.4 68.7654 590.217 61.8314 590.217C47.3847 590.217 35.6279 578.23 35.6279 563.517C35.6279 548.805 47.3847 536.818 61.8314 536.818C65.8368 536.818 69.6322 537.741 73.025 539.388L72.5883 540.287C69.328 538.705 65.6816 537.818 61.8314 537.818Z" fill="white"/>
<path fill-rule="evenodd" clip-rule="evenodd" d="M256.844 662.925C256.574 662.857 256.337 662.756 256.125 662.62V671.54L259.104 678.691L262.48 676.44L256.844 662.925Z" fill="#38FFA6"/>
<path fill-rule="evenodd" clip-rule="evenodd" d="M301.205 661.427L298.074 675.856L300.012 676.871L301.586 670.084V661.309C301.459 661.359 301.341 661.393 301.214 661.427H301.205Z" fill="#38FFA6"/>
<path fill-rule="evenodd" clip-rule="evenodd" d="M316.734 686.265L292.701 688.871L283.299 702.132L270.698 689.032L246.706 687.323L246.291 687.331L246.224 696.869L270.698 698.603L283.299 711.704L292.701 698.443L317.547 695.752L317.699 686.307L316.734 686.265Z" fill="#38FFA6"/>
<path fill-rule="evenodd" clip-rule="evenodd" d="M279.91 668.291L301.003 660.753L301.661 661.325L298.699 675.622L317.932 685.738L317.753 686.677L293.02 689.353L283.706 702.489L282.938 702.547L270.428 689.534L246.255 687.805L246.014 686.89L261.776 676.379L256.027 662.601L256.62 661.926L279.91 668.291ZM300.501 661.994L279.95 669.339L257.344 663.161L263.016 676.754L247.784 686.911L270.882 688.564L283.24 701.418L292.465 688.407L316.015 685.86L297.567 676.157L300.501 661.994Z" fill="white"/>
<path fill-rule="evenodd" clip-rule="evenodd" d="M232.782 653.684C231.015 654.622 229.975 655.761 229.63 657.065C229.241 658.535 229.725 660.261 231.14 662.213C232.552 664.16 234.842 666.259 237.903 668.428C242.53 671.708 248.865 675.111 256.44 678.364L256.046 679.283C248.431 676.013 242.028 672.577 237.325 669.244C234.22 667.044 231.833 664.871 230.331 662.8C228.832 660.734 228.164 658.695 228.663 656.809L228.663 656.809C229.106 655.137 230.408 653.812 232.312 652.801C234.218 651.789 236.781 651.059 239.866 650.593C246.041 649.659 254.425 649.763 264.123 650.888L264.008 651.881C254.354 650.762 246.068 650.666 240.016 651.581C236.988 652.039 234.548 652.746 232.782 653.684ZM260.035 679.86C265.028 681.871 270.477 683.804 276.264 685.593L275.968 686.549C270.157 684.752 264.682 682.809 259.662 680.787L260.035 679.86Z" fill="white"/>
<path d="M272.425 648.404L271.795 652.092L274.185 654.971L270.497 654.341L267.618 656.731L268.248 653.043L265.858 650.163L269.546 650.794L272.425 648.404Z" fill="white"/>
</svg>
